<?xml version="1.0" encoding="UTF-8" standalone="no"?>
<!-- Created with Inkscape (http://www.inkscape.org/) -->

<svg
   version="1.1"
   id="svg9"
   width="386"
   height="386"
   viewBox="0 0 386 386"
   sodipodi:docname="e.gda.png"
   inkscape:version="1.1 (c4e8f9e, 2021-05-24)"
   xmlns:inkscape="http://www.inkscape.org/namespaces/inkscape"
   xmlns:sodipodi="http://sodipodi.sourceforge.net/DTD/sodipodi-0.dtd"
   xmlns="http://www.w3.org/2000/svg"
   xmlns:svg="http://www.w3.org/2000/svg">
  <defs
     id="defs13" />
  <sodipodi:namedview
     id="namedview11"
     pagecolor="#ffffff"
     bordercolor="#666666"
     borderopacity="1.0"
     inkscape:pageshadow="2"
     inkscape:pageopacity="0.0"
     inkscape:pagecheckerboard="0"
     showgrid="false"
     inkscape:zoom="0.96868216"
     inkscape:cx="311.2476"
     inkscape:cy="233.82283"
     inkscape:window-width="1312"
     inkscape:window-height="1027"
     inkscape:window-x="0"
     inkscape:window-y="25"
     inkscape:window-maximized="0"
     inkscape:current-layer="g15" />
  <g
     inkscape:groupmode="layer"
     inkscape:label="Image"
     id="g15">
    <path
       style="fill:#000000"
       d="m 167.18884,381.94831 c -26.48748,-3.78322 -48.27944,-11.28403 -72.943621,-25.10724 -3.85,-2.15776 -7.675004,-4.47557 -8.500004,-5.15069 -0.825,-0.67512 -5.22644,-3.97356 -9.78098,-7.32987 -9.72784,-7.16859 -26.51181,-23.53064 -34.45435,-33.58821 C 11.850265,273.21455 -3.3972146,223.44787 0.63942541,177.37408 2.9555354,150.93822 8.9725054,128.88645 19.857105,106.94263 47.650785,50.909391 98.197723,13.263132 160.39245,2.2749573 c 14.38523,-2.54149203 42.93322,-3.05546003 56.85277,-1.023556 60.6253,8.8497647 112.06504,43.5667267 141.67385,95.6164697 3.5427,6.227759 4.77274,8.727939 9.6197,19.553039 18.55245,41.43469 20.12911,93.94865 4.1867,139.44696 -20.82532,59.43369 -73.08377,106.94106 -134.09675,121.90533 -20.61522,5.05617 -52.30484,6.90818 -71.43988,4.17511 z m 55.05638,-2.01467 c 15.96126,-2.68327 33.97081,-7.98427 45.71728,-13.4566 l 6.28272,-2.92693 -11.064,0.55103 c -12.46509,0.6208 -19.378,-0.91372 -23.39926,-5.19416 l -2.25053,-2.39558 -3.75769,1.95862 c -8.1128,4.22863 -13.15031,4.28098 -47.52852,0.49395 -7.15,-0.78763 -17.275,-1.72553 -22.5,-2.08423 -19.79676,-1.35903 -33.4775,-4.46027 -42.85252,-9.71409 l -3.35251,-1.87877 -3.39114,2.58654 c -5.20988,3.97377 -11.44235,6.44501 -16.403831,6.50429 -4.263448,0.0509 -4.394866,0.13538 -2.5,1.60628 4.21287,3.27027 24.576531,12.47746 36.031171,16.29106 13.03924,4.34117 28.4308,7.76248 40.96883,9.10676 11.07651,1.18758 39.15979,0.3742 50,-1.44817 z m 54.00885,-20.65497 c 3.07114,-1.14905 6.24733,-1.8346 7.05821,-1.52344 1.5576,0.59771 11.00605,-4.81607 20.34685,-11.65834 25.27346,-18.51317 44.55335,-41.20379 58.39806,-68.72902 15.24403,-30.30727 21.67088,-59.85171 20.33922,-93.5 C 380.51678,136.37349 362.36671,93.883641 329.26804,59.492793 290.02983,18.722716 235.71684,-2.2835487 179.19283,1.4492293 89.366924,7.3812233 16.608875,74.678914 3.1596354,164.27145 c -1.81966,12.12171 -1.82007,42.71229 -7.4e-4,54.59642 6.50467,42.48933 24.0438896,77.12658 54.4903696,107.61004 12.01656,12.03116 28.25094,24.925 28.90647,22.95841 0.66666,-1.99999 10.943374,-7.94103 16.561265,-9.5742 3.00338,-0.87311 6.03559,-2.28018 6.73825,-3.12683 0.70266,-0.84665 3.18053,-2.43386 5.50638,-3.52715 3.81966,-1.79545 4.45402,-1.8435 6.55621,-0.4966 3.18215,2.03885 18.74109,6.65633 22.42898,6.65633 1.64912,0 3.4259,0.41495 3.9484,0.92211 0.95468,0.92665 8.67619,1.73728 24.45,2.56686 23.64534,1.24356 43.10986,2.87977 43.59493,3.66464 0.2988,0.48346 0.95287,0.62586 1.4535,0.31646 0.50063,-0.30941 1.81954,-0.0759 2.9309,0.51887 2.22344,1.18995 2.73583,4.60601 0.78825,5.2552 -1.94693,0.64898 -9.18462,-0.9673 -13.92903,-3.11055 -4.40042,-1.98785 -7.55321,-2.36079 -34.33855,-4.06184 -17.70316,-1.12427 -24.71777,-2.17266 -37.44391,-5.59628 -9.42405,-2.53529 -12.05609,-2.60855 -12.05609,-0.3356 0,0.66146 -0.74724,2.02834 -1.66054,3.03752 -1.96215,2.16815 -2.35453,1.78482 5.23302,5.11234 8.39878,3.68329 17.32866,5.38439 38.09895,7.25769 9.80571,0.88439 22.55357,2.0691 28.32857,2.6327 13.8708,1.35369 34,1.75399 34,0.67614 0,-0.47094 0.7875,-0.85794 1.75,-0.86 3.09967,-0.007 8.06897,-3.78463 10.44105,-7.93801 1.26992,-2.22356 2.64645,-4.04631 3.05895,-4.05055 1.47073,-0.0151 0.71651,3.76516 -1.25,6.26517 -2.56481,3.26063 -2.51853,4.36058 0.25,5.94195 5.07857,2.90084 8.74133,3.63668 18.46249,3.7091 8.04455,0.0599 11.39785,-0.36742 15.79636,-2.01312 z M 236.74522,345.8543 c 0,-1.62003 1.66038,-4.93476 3.83841,-7.66286 1.16755,-1.46243 0.78458,-2.28079 -3,-6.41074 -4.76641,-5.20136 -12.82298,-9.40052 -21.89643,-11.41263 -3.73351,-0.82793 -10.29885,-1.0528 -20,-0.68501 -19.84913,0.75252 -18.5927,0.59873 -68.08701,8.33442 l -10.64504,1.66376 -4.77571,-2.40669 c -5.3987,-2.72063 -9.15111,-8.63502 -10.01248,-15.78127 -0.61884,-5.1341 1.10197,-5.47778 2.0527,-0.40997 1.3846,7.38054 5.04847,12.64055 10.34683,14.85435 3.60243,1.50519 7.31166,1.12937 35.17873,-3.5643 20.46975,-3.44773 48.96626,-6.27786 57,-5.66095 7.27033,0.5583 17.35312,3.29003 23.5,6.36687 1.65,0.82591 5.3216,3.76045 8.15912,6.52121 l 5.15912,5.01955 1.79058,-3.37608 c 1.3958,-2.63175 1.87504,-2.97942 2.17367,-1.57692 0.2107,0.98954 -0.32916,2.88621 -1.1997,4.21482 -0.87053,1.3286 -1.58279,3.10648 -1.58279,3.95083 0,0.84435 -0.67634,1.53518 -1.50297,1.53518 -0.82664,0 -2.28279,1.8 -3.2359,4 -1.76541,4.07498 -3.26113,5.21538 -3.26113,2.48643 z m 9.09993,-21.62281 c -1.37547,-3.1074 -11.72966,-14.86362 -13.09101,-14.86362 -0.42661,0 -1.01155,0.90206 -1.29987,2.00459 -0.36484,1.39517 -1.23633,1.92718 -2.86663,1.75 -1.74804,-0.18999 -2.26786,0.18947 -2.04858,1.49541 0.36681,2.18465 -1.14619,2.25479 -3.25029,0.15069 -1.2546,-1.25459 -1.90716,-1.34381 -3.02762,-0.41391 -0.78558,0.65197 -1.89803,0.8951 -2.47213,0.54029 -1.60438,-0.99156 -1.2372,-4.52707 0.47016,-4.52707 1.23963,0 1.40766,-0.99744 0.92733,-5.50482 -0.52624,-4.93813 -0.399,-5.4756 1.23604,-5.22107 1.00247,0.15606 2.49767,0.66913 3.32267,1.14014 0.825,0.47102 -2.03204,-2.71868 -6.34899,-7.08821 -6.31204,-6.38894 -10.32098,-11.41158 -11.23832,-14.08002 -0.048,-0.13968 -1.81808,0.34523 -3.93347,1.0776 -2.37677,0.82286 -3.39262,1.61187 -2.65901,2.06526 0.70779,0.43744 0.93339,1.74467 0.55872,3.23748 -0.81186,3.23472 4.00289,8.70462 6.86301,7.79685 1.02079,-0.32399 2.99666,0.15833 4.39082,1.07182 3.44451,2.25693 8.1059,12.59999 5.61724,12.46398 -0.4125,-0.0225 -1.79824,-2.27584 -3.07943,-5.00733 -1.28119,-2.73148 -3.30619,-5.47411 -4.5,-6.09472 -2.1055,-1.09457 -2.10072,-1.05239 0.15932,1.40681 1.28143,1.39436 2.19267,3.36793 2.02495,4.38572 -0.16771,1.01778 0.0479,2.41301 0.47914,3.10051 0.53142,0.84723 0.12888,1.25 -1.24928,1.25 -1.94087,0 -5.43968,-4.88245 -4.84477,-6.76066 0.14304,-0.45158 -1.49939,-2.64888 -3.64983,-4.88288 l -3.90991,-4.06181 -2.98854,3.40376 c -6.15472,7.00984 -11.46346,7.8079 -25.28841,3.80159 -4.74483,-1.375 -10.11483,-2.5 -11.93332,-2.5 -4.60209,0 -6.46992,-0.89697 -6.46992,-3.10699 0,-2.23626 3.18503,-2.57992 4.88843,-0.52744 0.62333,0.75106 3.10125,1.6353 5.50651,1.96498 2.40525,0.32967 6.33786,1.28362 8.73912,2.11988 6.52944,2.27392 16.38036,2.03152 19.9218,-0.4902 4.56842,-3.25301 7.01874,-7.33617 6.36599,-10.60816 l -0.56898,-2.85207 -20.17644,0.65315 c -21.83802,0.70694 -26.59784,1.61416 -36.79967,7.01399 -10.40103,5.50527 -16.69618,13.46059 -19.84838,25.08286 -0.70857,2.6125 -1.65153,4.75 -2.09547,4.75 -1.56365,0 0.33828,-7.58124 3.6778,-14.65998 3.81978,-8.09671 9.32851,-13.60782 17.69216,-17.69977 5.01052,-2.45142 13.15994,-5.61297 14.21897,-5.51622 0.27171,0.0248 3.75294,-0.23732 7.73609,-0.58252 3.98314,-0.34521 13.6384,-0.7421 21.45614,-0.88198 7.81774,-0.13988 14.37394,-0.458 14.56933,-0.70693 2.3407,-2.98202 4.47006,-8.27034 4.07979,-10.13226 -2.09782,-10.00835 -5.1364,-17.73252 -8.5891,-21.83376 -0.76535,-0.90912 -3.07091,-1.54613 -5.77409,-1.59535 -2.475,-0.0451 -6.36433,-1.0361 -8.64295,-2.2023 -7.05464,-3.61055 -20.40774,-14.24346 -30.69109,-24.43893 -8.90429,-8.8282 -10.18619,-9.75 -13.55887,-9.75 -4.57728,0 -7.68986,-2.03894 -6.7704,-4.43503 0.50201,-1.30821 1.35436,-1.5721 3.53254,-1.09369 2.39884,0.52687 2.99228,0.25223 3.60925,-1.67037 l 0.73837,-2.30091 0.64157,2.5734 c 0.81515,3.26958 23.45305,24.97656 33.2999,31.93053 4.03792,2.85163 9.42932,6.20264 11.98089,7.44669 4.03655,1.96808 5.02107,2.10134 7.57888,1.02587 1.69758,-0.71378 3.48576,-2.55442 4.23211,-4.35627 0.71084,-1.71612 1.68785,-3.12022 2.17112,-3.12022 1.22643,0 1.11296,0.70404 -0.74423,4.61777 -1.57236,3.3135 -1.54349,3.53623 0.92679,7.15112 3.57674,5.23405 5.44763,9.81503 6.73095,16.48111 0.60883,3.1625 1.38837,5.75 1.73232,5.75 0.34394,0 2.39887,-1.2375 4.5665,-2.75 2.16764,-1.5125 6.90549,-4.33964 10.52856,-6.28252 6.17659,-3.31223 6.64172,-3.80722 7.45847,-7.93725 0.83511,-4.22285 9.82158,-19.03023 11.54928,-19.03023 1.15568,0 3.13004,-4.67545 3.13004,-7.41219 0,-1.27495 0.9,-3.46226 2,-4.86068 1.1,-1.39842 2,-2.92586 2,-3.39431 0,-0.46845 -0.9,-1.41379 -2,-2.10075 -6.47407,-4.04312 3.26943,-12.55457 17.80872,-15.55685 3.86993,-0.79912 5.69128,-1.65526 5.69128,-2.67522 0,-3.16539 12.28616,-6.77306 13.94198,-4.09388 0.75355,1.21927 4.77723,0.18704 6.21202,-1.59362 1.81201,-2.24881 2.41409,-3e-4 1.42194,5.31038 -1.05589,5.65192 -0.78092,6.37712 2.41798,6.37712 1.30673,0 3.64268,0.53191 5.19098,1.18203 1.54831,0.65012 5.73584,1.43762 9.30564,1.75 8.79958,0.77003 9.30408,2.94352 1.23896,5.33773 -3.20565,0.95163 -6.81034,1.73024 -8.01042,1.73024 -1.20008,0 -5.26288,0.52832 -9.02844,1.17404 -6.42941,1.10252 -6.98207,1.40965 -9.07243,5.04173 -2.83021,4.91758 -12.56889,12.12093 -19.36974,14.32708 -2.88666,0.93642 -6.37347,2.68552 -7.74847,3.8869 -1.375,1.20138 -4.33638,3.35217 -6.58085,4.77954 -2.24446,1.42736 -6.74446,5.27762 -10,8.55612 -3.25553,3.2785 -6.91229,6.47796 -8.12612,7.10991 -1.36451,0.71039 -2.46038,2.49979 -2.87082,4.68764 -0.79349,4.22969 -7.6644,11.34063 -13.50084,13.9725 -2.15676,0.97256 -3.92137,2.19255 -3.92137,2.71109 0,0.51855 4.3808,5.2877 9.73512,10.59813 17.90892,17.76212 28.75466,29.69893 29.92638,32.93692 1.49178,4.12244 0.18504,5.02789 -1.56157,1.08202 z m -22.31271,-17.11588 c -2.65508,-5.55819 -2.93626,-5.77653 -2.15678,-1.67482 0.83782,4.40878 2.23905,7.12577 3.32789,6.45283 0.4719,-0.29164 -0.0551,-2.44175 -1.17111,-4.77801 z m 3.66472,-0.84067 c -0.87968,-1.70111 -1.85219,-2.84016 -2.16113,-2.53121 -0.57501,0.575 2.34984,5.62414 3.25792,5.62414 0.27645,0 -0.21711,-1.39182 -1.09679,-3.09293 z m -17.45194,-5.40707 c -0.70675,-0.85158 -1.51,-1.32333 -1.785,-1.04833 -0.275,0.275 0.0782,1.19675 0.785,2.04833 0.70675,0.85158 1.51,1.32333 1.785,1.04833 0.275,-0.275 -0.0782,-1.19675 -0.785,-2.04833 z m -5.67646,-25.09924 c -0.38476,-1.00267 -0.92908,-1.19522 -1.56919,-0.55511 -1.14518,1.14518 -0.0365,3.44675 1.27107,2.63864 0.48798,-0.30159 0.62213,-1.23918 0.29812,-2.08353 z m 8.73068,-2.23281 c 5.24802,-3.34309 12.26579,-10.84115 11.42302,-12.20478 -0.77611,-1.25577 -10.15878,3.80537 -18.83425,10.15945 -1.19618,0.8761 0.22194,4.87738 1.72862,4.87738 0.68025,0 3.23743,-1.27442 5.68261,-2.83205 z M 247.36153,238.524 c 1.71398,-0.70841 3.72407,-2.49585 4.46688,-3.97208 0.74281,-1.47623 1.4671,-2.86068 1.60952,-3.07655 0.14243,-0.21588 0.88109,0.12382 1.64148,0.75489 1.07505,0.89221 2.89639,0.37213 8.18953,-2.33853 7.72461,-3.95584 10.20166,-6.04407 15.15234,-12.77386 2.19194,-2.97964 4.30113,-4.78815 5.65911,-4.85236 1.63884,-0.0775 1.43592,-0.28975 -0.83517,-0.87362 -6.05157,-1.55577 -8.86897,-3.05505 -7.78254,-4.14148 0.72418,-0.72418 2.53212,-0.53701 5.91284,0.61212 2.67833,0.91039 7.02034,1.91076 9.64891,2.22305 2.62856,0.31228 5.01192,0.94434 5.29636,1.40456 0.28443,0.46023 1.28379,0.42317 2.22079,-0.0823 0.937,-0.50551 3.05364,-1.25872 4.70364,-1.67379 l 3,-0.75467 -3,-0.31648 c -1.65,-0.17406 -5.25,-0.9706 -8,-1.77008 -9.87536,-2.87096 -18.07968,-4.76974 -22.59521,-5.22934 -4.43651,-0.45155 -4.65237,-0.34727 -6.25,3.01949 -0.91014,1.91797 -1.65479,4.45405 -1.65479,5.63574 0,3.05887 -2.51704,7.52415 -5.61488,9.96091 -2.7777,2.18494 -7.82526,2.80319 -8.88512,1.0883 -2.00197,-3.23925 -7.5,1.68032 -7.5,6.7109 0,2.4995 -1.00101,4.41975 -4,7.67327 -2.2,2.38672 -4,4.61351 -4,4.94842 0,0.33492 -1.33152,2.53459 -2.95893,4.88817 -1.62741,2.35358 -3.27118,5.62924 -3.65282,7.27924 -0.62515,2.70284 0.13846,2.20479 7.70893,-5.02792 4.62155,-4.41536 9.80516,-8.60754 11.51913,-9.31595 z m 8.83664,-19.31665 c 1.40088,-0.63828 2.54705,-1.55411 2.54705,-2.03518 0,-0.48107 -1.0125,-0.33279 -2.25,0.3295 -1.2375,0.66229 -2.3625,1.12812 -2.5,1.03518 -0.91834,-0.62072 -2.25495,0.014 -1.75,0.83102 0.7739,1.2522 0.86006,1.2487 3.95295,-0.16052 z m -2.28586,-3.71416 c 4.32685,-1.87206 8.02169,-5.86146 9.82742,-10.61088 1.16367,-3.06069 -0.17045,-3.24529 -7.57093,-1.04759 -7.5317,2.23667 -16.65776,9.53315 -11.92358,9.53315 0.83333,0 1.5,0.88889 1.5,2 0,2.55226 2.47015,2.59017 8.16709,0.12532 z m 31.22592,-15.70711 c 0.33385,-0.86998 0.60699,-1.9508 0.60699,-2.40181 0,-1.51038 -11.31338,-2.23359 -14.50227,-0.92707 l -2.99773,1.2282 4.5,0.7502 c 2.475,0.41261 5.625,1.21264 7,1.77785 3.56013,1.46342 4.70218,1.37292 5.39301,-0.42737 z m -183.39301,102.5144 c 0,-2.53569 0.32251,-2.96503 1.86058,-2.47686 2.85672,0.90669 10.16996,-8.60475 13.61375,-17.70575 1.80976,-4.78271 3.52634,-6.24368 3.52488,-3 -0.002,3.77401 -6.22516,14.63536 -11.63684,20.30894 -3.11675,3.26759 -6.04831,5.94106 -6.51459,5.94106 -0.46628,0 -0.84778,-1.38032 -0.84778,-3.06739 z m 0.59129,-6.68261 c 1.58098,-6.90773 9.87492,-21.49019 15.9869,-28.10828 1.27439,-1.37991 1.97271,-3.14309 1.68324,-4.25 -0.33334,-1.2747 0.0282,-1.89172 1.10852,-1.89172 1.36582,0 4.38981,-5.14716 4.9938,-8.5 0.36254,-2.01255 2.12573,-1.12784 1.80019,0.90328 -0.67564,4.2155 -4.01386,10.28916 -10.22117,18.59672 -7.00031,9.36888 -12.93491,20.26148 -12.93969,23.75 -0.002,1.34452 -0.6144,2.25 -1.52213,2.25 -1.14306,0 -1.36327,-0.68067 -0.88966,-2.75 z m 17.40871,-20.80902 c 0,-0.85746 0.45734,-1.27636 1.01631,-0.9309 0.55897,0.34546 0.75742,1.04702 0.44098,1.55902 -0.85723,1.38704 -1.45729,1.12841 -1.45729,-0.62812 z m -4,-11.44098 c 0,-0.55 0.45,-1 1,-1 0.55,0 1,0.45 1,1 0,0.55 -0.45,1 -1,1 -0.55,0 -1,-0.45 -1,-1 z m 0.64801,-4.25 c 1.20305,-3.45799 0.84537,-6.74445 -1.38762,-12.75 -2.67503,-7.19438 -3.66484,-12 -2.47162,-12 0.52122,0 1.73637,2.8125 2.70033,6.25 0.96396,3.4375 2.18736,7.375 2.71867,8.75 0.94403,2.44306 1.0233,2.38813 3.48069,-2.41212 3.29932,-6.44488 5.43713,-12.58788 4.38068,-12.58788 -0.46318,0 -1.08914,-1.2375 -1.39103,-2.75 -0.30189,-1.5125 -2.30967,-7.84558 -4.46173,-14.07351 -3.89597,-11.27469 -3.91835,-11.31022 -5.18961,-8.24112 -0.70222,1.69532 -1.27677,4.2034 -1.27677,5.57351 0,2.49983 -1.13204,3.30001 -2.20729,1.56022 -0.31644,-0.512 -0.11065,-1.21809 0.45729,-1.5691 0.56794,-0.35101 0.78814,-1.03378 0.48932,-1.51728 -0.29882,-0.4835 0.3014,-3.28244 1.33383,-6.21987 1.15252,-3.27914 1.58492,-6.1307 1.12014,-7.38712 -1.20653,-3.26157 -1.46354,-6.83285 -0.53079,-7.37573 0.47249,-0.275 1.02794,1.04247 1.23432,2.9277 0.20639,1.88524 0.54425,3.5967 0.7508,3.80325 0.67654,0.67654 14.83702,-17.151 16.2301,-20.43312 0.99717,-2.34933 1.08711,-3.91767 0.33774,-5.88869 -1.31063,-3.4472 -0.63827,-4.08195 1.7714,-1.67228 1.39313,1.39313 1.78834,2.89018 1.47392,5.58333 -0.23627,2.0239 -0.75457,3.67981 -1.15177,3.67981 -0.3972,0 -2.11898,2.1375 -3.82618,4.75 -1.70721,2.6125 -4.91409,6.775 -7.12641,9.25 -6.85181,7.66535 -6.89544,8.12942 -2.11347,22.47885 2.30611,6.92003 4.28808,13.23018 4.40438,14.02256 0.4861,3.31201 1.50192,2.25323 3.49197,-3.63962 1.16088,-3.43757 2.1107,-7.06276 2.1107,-8.05596 0,-0.99321 0.43875,-1.80583 0.975,-1.80583 2.28834,0 -4.07975,20.60087 -9.63736,31.17702 -2.22609,4.23625 -3.3696,7.59276 -3.02964,8.89277 0.39927,1.5268 0.16243,1.94097 -0.88096,1.54058 -0.83684,-0.32112 -1.42704,0.0598 -1.42704,0.92101 0,0.80774 -0.48032,1.46862 -1.06739,1.46862 -0.67219,0 -0.77756,-0.83306 -0.2846,-2.25 z m 78.35199,-26.75 c 0,-1.86667 0.26667,-2.13333 1.2,-1.2 0.93333,0.93333 0.93333,1.46667 0,2.4 -0.93333,0.93333 -1.2,0.66667 -1.2,-1.2 z m -83.44037,0.0965 c -0.43195,-0.69891 -0.29207,-1.76405 0.31084,-2.36696 1.47541,-1.47541 2.036,-0.66344 1.17651,1.70409 -0.51854,1.42835 -0.9072,1.60157 -1.48735,0.66287 z m 82.90063,-6.3465 c -0.37083,-0.9625 -0.37083,-2.5375 0,-3.5 0.64213,-1.66667 0.72102,-1.66667 1.65668,0 0.64325,1.14581 0.64325,2.35419 0,3.5 -0.93566,1.66667 -1.01455,1.66667 -1.65668,0 z m -15.9999,-8.6251 c 0.58096,-1.83045 -4.72781,-9.64704 -8.87017,-13.06037 -0.95814,-0.78951 -3.51392,-4.66388 -5.67953,-8.60972 -4.97588,-9.06633 -12.59388,-17.89528 -19.5394,-22.64542 -11.23731,-7.68533 -23.79755,-5.85505 -28.19436,4.10851 -1.41341,3.20291 -1.6201,3.34059 -1.9525,1.30063 -0.5908,-3.62576 2.88614,-8.50272 7.79848,-10.93859 8.81098,-4.3691 8.47306,-3.33795 4.00566,-12.22318 -4.75055,-9.44836 -8.63477,-22.85053 -7.07469,-24.41061 0.60304,-0.60304 1.07762,-0.64377 1.12046,-0.0961 0.35609,4.55238 2.96679,12.6562 6.4918,20.15107 1.3454,2.86059 2.92959,6.46059 3.52042,8 l 1.07423,2.79893 2.41465,-3 c 1.32806,-1.65 2.41689,-3.7875 2.41962,-4.75 0.003,-0.9625 0.67997,-1.75 1.50497,-1.75 2.35296,0 1.78219,2.37969 -1.87386,7.81256 l -3.37386,5.01353 4.13234,1.04054 c 9.5454,2.40356 20.03517,12.3656 29.09721,27.63337 2.93802,4.95 7.1356,10.73397 9.32794,12.85328 l 3.98608,3.85327 1.30273,-3.60262 c 0.7165,-1.98144 1.68555,-3.2198 2.15344,-2.75191 0.4679,0.4679 0.10213,2.72165 -0.81283,5.00835 -0.91495,2.28669 -1.466,5.50357 -1.22456,7.14863 0.30836,2.10103 0.0241,2.991 -0.95521,2.991 -0.90816,0 -1.18673,-0.65368 -0.79906,-1.8751 z m 15.53964,-0.6249 c 0,-0.825 0.45,-1.5 1,-1.5 0.55,0 1,0.675 1,1.5 0,0.825 -0.45,1.5 -1,1.5 -0.55,0 -1,-0.675 -1,-1.5 z m -61,-1.5 c 0,-0.55 0.45,-1 1,-1 0.55,0 1,0.45 1,1 0,0.55 -0.45,1 -1,1 -0.55,0 -1,-0.45 -1,-1 z m 1,-3.44098 c 0,-0.85746 0.45,-1.55902 1,-1.55902 0.55,0 1,0.42344 1,0.94098 0,0.51754 -0.45,1.2191 -1,1.55902 -0.55,0.33992 -1,-0.0835 -1,-0.94098 z m 59.54271,-1.48992 c -0.31644,-0.512 -0.11799,-1.21356 0.44098,-1.55902 0.55897,-0.34546 1.01631,0.0734 1.01631,0.9309 0,1.75653 -0.60006,2.01516 -1.45729,0.62812 z m -1.08265,-6.59713 c -1.95332,-5.9486 -3.04564,-7.76829 -6.57979,-10.96117 -4.14216,-3.7422 -5.76162,-4.22945 -7.68027,-2.3108 -0.93333,0.93333 -1.2,0.81525 -1.2,-0.53138 0,-2.20785 2.2527,-3.073 5.72944,-2.20039 5.71478,1.43432 13.47295,12.96822 11.19844,16.64846 -0.62733,1.01504 -0.97261,0.86339 -1.46782,-0.64472 z m -12.96468,-5.11041 c -1.04145,-1.93385 -3.18084,-4.18179 -4.7542,-4.9954 -7.56739,-3.91325 -17.03473,-16.47478 -19.87159,-26.36616 -0.70983,-2.475 -1.93963,-4.99423 -2.73287,-5.5983 -0.80342,-0.61181 -1.10915,-1.63729 -0.69022,-2.31514 0.57539,-0.931 1.13982,-0.87253 2.40278,0.24891 2.37686,2.11053 8.88835,3.667 12.40144,2.96439 2.31517,-0.46304 2.9099,-0.27729 2.5562,0.79835 -0.5856,1.78089 -6.08309,2.34977 -9.88837,1.02324 -3.81255,-1.32906 -3.77884,-0.26886 0.23462,7.37855 4.91729,9.3696 11.14624,16.88033 15.7041,18.93564 2.78092,1.25402 4.56051,2.94656 5.72209,5.44221 0.92724,1.99218 1.85855,3.92856 2.06958,4.30305 0.21103,0.3745 0.0138,0.90947 -0.43817,1.18883 -0.45201,0.27937 -1.67394,-1.07431 -2.71539,-3.00817 z m 87.55854,-9.86156 c -0.014,-2.97015 2.97778,-6.11964 7.03891,-7.40989 4.98367,-1.58335 10.88667,0.38005 12.7346,4.23567 1.83642,3.83162 0.58887,4.69676 -2.12168,1.47132 -1.21316,-1.4436 -3.22531,-2.92108 -4.47145,-3.28329 -3.27675,-0.95243 -8.84641,1.19323 -11.16719,4.30205 -1.77821,2.38201 -2.00481,2.45902 -2.01319,0.68414 z m -40.43891,-26.96482 c -1.29081,-1.97002 -1.61501,-5.25233 -1.61501,-16.35077 0,-14.62175 0.96199,-19.55852 4.14296,-21.26092 2.41092,-1.29029 5.45996,-0.3933 6.33805,1.86458 2.43577,6.26318 1.15731,35.55891 -1.62882,37.32444 -2.501,1.58484 -5.6091,0.90744 -7.23718,-1.57733 z m 6.16216,-17.5058 c 0.31256,-17.41803 0.0304,-19.2655 -2.54874,-16.68639 -1.33696,1.33697 -1.77811,4.03631 -2.07442,12.6934 -0.47921,14.00075 0.35775,20.20388 2.66623,19.7608 1.47199,-0.28253 1.71404,-2.23289 1.95693,-15.76781 z m 7.22283,19.10089 c 0,-0.47835 0.93236,-3.74085 2.07192,-7.25 3.30022,-10.16273 5.94509,-24.97997 4.83061,-27.06239 -0.79893,-1.49282 -1.28845,-1.59382 -2.88682,-0.59562 -2.38272,1.48804 -3.81465,0.27165 -2.37821,-2.02022 2.59971,-4.1479 9.3625,-1.44047 9.3625,3.7482 0,3.43305 -3.74712,21.08158 -5.57752,26.26946 -1.84111,5.21827 -1.93631,4.9778 1.84192,4.65229 3.59241,-0.3095 6.08919,0.74688 5.19289,2.19711 -0.72752,1.17715 -12.45729,1.23475 -12.45729,0.0612 z m 16.17668,-0.7974 c 0.48655,-2.50877 2.82332,-2.85325 2.82332,-0.4162 0,1.22833 -0.64569,2.08333 -1.57332,2.08333 -0.93124,0 -1.44138,-0.68037 -1.25,-1.66713 z m 6.82332,-18.33287 c 0,-16.38346 0.25072,-20 1.3865,-20 1.9464,0 2.19069,3.12888 1.77622,22.75 -0.29447,13.94056 -0.63281,17.25 -1.76355,17.25 -1.15225,0 -1.39917,-3.52946 -1.39917,-20 z m 15,9 v -11 h -4.1165 -4.11649 l 0.6923,-6.75 c 0.95539,-9.31506 1.51918,-11.25 3.27793,-11.25 1.2642,0 1.39208,0.88473 0.75886,5.25 -1.25444,8.64782 -1.18908,9.25 1.0039,9.25 1.82222,0 2,-0.66667 2,-7.5 0,-6 0.3,-7.5 1.5,-7.5 1.8564,0 2.64609,10.17341 2.19285,28.25 -0.24735,9.86464 -0.58811,12.25 -1.75,12.25 -1.16969,0 -1.44285,-2.08254 -1.44285,-11 z m 7.19037,9.25 c 0.18536,-0.9625 0.99969,-1.75 1.80963,-1.75 0.80994,0 1.62427,0.7875 1.80963,1.75 0.23646,1.22785 -0.30348,1.75 -1.80963,1.75 -1.50615,0 -2.04609,-0.52215 -1.80963,-1.75 z m 6.80963,0.46534 c 0,-0.70656 0.86715,-3.75185 1.927,-6.76731 3.19119,-9.07951 6.26199,-26.01538 4.9941,-27.5431 -0.84946,-1.02353 -1.50637,-1.05637 -2.9609,-0.148 -2.33651,1.45917 -3.74446,0.21356 -2.3227,-2.05489 2.60708,-4.15966 9.3625,-1.43693 9.3625,3.77349 0,3.12045 -3.26253,18.80204 -5.43069,26.10303 l -1.50538,5.06917 3.23243,-0.27849 c 3.56452,-0.3071 6.05439,0.75421 5.16093,2.19986 -0.92535,1.49725 -12.45729,1.16977 -12.45729,-0.35376 z m 17.52568,-1.66568 c -1.8171,-3.51388 -2.15256,-26.25225 -0.47635,-32.28789 1.74734,-6.29176 8.12128,-7.57013 9.69835,-1.94512 1.20008,4.28039 0.672,32.53066 -0.65443,35.00911 -1.81475,3.39089 -6.63871,2.95391 -8.56757,-0.7761 z m 6.2506,-17.55561 c 0.15499,-8.8876 -0.13356,-16.25133 -0.65736,-16.77513 -2.0724,-2.0724 -3.57062,3.94956 -3.92622,15.78108 -0.36612,12.18154 0.6749,18.04312 3.06345,17.24905 0.90606,-0.30121 1.31888,-4.71553 1.52013,-16.255 z m 7.22372,0.50595 c 0,-18.64907 0.13008,-20.12158 1.75,-19.80945 1.59521,0.30737 1.75,2.05958 1.75,19.80979 0,17.75033 -0.15478,19.50239 -1.75,19.80945 -1.6199,0.31182 -1.75,-1.16085 -1.75,-19.80979 z m 12,19.47723 c 0,-0.36818 0.67082,-2.98867 1.49072,-5.82332 0.81989,-2.83465 1.88679,-7.29141 2.37089,-9.90391 0.8792,-4.74473 0.87707,-4.75 -1.91814,-4.75 -5.78009,0 -8.84616,-8.41992 -5.45444,-14.97879 2.72173,-5.26324 8.36468,-5.13857 11.14931,0.24632 1.26919,2.45433 1.48062,4.74833 0.98425,10.67913 -0.8772,10.48127 -4.77793,24.45957 -6.94187,24.87631 -0.9244,0.17802 -1.68072,0.0224 -1.68072,-0.34574 z m 3.8,-24.67723 c 1.27068,-1.27068 1.61125,-6.56473 0.59301,-9.21821 -0.97287,-2.53528 -4.32598,-1.88828 -5.44323,1.05029 -1.01789,2.67726 -0.50984,5.86193 1.29505,8.11792 1.24994,1.56234 2.03184,1.57333 3.55517,0.05 z m -170.8,19.34602 c 0,-0.46968 1.0125,-1.98252 2.25,-3.36186 1.2375,-1.37934 2.72423,-3.31821 3.30384,-4.3086 0.57961,-0.99039 1.85834,-1.91878 2.84163,-2.0631 2.5843,-0.37929 2.90047,-0.99098 1.68555,-3.26107 -1.36207,-2.54505 -1.38095,-4.15139 -0.0488,-4.15139 1.45118,0 2.71559,3.86839 2.18007,6.6698 -0.27447,1.43579 -1.37697,2.58441 -2.83092,2.94933 -1.30975,0.32873 -2.38137,1.01712 -2.38137,1.52977 0,1.63867 -4.32757,6.8511 -5.68806,6.8511 -0.72157,0 -1.31194,-0.38429 -1.31194,-0.85398 z m -29.99341,-9.39602 c 0.0141,-4.82553 4.04836,-8.81207 18.34487,-18.12802 10.10712,-6.58605 17.13954,-12.73701 19.26791,-16.85281 1.59374,-3.08196 3.50528,-2.96183 2.68659,0.16884 -1.08997,4.16805 -8.33652,10.80075 -20.35772,18.63325 -12.81292,8.34835 -17.94824,13.07087 -17.94824,16.50547 0,1.0578 -0.45,1.92327 -1,1.92327 -0.55,0 -0.99703,-1.0125 -0.99341,-2.25 z m -1.42364,-4.61579 c -0.43077,-0.697 -0.51316,-1.53733 -0.18309,-1.86741 0.89497,-0.89496 1.87077,0.4213 1.38739,1.87145 -0.33872,1.01617 -0.57427,1.01538 -1.2043,-0.004 z m -1.55775,-6.88421 c -1.86434,-6.54125 -2.40545,-12.25 -1.16112,-12.25 0.62475,0 1.20446,1.0125 1.28823,2.25 0.23969,3.5407 0.36128,4.1837 0.99278,5.25 1.21889,2.05812 1.93676,8.5 0.94723,8.5 -0.54907,0 -1.47927,-1.6875 -2.06712,-3.75 z m 41.44823,-0.45864 c -0.69025,-1.79877 4.03613,-15.12788 5.54223,-15.62991 1.54063,-0.51355 0.43087,4.94873 -1.99889,9.83855 -0.95653,1.925 -1.55286,4.02126 -1.32517,4.65836 0.58603,1.6398 -1.596,2.75435 -2.21817,1.133 z m -58.47343,-12.73234 c 0,-2.78246 0.45,-5.05902 1,-5.05902 0.55,0 1,1.99844 1,4.44098 0,2.44254 -0.45,4.7191 -1,5.05902 -0.61633,0.38091 -1,-1.32295 -1,-4.44098 z m 0.46871,-8.80902 c 3.76341,-15.09707 17.29601,-23.249999 38.59141,-23.249999 5.98639,0 9.06279,0.51758 12.39987,2.0862 5.13145,2.41206 5.64482,2.94514 9.16679,9.518759 3.36076,6.27273 4.51373,10.19017 3.23224,10.98217 -0.5465,0.33776 -1.23269,-0.30005 -1.52487,-1.41734 -0.29218,-1.11729 -1.16189,-2.27345 -1.93269,-2.56923 -0.7708,-0.29578 -1.40146,-1.64185 -1.40146,-2.99125 0,-2.78021 -7.19274,-9.609309 -10.12098,-9.609309 -0.96854,0 -2.01076,-0.40415 -2.31605,-0.89811 -0.30528,-0.49397 -3.66413,-1.21035 -7.4641,-1.59196 -5.56044,-0.55842 -7.63342,-0.35011 -10.62017,1.0672 -4.52007,2.14491 -9.17355,8.325349 -10.63326,14.122379 -1.33539,5.30335 -3.19998,5.7581 -2.2571,0.55049 0.81994,-4.52867 2.92734,-8.96444 5.69924,-11.996059 3.10283,-3.39355 1.5805,-3.60856 -4.22475,-0.59668 -6.12825,3.179439 -11.34728,8.902239 -13.67347,14.993279 -1.83582,4.80703 -4.01816,6.00216 -2.92065,1.59946 z m 33.13666,-28.787489 c -1.95681,-1.95681 -1.97961,-2.63107 -0.23047,-6.81736 1.93942,-4.641686 7.14671,-10.280491 12.26225,-13.278397 3.69057,-2.162816 4.36227,-3.042958 4.35911,-5.711778 l -0.004,-3.154978 -1.98156,3.25 c -1.08986,1.7875 -2.67768,3.25 -3.52849,3.25 -1.69933,0 -3.49789,-3.768736 -2.74408,-5.75 1.01554,-2.669164 -7.24112,-0.01702 -10.52886,3.382002 -2.29881,2.376888 -6.20927,3.238387 -6.20927,1.367998 0,-0.55 -0.675,-1 -1.5,-1 -0.85406,0 -1.5,-0.898501 -1.5,-2.08651 0,-1.956504 -0.26151,-1.894196 -4.197,1 -4.91516,3.614648 -6.34478,3.811212 -7.8098,1.073797 -0.87421,-1.633466 -1.45001,-1.813178 -3.05585,-0.953756 -1.08828,0.582427 -2.41938,0.78659 -2.95802,0.453696 -2.76532,-1.709065 0.93036,-9.005612 4.13664,-8.16715 1.03512,0.27069 2.13404,0.08441 2.44205,-0.413957 0.30801,-0.498366 1.04143,-0.90612 1.62983,-0.90612 0.70554,0 0.84397,1.702481 0.40654,5 -0.38189,2.878782 -0.2703,5 0.26301,5 1.80129,0 11.1426,-9.211152 11.1426,-10.987334 0,-0.991098 0.94627,-4.865669 2.10283,-8.610158 2.4378,-7.892687 7.36928,-13.757822 11.12025,-13.225587 5.13117,0.728077 2.49847,11.698001 -4.72677,19.695484 -2.80706,3.107081 -3.30626,4.127595 -2.01905,4.127595 0.94049,0 1.94533,0.9 2.23299,2 0.28766,1.1 1.05038,2 1.69494,2 0.64456,0 2.93722,-0.9 5.09481,-2 2.15759,-1.1 4.26913,-2 4.69231,-2 0.42319,0 0.52148,2.1375 0.21843,4.75 -0.52654,4.539192 -0.4769,4.661239 1.11844,2.75 0.91819,-1.1 2.50875,-3.9125 3.53459,-6.25 2.54834,-5.806734 3.93623,-5.365993 3.93623,1.25 0,3.025 0.29661,5.5 0.65913,5.5 0.36252,0 3.04322,-1.8 5.95709,-4 2.91388,-2.2 5.54227,-4 5.84087,-4 1.82541,0 -0.26575,2.283872 -5.83481,6.372527 -5.40019,3.964671 -6.57399,5.383353 -7.65823,9.255869 -1.44292,5.153595 -6.99876,14.052677 -10.28677,16.476867 -3.62103,2.66971 -6.3077,3.12146 -8.07191,1.35725 z m 8.02274,-4.79713 c 3.2085,-3.81309 7.99187,-13.378736 7.12408,-14.246529 -0.76377,-0.763763 -6.53436,3.062975 -9.0362,5.9923 -2.94304,3.445909 -5.73512,9.375429 -5.14222,10.920489 0.81745,2.13025 4.04472,0.91046 7.05434,-2.66626 z M 147.74522,56.707353 c 0,-1.839384 -0.29549,-1.719419 -3.07569,1.24868 l -2.42431,2.588166 2.75,-1.248681 c 1.5125,-0.686774 2.75,-1.851448 2.75,-2.588165 z m -21.63601,-0.559555 c -0.37296,-0.603464 -0.95147,-0.460844 -1.47368,0.363307 -1.36676,2.157036 -1.02722,3.21528 0.59868,1.865901 0.81894,-0.679663 1.21269,-1.682807 0.875,-2.229208 z m 22.59922,-8.02993 c 3.79482,-4.024409 7.03679,-10.504742 7.03679,-14.065724 0,-6.328106 -6.16981,-0.111949 -9.00738,9.075047 -2.94666,9.540156 -2.7615,10.009075 1.97059,4.990677 z m -44.39869,17.920835 c -1.46783,-1.073305 -1.60585,-1.725095 -0.71697,-3.385979 1.35812,-2.537677 7.88963,-6.519131 8.65717,-5.277214 0.30837,0.49895 -0.72432,1.571675 -2.29486,2.383833 -3.79685,1.963428 -5.65546,4.215093 -4.21444,5.105693 1.57746,0.974923 5.45917,-1.867994 7.77744,-5.696102 4.14895,-6.851058 3.63467,-9.998278 -1.66499,-10.189243 -3.98602,-0.14363 -3.91829,-0.936111 0.29234,-3.420441 3.26094,-1.924008 5.76963,-7.354876 4.14699,-8.977518 -2.23988,-2.239877 -7.04095,5.180136 -11.67017,18.036136 -1.86516,5.179815 -3.70692,8.75 -4.51388,8.75 -1.804785,0 -1.855804,0.33109 2.14742,-13.935595 1.91919,-6.839578 3.48943,-12.577078 3.48943,-12.75 0,-0.172923 -0.92656,-0.314405 -2.05902,-0.314405 -1.13246,0 -1.7809,-0.45 -1.44098,-1 0.33992,-0.55 1.71648,-1 3.05902,-1 2.08499,0 2.4426,0.473983 2.45207,3.25 l 0.0111,3.25 2.46527,-3.127187 c 2.86817,-3.638263 5.72451,-4.669525 8.1074,-2.927118 2.13951,1.564452 1.24387,7.485301 -1.50919,9.976782 -1.8269,1.653326 -1.81465,1.757621 0.47544,4.047717 2.01248,2.01248 2.21707,2.81649 1.42205,5.588563 -1.26731,4.418834 -4.83626,9.423256 -8.09173,11.346311 -3.28091,1.938079 -3.99865,1.968228 -6.3269,0.265767 z m 95.89003,-3.12538 c -3.2231,-3.223093 -3.15406,-6.850061 0.18031,-9.472875 2.83562,-2.2305 4.36514,-2.629938 4.36514,-1.139968 0,0.512937 -0.89895,1.21793 -1.99768,1.56665 -2.68045,0.850745 -3.72471,5.206923 -1.72706,7.20457 2.16198,2.161983 9.78172,1.938732 11.44454,-0.335315 2.03155,-2.778308 1.49767,-6.956612 -1.31614,-10.300646 -5.3007,-6.299523 -3.84016,-15.089154 2.50133,-15.053129 l 2.59501,0.01474 -2.5,1.258062 c -3.83141,1.928061 -3.85696,6.70322 -0.0665,12.425798 4.07801,6.15667 4.07494,10.260308 -0.0102,13.697762 -4.16197,3.502068 -10.04235,3.560723 -13.46872,0.134349 z m 35.22491,0.800667 c -0.35964,-0.359633 -0.3759,-2.497133 -0.0361,-4.75 l 0.6177,-4.096122 -3.63053,3.446167 c -3.76946,3.57804 -3.93084,3.515087 -3.70726,-1.446167 0.13086,-2.903951 0.0848,-2.935967 -1.43759,-1 -0.86503,1.1 -2.18527,2.9 -2.93388,4 -1.0666,1.567277 -1.63101,1.739896 -2.60862,0.797829 -1.60049,-1.542308 -0.0714,-9.428647 1.95861,-10.101232 1.09418,-0.362537 1.25758,0.256551 0.74463,2.821282 l -0.65714,3.285737 2.45761,-2.651808 c 2.96181,-3.195848 4.36211,-3.342347 5.38993,-0.563895 0.69455,1.877544 0.90515,1.927922 2.09022,0.5 0.72482,-0.873352 2.22543,-1.587913 3.3347,-1.587913 1.83423,0 1.96288,0.455649 1.42085,5.03226 -0.44738,3.777407 -0.2951,4.857689 0.6107,4.332192 2.39012,-1.386622 9.23015,-6.863795 10.30501,-8.251766 1.7645,-2.278513 3.4865,-0.465931 2.36349,2.487815 -0.52898,1.391334 -0.96179,3.175403 -0.96179,3.964599 0,5.167452 9.98318,-4.728728 12.36072,-12.252997 2.06821,-6.545337 2.06516,-6.582048 -0.47903,-5.774552 -1.53069,0.485823 -1.99442,0.296465 -1.67167,-0.682612 0.24565,-0.745217 1.47501,-1.505437 2.73192,-1.689378 1.58863,-0.232488 2.75416,-1.528071 3.82336,-4.25 0.84595,-2.153559 2.14482,-3.915561 2.88639,-3.915561 1.68523,0 1.67918,0.272354 -0.10066,4.532119 -1.51803,3.633142 -0.33105,4.847899 2.2323,2.284548 1.66823,-1.668226 2.7707,-0.189163 1.23673,1.659167 -0.69572,0.838291 -2.26392,1.524166 -3.48488,1.524166 -1.92565,0 -2.58894,1.202924 -5.00346,9.074096 -1.72417,5.620673 -2.42813,9.42949 -1.84971,10.007916 0.57843,0.578426 2.5398,-0.300491 5.15364,-2.309412 3.58591,-2.75603 4.53316,-4.296984 6.30565,-10.257916 1.14721,-3.858076 3.17594,-9.169218 4.5083,-11.802538 3.88147,-7.67151 10.3504,-9.151825 10.3504,-2.368531 0,6.295987 -1.22863,9.63454 -5.2103,14.15796 -2.17782,2.474134 -3.49495,4.498425 -2.92695,4.498425 0.568,0 1.16875,2.24449 1.33499,4.987755 l 0.30226,4.987756 5.75,-4.568773 c 3.1625,-2.512825 5.75,-4.06073 5.75,-3.439789 0,2.598861 -11.17172,10.564868 -13.54125,9.655597 -1.13779,-0.436612 -1.33817,-1.524442 -0.8468,-4.597248 0.77957,-4.875169 -0.45088,-5.193868 -3.9585,-1.025298 -2.82575,3.358217 -3.65345,3.698046 -3.65345,1.5 0,-2.05054 -0.6001,-1.9068 -4.51924,1.082469 -3.92432,2.993225 -6.84393,2.856175 -7.30031,-0.342685 -0.4095,-2.870238 -0.94541,-2.786782 -5.14268,0.800857 -4.81062,4.11191 -7.03777,3.935573 -7.03777,-0.557224 v -3.516583 l -5.11221,3.516583 c -5.05579,3.477768 -6.93714,4.133901 -8.20833,2.862705 z m 50.90296,-21.546462 c 1.5804,-3.010496 1.93392,-10.79966 0.49016,-10.79966 -2.41281,0 -7.64702,10.124463 -9.67245,18.709268 -0.64867,2.749404 -0.59606,2.731496 3.55314,-1.209268 2.31637,-2.2 4.84948,-5.215153 5.62915,-6.70034 z m -35.58242,5.70034 c 0,-0.916667 0.48375,-1.505417 1.075,-1.308333 0.59125,0.197083 1.075,0.785833 1.075,1.308333 0,0.5225 -0.48375,1.11125 -1.075,1.308333 -0.59125,0.197084 -1.075,-0.391666 -1.075,-1.308333 z M 108.99481,348.32884 c 6.46683,-3.80381 6.14295,-4.6534 -2.14833,-5.63538 -4.82826,-0.57184 -8.029631,0.66218 -16.979376,6.54495 -3.045609,2.00192 0.07353,3.34459 6.75253,2.90672 5.241976,-0.34366 7.826266,-1.14061 12.375176,-3.81629 z m 108.3861,0.53287 c -3.2502,-1.6951 -5.63569,-1.93517 -5.63569,-0.56716 0,1.04395 2.28826,1.78808 6,1.95116 2.48133,0.10902 2.47861,0.0987 -0.36431,-1.384 z m -96.42138,-8.83075 c 2.06492,-1.77594 2.43576,-2.61302 1.55,-3.49878 -1.81617,-1.81617 -6.66419,-1.37179 -9.85994,0.90378 -3.48836,2.48394 -3.66824,3.64568 -0.65437,4.22618 4.75447,0.91575 6.338,0.6276 8.96431,-1.63118 z"
       id="path153" />
  </g>
</svg>
