<?xml version="1.0" encoding="UTF-8" standalone="no"?>
<!-- Created with Inkscape (http://www.inkscape.org/) -->

<svg
   width="102.16261mm"
   height="102.16261mm"
   viewBox="0 0 102.16261 102.16261"
   version="1.1"
   id="svg5"
   inkscape:version="1.1 (c4e8f9e, 2021-05-24)"
   sodipodi:docname="circle.svg"
   xmlns:inkscape="http://www.inkscape.org/namespaces/inkscape"
   xmlns:sodipodi="http://sodipodi.sourceforge.net/DTD/sodipodi-0.dtd"
   xmlns="http://www.w3.org/2000/svg"
   xmlns:svg="http://www.w3.org/2000/svg">
  <sodipodi:namedview
     id="namedview7"
     pagecolor="#ffffff"
     bordercolor="#666666"
     borderopacity="1.0"
     inkscape:pageshadow="2"
     inkscape:pageopacity="0.0"
     inkscape:pagecheckerboard="0"
     inkscape:document-units="mm"
     showgrid="false"
     inkscape:zoom="0.95709807"
     inkscape:cx="484.27639"
     inkscape:cy="279.49069"
     inkscape:window-width="1520"
     inkscape:window-height="1027"
     inkscape:window-x="322"
     inkscape:window-y="25"
     inkscape:window-maximized="0"
     inkscape:current-layer="layer1"
     fit-margin-top="0"
     fit-margin-left="0"
     fit-margin-right="0"
     fit-margin-bottom="0" />
  <defs
     id="defs2">
    <clipPath
       clipPathUnits="userSpaceOnUse"
       id="clipPath125">
      <rect
         style="fill:none;stroke:#000000;stroke-width:0.837385"
         id="rect127"
         width="102.16261"
         height="102.16261"
         x="52.41869"
         y="100.16869" />
    </clipPath>
  </defs>
  <g
     inkscape:label="Layer 1"
     inkscape:groupmode="layer"
     id="layer1">
    <path
       style="fill:#000000;stroke-width:0.176389"
       d="M 45.219967,100.9799 C 35.630939,99.891286 26.657175,96.201657 19.156587,90.263756 17.116358,88.648593 12.785423,84.332328 11.152775,82.287057 -3.6863937,63.697558 -3.7207847,37.651694 11.069112,18.925384 12.763465,16.78007 16.866117,12.648511 18.980198,10.958558 26.145524,5.2307393 34.671163,1.5918993 44.115615,0.23047725 c 2.131808,-0.307303 10.744581,-0.307303 12.876389,0 9.444452,1.36142205 17.970092,5.00026205 25.135422,10.72808075 2.11408,1.689953 6.21673,5.821512 7.91108,7.966826 9.73764,12.329371 13.276374,28.091288 9.71087,43.253339 -1.68938,7.183972 -5.02754,14.059764 -9.67686,19.931945 -1.86126,2.350802 -6.12033,6.604183 -8.29787,8.286798 -7.08937,5.478028 -14.96805,8.88389 -23.9007,10.331994 -2.054499,0.33306 -10.460718,0.49943 -12.653979,0.25044 z m 12.682979,-0.49898 c 19.24641,-2.966621 34.88715,-16.399075 40.69669,-34.950808 1.23613,-3.947372 1.983074,-8.090396 2.172474,-12.049868 0.10579,-2.211695 0.0973,-2.29256 -0.22708,-2.168079 -0.18533,0.07112 -0.734014,0.211697 -1.219294,0.312399 -1.27907,0.265419 -3.01976,1.165773 -3.75604,1.942765 -1.12939,1.191845 -2.19634,0.706206 -2.43718,-1.109319 -0.0629,-0.474442 -0.15326,-0.862621 -0.20071,-0.862621 -0.0474,0 -0.35749,0.238125 -0.68897,0.529167 -0.41642,0.365624 -0.7877,0.529166 -1.20131,0.529166 -0.78998,0 -1.15299,-0.392715 -1.15299,-1.247321 0,-0.493609 -0.075,-0.692956 -0.26056,-0.692956 -0.46125,0 -2.40845,0.811801 -5.01556,2.091019 -1.39815,0.686024 -2.87735,1.297591 -3.28712,1.35904 -1.47155,0.220671 -2.26681,-0.702561 -2.40208,-2.788601 -0.0236,-0.363802 -0.0639,-0.661458 -0.0896,-0.661458 -0.0257,0 -0.65102,0.394509 -1.38964,0.876686 -1.99753,1.304001 -3.10276,1.387329 -3.21856,0.24266 -0.065,-0.642864 0.45974,-1.352109 1.34741,-1.821053 l 0.64555,-0.341036 -1.23472,-0.0068 c -0.6791,-0.0037 -1.69752,0.06902 -2.26317,0.161657 -0.91432,0.149742 -1.15337,0.285298 -2.15427,1.221593 -1.66104,1.553817 -3.78423,2.473701 -5.73374,2.484175 -0.99707,0.0054 -1.25401,-0.215205 -1.02292,-0.878099 0.11844,-0.339758 0.48637,-0.658945 1.1949,-1.036586 1.26788,-0.675773 3.93049,-1.711888 4.82985,-1.879465 0.8791,-0.163801 1.24836,-0.733077 1.25989,-1.942368 0.0105,-1.100536 -0.45378,-1.735238 -1.47731,-2.019564 -2.30351,-0.639899 -5.4203,0.553771 -7.55372,2.892926 -0.9116,0.999513 -0.92604,1.032661 -0.92604,2.126114 0,0.610925 0.124,1.407544 0.27555,1.770265 0.35117,0.840455 0.22482,1.187897 -0.40554,1.115194 -0.85656,-0.09879 -1.01893,-0.738861 -0.99859,-3.936465 0.0272,-4.277255 0.46891,-5.732639 1.73987,-5.732639 0.37135,0 0.62487,0.102104 0.69275,0.27901 0.18996,0.49503 0.11405,1.773514 -0.14969,2.521035 -0.14122,0.400252 -0.22128,0.727733 -0.17791,0.727733 0.0434,0 0.45656,-0.290289 0.91821,-0.645085 2.81154,-2.160755 6.77113,-2.525696 8.73352,-0.80494 0.48741,0.427392 0.70719,1.504335 0.47953,2.349774 -0.10713,0.397848 -0.16762,0.750519 -0.13443,0.783711 0.0332,0.03319 0.77263,-0.0038 1.6432,-0.0821 0.87056,-0.07835 2.05085,-0.08821 2.62288,-0.02193 0.57202,0.06629 1.32609,0.07289 1.67569,0.01468 0.72877,-0.121355 1.94119,0.226704 2.26449,0.650085 0.11975,0.156819 0.18124,0.492245 0.13664,0.745393 -0.21841,1.239749 -0.16041,2.483425 0.12932,2.773165 0.40825,0.408245 1.18732,0.157734 4.19062,-1.347489 1.30969,-0.656405 3.09562,-1.397157 3.96875,-1.64612 1.4315,-0.408176 3.52566,-0.772532 4.10254,-0.713787 0.12209,0.01244 0.26804,-0.186969 0.32434,-0.443116 0.6325,-2.877763 0.89937,-3.426552 1.62548,-3.342689 0.4411,0.05094 0.47069,0.107285 0.42598,0.811043 -0.0264,0.415964 -0.2494,1.368464 -0.4955,2.116667 -0.5191,1.578204 -0.6951,2.760604 -0.53485,3.593191 0.20288,1.054042 0.35814,1.148317 1.0007,0.607637 0.89772,-0.75538 2.46714,-1.472152 4.14451,-1.89285 l 1.541774,-0.386689 -0.11012,-2.749903 c -0.181,-4.519759 -1.091154,-9.304706 -2.610364,-13.723486 -0.63589,-1.849526 -1.95755,-5.087992 -2.15848,-5.288922 -0.10977,-0.109781 -2.77611,0.231498 -4.36217,0.558339 -1.65608,0.341267 -3.38276,1.24027 -4.50676,2.346445 -0.74491,0.733104 -1.06244,0.931985 -1.41974,0.889209 -1.04016,-0.124531 -1.57411,-1.872921 -1.04564,-3.423889 0.31825,-0.934014 0.35803,-1.305517 0.13979,-1.305517 -0.3798,0 -1.86893,1.18383 -2.25154,1.789938 -0.36258,0.574362 -0.52318,0.679508 -1.0379,0.679508 -0.75774,0 -0.97413,-0.355073 -0.97413,-1.598449 v -0.916084 l -0.74599,0.11929 c -0.4103,0.06561 -2.05733,0.469157 -3.66007,0.896775 -3.87894,1.034914 -4.97751,1.219726 -5.74491,0.966461 -0.69931,-0.230794 -1.31431,-1.001458 -1.31431,-1.646987 v -0.448841 l -3.92465,0.0351 c -2.15856,0.0193 -4.22389,-0.02832 -4.58961,-0.105842 l -0.66496,-0.14094 -0.53792,1.198919 c -0.60566,1.349902 -0.9629,1.816989 -1.3897,1.816989 -0.450303,0 -1.139352,-0.841495 -1.841537,-2.248959 -0.350902,-0.70335 -0.708021,-1.278819 -0.793596,-1.278819 -0.570756,0 -2.971843,0.934265 -5.236738,2.037621 -1.464506,0.713442 -3.134055,1.428204 -3.710107,1.588361 -0.946752,0.26322 -1.109217,0.265353 -1.691173,0.02219 -0.79027,-0.330194 -1.140337,-0.96711 -1.322642,-2.406428 l -0.138341,-1.092226 -0.730919,0.530135 c -0.930605,0.674966 -2.285882,1.35936 -2.995524,1.512692 -0.656209,0.141786 -1.124252,-0.225416 -1.124252,-0.882033 0,-0.235604 -0.101503,-0.428373 -0.225561,-0.428373 -0.124058,0 -1.136089,0.239898 -2.248958,0.533106 -5.704276,1.502907 -7.020768,1.725252 -7.731,1.305708 -0.74869,-0.442262 -1.141949,-1.206675 -1.002686,-1.949011 l 0.115289,-0.614546 -0.583055,0.293614 c -1.274427,0.641768 -2.407546,2.066794 -2.692248,3.385809 -0.148224,0.686705 -0.708992,0.897484 -1.446853,0.543837 -0.626527,-0.300286 -0.719155,-0.797142 -0.795791,-4.268569 l -0.05789,-2.622134 -0.970139,0.103945 c -1.011621,0.108389 -2.760733,0.518683 -3.5403,0.83046 -0.439658,0.175835 -0.454808,0.234495 -0.496524,1.922725 -0.02367,0.957748 -0.103117,1.966034 -0.176557,2.240638 -0.120472,0.45046 -0.208038,0.499279 -0.895553,0.499279 -0.932137,0 -1.411065,-0.528986 -1.543614,-1.704962 -0.104198,-0.924431 0.209434,-1.768177 0.986037,-2.652679 0.574184,-0.65396 0.752492,-1.612802 0.330066,-1.774901 -0.322473,-0.123746 -1.739084,0.03245 -3.728987,0.411148 -1.8847927,0.358698 -3.4980277,1.028621 -4.5816217,1.902598 -0.375359,0.302747 -0.740481,0.514599 -0.811378,0.47078 -0.330348,-0.204167 -2.939458,5.904137 -3.954066,9.257044 -0.885628,2.926673 -1.87222495,8.0757 -1.87222495,9.771095 V 46.48602 L 1.3714523,46.023853 c 1.182644,-0.59929 3.986294,-1.311816 4.461174,-1.133773 0.390101,0.146258 0.449888,0.769495 0.186369,1.942809 l -0.138656,0.617361 0.522428,-0.705555 c 0.707969,-0.956136 1.791637,-1.883239 2.124577,-1.817625 0.558341,0.110037 0.642729,0.574492 0.47415,2.609614 -0.157471,1.901024 -0.06518,2.728615 0.17199,1.542301 0.211281,-1.056806 2.2523227,-3.695531 3.0249747,-3.910782 0.199116,-0.05547 0.510215,0.0075 0.691333,0.139935 0.317107,0.231873 0.318729,0.308662 0.04383,2.073396 -0.343055,2.202247 -0.574177,5.981716 -0.364939,5.967759 0.08233,-0.0055 0.496725,-0.486481 0.920878,-1.068862 0.471273,-0.647081 1.253751,-1.397768 2.012038,-1.930293 1.171583,-0.822769 1.303446,-0.871416 2.362111,-0.871416 0.61669,0 1.259086,0.07012 1.427545,0.15581 1.14736,0.583666 1.290209,0.6035 3.520994,0.488878 3.643074,-0.187188 4.281821,-0.28704 4.281821,-0.669364 0,-0.242002 0.130014,-0.328101 0.495453,-0.328101 0.79193,0 1.07187,0.335613 1.129013,1.353544 l 0.05123,0.912573 1.292021,-0.868475 c 1.653136,-1.111213 2.388454,-1.179344 2.77383,-0.257008 l 0.255487,0.611468 0.573359,-0.330143 c 0.751051,-0.432462 2.010255,-0.635006 2.324811,-0.373948 0.156383,0.129785 0.236442,0.571128 0.229884,1.267269 -0.0068,0.718374 0.06834,1.11659 0.229376,1.216113 0.157076,0.09708 0.794263,-0.151119 1.85242,-0.721557 0.887143,-0.478245 2.233713,-1.028291 2.99238,-1.222326 1.603648,-0.410143 3.531734,-0.474068 3.666998,-0.121576 0.06605,0.172115 -0.326238,0.283621 -1.534825,0.43627 -2.133371,0.26945 -3.638074,0.753438 -5.042546,1.621938 -1.27654,0.789392 -2.216085,0.928733 -2.694875,0.399676 -0.15406,-0.170233 -0.335338,-0.725858 -0.40284,-1.234722 -0.08861,-0.667976 -0.199201,-0.925207 -0.397775,-0.925207 -0.312108,0 -1.440356,0.724455 -1.442194,0.926041 -7.06e-4,0.07276 -0.190013,0.132292 -0.420778,0.132292 -0.40514,0 -0.5257,-0.175318 -0.883641,-1.284988 -0.0937,-0.290475 -0.141838,-0.294021 -0.621861,-0.04579 -0.286166,0.147983 -1.035796,0.706382 -1.665843,1.24089 -1.653856,1.403068 -2.408361,1.265964 -2.660119,-0.483376 -0.143006,-0.993678 0.128273,-0.95092 -3.996188,-0.629867 -2.746643,0.213803 -2.751121,0.214857 -3.038711,0.715955 -0.373934,0.65154 -1.392968,1.081448 -2.203147,0.929457 -0.833857,-0.156432 -1.686413,-1.018905 -1.576347,-1.594681 0.04575,-0.239305 0.02393,-0.4351 -0.04849,-0.4351 -0.07242,0 -0.578735,0.368051 -1.125153,0.817894 -0.802612,0.660753 -1.128141,1.101312 -1.694337,2.293056 -0.601373,1.265786 -0.76309,1.475161 -1.139375,1.475161 -0.281873,0 -0.550251,-0.17037 -0.751276,-0.476922 -0.418694,-0.638485 -0.524967,-4.481934 -0.178244,-6.446342 0.132704,-0.751858 0.183141,-1.367014 0.112081,-1.367014 -0.282058,0 -1.5895147,2.220234 -1.8569997,3.153431 -0.348707,1.216567 -0.512708,1.43268 -1.087222,1.43268 -0.833755,0 -1.09615,-0.445145 -1.081846,-1.835324 0.0071,-0.688314 0.07648,-1.688044 0.15422,-2.22162 0.07774,-0.533577 0.117641,-0.997203 0.08867,-1.030279 -0.07997,-0.09131 -1.262962,1.5644 -1.618322,2.265001 -0.255222,0.503174 -0.313141,1.07006 -0.313141,3.064918 0,2.320799 -0.01908,2.454703 -0.368532,2.585566 -0.76424,0.2862 -0.835162,0.02911 -0.812189,-2.944105 0.01187,-1.537016 0.07139,-3.446376 0.132256,-4.243024 l 0.110658,-1.448451 -1.272341,0.352583 c -1.337931,0.370759 -2.04416,0.682585 -2.88370395,1.273257 l -0.507736,0.357226 0.09596,4.249279 c 0.05863,2.596048 0.208931,4.969854 0.386321,6.101362 C 3.0180823,72.428283 10.933749,84.849539 23.037117,92.789153 c 6.144301,4.030562 13.528016,6.800033 20.637501,7.740677 3.168712,0.41925 3.198172,0.42064 7.672917,0.36328 3.147605,-0.0404 4.828872,-0.14607 6.555386,-0.41219 z M 34.978889,88.70195 c -0.06803,-0.06803 -0.123691,-2.616293 -0.123691,-5.66281 v -5.539119 l 0.396875,0.05636 0.396875,0.05636 -8.6e-5,5.553851 c -7.6e-5,4.873437 -0.03354,5.560295 -0.273184,5.606445 -0.150204,0.02893 -0.328759,-0.0031 -0.396789,-0.0711 z m 2.83082,-0.07902 c -0.169776,-0.09888 -0.447589,-0.433816 -0.617361,-0.744288 -0.266976,-0.488234 -0.308579,-1.076846 -0.307949,-4.356859 0.0011,-5.140768 0.308097,-6.173611 1.835693,-6.173611 0.794913,0 1.070441,0.564776 1.263199,2.589299 0.178777,1.877705 -0.05951,7.277162 -0.355508,8.055705 -0.277517,0.729922 -1.135717,1.02719 -1.818074,0.629754 z m 0.983564,-0.950529 c 0.535204,-0.535207 0.636568,-8.730303 0.115744,-9.357856 -0.306059,-0.368778 -0.474511,-0.327052 -0.822263,0.203687 -0.61196,0.933968 -0.641574,8.443785 -0.03617,9.173249 0.25475,0.306955 0.420926,0.302686 0.742693,-0.01908 z m 2.33956,0.854108 c -0.125083,-0.325956 0.17695,-0.771393 0.52305,-0.771393 0.266296,0 0.507181,0.6164 0.344041,0.880366 -0.172964,0.279862 -0.745494,0.207908 -0.867091,-0.108973 z m 2.915202,-7.05e-4 c -0.780237,-0.54649 -0.902559,-1.207972 -0.902559,-4.880743 0,-4.998355 0.379263,-6.296889 1.839131,-6.296889 0.852066,0 1.175814,0.664638 1.330505,2.731466 0.170858,2.282815 -0.100688,7.380593 -0.42673,8.011088 -0.3999,0.773321 -1.115808,0.942575 -1.840347,0.435088 z m 1.060219,-0.885859 c 0.191121,-0.230175 0.242083,-1.230824 0.242083,-4.753365 0,-4.644939 -0.07937,-5.176162 -0.696813,-4.663729 -0.443789,0.368312 -0.620036,1.393611 -0.718196,4.178055 -0.148419,4.210117 0.313628,6.27392 1.172926,5.239039 z m 3.01536,0.89891 c -0.788819,-0.55251 -0.338124,-1.259934 0.477989,-0.750264 0.263549,0.164589 0.39624,0.159931 0.614967,-0.0216 0.222866,-0.184963 0.278906,-0.615319 0.278906,-2.141852 0,-2.092171 -0.179461,-2.72718 -0.815881,-2.886911 -0.517126,-0.129792 -0.525025,-0.321843 -0.04021,-0.977595 0.282809,-0.38252 0.396709,-0.838276 0.45006,-1.800844 0.09044,-1.631691 -0.07715,-1.93711 -0.821597,-1.497353 -0.934316,0.551914 -1.26909,-0.114081 -0.376744,-0.749489 0.659679,-0.469731 0.945342,-0.459567 1.543468,0.05492 0.427821,0.367996 0.496195,0.569018 0.554955,1.631597 0.04238,0.766295 -0.02668,1.482103 -0.187805,1.94679 -0.236918,0.683271 -0.229349,0.775131 0.107733,1.307516 0.506506,0.799972 0.658973,4.396702 0.222183,5.241359 -0.469843,0.90858 -1.265662,1.163698 -2.008028,0.643725 z m 3.375928,0.01 c -0.155824,-0.40607 0.06296,-0.79375 0.447957,-0.79375 0.357988,0 0.653477,0.566293 0.45937,0.880366 -0.16785,0.271586 -0.792764,0.211931 -0.907327,-0.08662 z m 1.963467,0.06043 c -0.0507,-0.132129 0.188269,-1.072905 0.531047,-2.090612 0.820636,-2.43646 1.725692,-7.074026 1.497622,-7.673898 -0.193365,-0.508589 -0.625497,-0.56449 -1.093012,-0.141395 -0.30771,0.278474 -0.346867,0.277786 -0.63125,-0.01109 -0.287043,-0.291586 -0.276833,-0.330882 0.191715,-0.737863 1.097074,-0.952914 2.415946,-0.252841 2.414978,1.281901 -8.82e-4,1.353573 -0.973572,6.001098 -1.667907,7.969055 l -0.271129,0.768464 1.063318,-0.07691 c 1.145185,-0.08284 1.681612,0.18162 1.248094,0.615303 -0.320703,0.320824 -3.165341,0.404909 -3.283476,0.09706 z m 5.322747,-0.156653 c -0.68729,-0.540624 -0.82182,-1.34968 -0.81987,-4.930865 0.002,-4.633616 0.41745,-6.173611 1.66342,-6.173611 0.73663,0 1.09816,0.337774 1.28042,1.196296 0.23151,1.09051 0.14487,8.499616 -0.10824,9.256101 -0.3486,1.041895 -1.17875,1.310447 -2.01573,0.652079 z m 1.22628,-0.970054 c 0.2525,-0.385364 0.29461,-1.015838 0.29745,-4.453819 0.003,-4.071979 -0.11686,-4.975037 -0.66235,-4.975037 -0.52367,0 -0.79719,1.655228 -0.8307,5.027084 -0.031,3.113235 0.0672,4.18931 0.4224,4.630208 0.26256,0.325932 0.44536,0.271928 0.7732,-0.228425 z m 2.30946,1.101238 c -0.0557,-0.145053 0.20285,-1.204446 0.57446,-2.354209 0.82579,-2.554963 1.63334,-6.810989 1.40586,-7.409304 -0.17826,-0.468875 -0.6211,-0.525367 -1.12582,-0.143621 -0.43885,0.331932 -0.56427,0.326032 -0.70205,-0.03303 -0.17127,-0.446327 0.55948,-1.120196 1.20749,-1.113497 0.89092,0.0092 1.51265,0.714534 1.51265,1.716019 0,0.828137 -1.04579,5.764415 -1.51102,7.132265 -0.23609,0.694135 -0.42926,1.337076 -0.42926,1.428758 0,0.09474 0.45912,0.133485 1.06367,0.08975 0.75839,-0.05486 1.12075,-0.0082 1.26253,0.162664 0.36343,0.437908 -0.16028,0.66284 -1.69216,0.726779 -1.17723,0.04914 -1.48504,0.0093 -1.56635,-0.202578 z m 4.5146,0.0091 c -0.1457,-0.225119 -0.24459,-10.199125 -0.10667,-10.759722 0.0418,-0.169774 0.221,-0.308681 0.3983,-0.308681 0.44668,0 0.48166,0.572788 0.39042,6.394098 -0.0608,3.881418 -0.12461,4.894791 -0.30804,4.894791 -0.12722,0 -0.29552,-0.09922 -0.37401,-0.220486 z M 15.922791,71.938908 c -0.06468,-0.06467 -0.117593,-2.803113 -0.117593,-6.085417 0,-5.745112 0.0125,-5.967824 0.335072,-5.967824 0.362731,0 0.271541,-0.324293 1.487986,5.291667 l 0.592205,2.734028 0.126688,-3.880556 c 0.06968,-2.134305 0.161286,-3.986375 0.203572,-4.11571 0.04229,-0.129334 0.176062,-0.201484 0.297279,-0.160331 0.291366,0.09892 0.238403,11.914975 -0.0547,12.203357 -0.357634,0.351871 -0.599428,-0.346079 -1.286629,-3.71392 -0.373879,-1.832297 -0.745537,-3.490201 -0.825909,-3.684229 -0.0839,-0.20254 -0.151216,1.318616 -0.158071,3.571875 -0.0096,3.146982 -0.05854,3.924653 -0.247122,3.924653 -0.129353,0 -0.288103,-0.05292 -0.352778,-0.117593 z m 6.023802,-0.06628 c -0.163239,-0.09523 -0.471046,-0.628595 -0.684015,-1.185261 -0.49219,-1.286505 -0.688394,-5.638797 -0.349035,-7.742476 0.513848,-3.18532 1.757076,-4.155029 2.672839,-2.084793 1.200718,2.71442 0.69521,10.259598 -0.738782,11.027049 -0.389082,0.20823 -0.522864,0.206073 -0.901007,-0.01452 z m 0.993595,-1.605548 c 0.771839,-2.599068 0.688183,-7.259927 -0.16813,-9.367182 -0.205133,-0.504804 -0.395878,-0.358046 -0.687772,0.529167 -0.59627,1.812364 -0.782669,4.730383 -0.460511,7.209127 0.178596,1.374135 0.656363,2.765365 0.898312,2.615833 0.08421,-0.05205 0.272357,-0.496171 0.418101,-0.986945 z m 3.033484,1.655277 c -0.05224,-0.08452 -0.109257,-2.76162 -0.126715,-5.949117 -0.03003,-5.483416 -0.01393,-5.808483 0.299015,-6.037572 0.415219,-0.303958 1.113111,-0.152655 1.521379,0.329835 0.464975,0.549505 0.402595,1.725593 -0.133417,2.515454 -0.3207,0.472578 -0.397743,0.734348 -0.280568,0.95329 0.08884,0.166002 1.160911,1.754294 2.382375,3.529537 1.221465,1.775245 2.220846,3.347535 2.220846,3.493982 0,0.719363 -0.784952,-0.107636 -2.666302,-2.809128 -1.133268,-1.627297 -2.186846,-3.134834 -2.341283,-3.350085 -0.259694,-0.36195 -0.277607,-0.100046 -0.238342,3.484963 0.03821,3.488406 0.01321,3.882138 -0.249779,3.934418 -0.16073,0.03195 -0.334974,-0.01106 -0.387209,-0.09558 z m 1.210416,-10.104642 c 0.140841,-0.641241 -0.03403,-1.226497 -0.366471,-1.226497 -0.191821,0 -0.252697,0.260161 -0.252697,1.07993 0,0.918452 0.03787,1.048505 0.253245,0.869758 0.139286,-0.115597 0.30395,-0.441032 0.365923,-0.723191 z m 5.066517,9.665517 c 0.17318,-1.24351 2.852312,-11.348683 3.0728,-11.59001 0.147909,-0.16189 0.293938,-0.194534 0.39452,-0.08819 0.08783,0.09286 0.690559,2.817071 1.3394,6.053813 0.848965,4.235053 1.125991,5.938704 0.988097,6.076597 -0.12056,0.12056 -0.250458,0.129475 -0.350304,0.02404 -0.120691,-0.127441 -1.781586,-7.848602 -1.781586,-8.282221 0,-0.04809 -0.192806,-0.08743 -0.428456,-0.08743 -0.495485,0 -0.523792,0.08021 -1.680806,4.7625 -0.830607,3.361364 -0.955159,3.704167 -1.345839,3.704167 -0.223326,0 -0.269806,-0.12821 -0.207826,-0.573264 z m 3.358209,-9.139783 c -0.06217,-0.237733 -0.155336,-0.3044 -0.267978,-0.191758 -0.182581,0.182581 -0.03895,0.556193 0.213815,0.556193 0.08221,0 0.106579,-0.163995 0.05416,-0.364435 z m 5.775685,9.329105 c 0.0059,-0.828575 2.461054,-11.674492 2.67228,-11.805037 0.309305,-0.19116 0.396982,-0.104382 1.032759,1.022151 l 0.566619,1.003993 0.789012,-0.915804 c 0.771666,-0.895671 1.152472,-1.098848 1.3774,-0.734907 0.108426,0.175437 1.849296,10.738231 1.849296,11.220671 0,0.414472 -0.690735,0.276775 -0.786463,-0.156778 -0.0482,-0.218281 -0.416736,-2.500313 -0.818979,-5.071181 -0.402243,-2.570868 -0.766676,-4.712857 -0.809851,-4.759976 -0.04318,-0.04712 -0.416184,0.303578 -0.828908,0.779325 -0.839745,0.967977 -0.990848,0.957593 -1.533124,-0.105353 -0.19941,-0.390876 -0.416557,-0.658206 -0.482549,-0.594068 -0.06599,0.06414 -0.63771,2.432493 -1.270484,5.263011 -0.933543,4.175928 -1.207957,5.157463 -1.455208,5.205079 -0.218671,0.04211 -0.30389,-0.05703 -0.3018,-0.351126 z m 8.91327,0.221375 c -0.119371,-0.193146 2.865912,-11.843906 3.097549,-12.088901 0.398597,-0.421587 0.724093,0.665624 1.819625,6.077857 0.638214,3.152951 1.160233,5.797691 1.160044,5.877198 -1.76e-4,0.07951 -0.175974,0.119195 -0.390634,0.08819 -0.361917,-0.05227 -0.448936,-0.351309 -1.196952,-4.11331 -0.784933,-3.947654 -0.818554,-4.05835 -1.248056,-4.109154 -0.432405,-0.05115 -0.458927,0.01709 -1.302524,3.351389 -1.192102,4.711741 -1.307248,5.079293 -1.59124,5.079293 -0.136038,0 -0.292553,-0.07316 -0.347812,-0.162567 z m 3.431041,-9.450623 c 0,-0.145521 -0.07938,-0.264583 -0.176389,-0.264583 -0.09701,0 -0.176389,0.119062 -0.176389,0.264583 0,0.145521 0.07937,0.264583 0.176389,0.264583 0.09701,0 0.176389,-0.119062 0.176389,-0.264583 z m 3.977856,9.392709 c -0.0374,-0.121268 -0.111845,-2.822831 -0.165425,-6.003474 l -0.09742,-5.782989 0.427605,-0.194829 c 0.56459,-0.257247 1.38437,0.07383 1.65534,0.668526 0.3857,0.846538 0.20624,1.652867 -0.55366,2.487557 l -0.35607,0.39111 0.4362,0.579029 c 1.4133,1.876093 4.55688,6.692415 4.46506,6.840985 -0.28396,0.459462 -0.75757,-0.0598 -2.85575,-3.131054 l -2.25943,-3.307292 -0.0475,3.836458 c -0.0407,3.285032 -0.0859,3.836459 -0.31422,3.836459 -0.14667,0 -0.29728,-0.09922 -0.33469,-0.220486 z m 1.14859,-9.951251 c 0.20572,-0.541072 0.0342,-1.293541 -0.29487,-1.293541 -0.18026,0 -0.24547,0.260493 -0.24547,0.980549 0,1.023264 0.22151,1.151573 0.54034,0.312992 z m 6.83753,9.957908 c -0.72724,-0.564771 -1.25705,-3.620252 -1.2781,-7.370894 -0.0121,-2.162242 0.0266,-2.557639 0.25023,-2.557639 0.21945,0 0.28482,0.488328 0.38316,2.862349 0.14761,3.563573 0.75498,6.741596 1.20284,6.293743 0.46638,-0.466386 0.74047,-2.587008 0.83234,-6.439842 l 0.0951,-3.986528 -0.39009,-0.102011 c -0.25782,-0.06742 -0.36936,-0.210928 -0.32895,-0.423194 0.0492,-0.258415 0.25903,-0.331521 1.07368,-0.374082 0.93398,-0.0488 1.01252,-0.02357 1.01252,0.325194 0,0.211723 -0.13583,0.413637 -0.30868,0.458872 -0.27973,0.07321 -0.3102,0.398381 -0.32487,3.467167 -0.0282,5.894298 -0.87548,8.890337 -2.21914,7.846865 z m 5.08953,-0.103609 c -0.84667,-0.935562 -1.3202,-4.515939 -1.00899,-7.628947 0.55205,-5.522013 2.77695,-5.857738 3.38497,-0.510769 0.23496,2.0663 0.002,5.312311 -0.49088,6.838262 -0.47911,1.483485 -1.24305,2.010904 -1.8851,1.301454 z m 1.4828,-3.048595 c 0.42233,-2.705844 -0.11154,-8.273008 -0.77224,-8.052777 -0.46384,0.154615 -0.87201,2.128957 -0.9617,4.651814 -0.0924,2.599547 0.10074,4.366324 0.60339,5.519078 l 0.27496,0.630557 0.32569,-0.7202 c 0.17914,-0.396109 0.41759,-1.308922 0.5299,-2.028472 z m 2.72624,3.145547 c -0.0382,-0.121268 -0.1201,-2.820069 -0.18204,-5.997336 l -0.1126,-5.776847 0.49537,-0.188341 c 0.76051,-0.289144 1.59107,0.169797 1.73954,0.961207 0.15,0.799539 -0.0263,1.555591 -0.475,2.037228 -0.19886,0.213453 -0.32465,0.521836 -0.27954,0.685294 0.0451,0.163459 1.09649,1.765635 2.33638,3.560392 1.2399,1.794757 2.29171,3.402101 2.33737,3.571875 0.0577,0.214683 -0.0189,0.30868 -0.25164,0.30868 -0.2354,0 -1.00233,-0.967701 -2.58616,-3.263194 -1.23833,-1.794757 -2.29418,-3.263195 -2.34632,-3.263195 -0.0521,0 -0.0808,1.607344 -0.0636,3.571875 0.0376,4.309735 0.0578,4.012848 -0.2722,4.012848 -0.14856,0 -0.30136,-0.09922 -0.33955,-0.220486 z m 1.15001,-9.951251 c 0.20572,-0.541072 0.0342,-1.293541 -0.29487,-1.293541 -0.18025,0 -0.24546,0.260493 -0.24546,0.980549 0,1.023264 0.2215,1.151573 0.54033,0.312992 z m 5.80679,7.847517 c -0.002,-1.292546 -0.0522,-3.978369 -0.11237,-5.968494 -0.0937,-3.097747 -0.0713,-3.650095 0.15586,-3.838633 0.61328,-0.508972 0.67136,0.0644 0.62325,6.152732 -0.043,5.44383 -0.0697,5.890149 -0.35518,5.945087 -0.2814,0.05414 -0.30894,-0.148341 -0.31156,-2.290692 z m 3.50085,2.145309 c -0.96535,-0.575159 -1.51503,-5.50341 -1.0149,-9.099233 0.32338,-2.32501 0.92772,-3.332902 1.73831,-2.899084 0.40648,0.217539 0.54509,0.608713 0.71847,2.027573 0.15806,1.293546 0.0208,1.506599 -0.97065,1.506599 -0.69901,0 -0.75762,0.03755 -0.86035,0.551215 -0.29413,1.470657 0.075,5.841374 0.57573,6.817445 0.25915,0.505137 0.33905,0.55693 0.52098,0.337711 0.1182,-0.142411 0.30034,-0.74398 0.40476,-1.336818 0.12086,-0.686093 0.27541,-1.077886 0.4252,-1.077886 0.39856,0 0.45846,0.30892 0.26473,1.365183 -0.2878,1.569111 -1.00125,2.284546 -1.80228,1.807295 z m 0.5734,-9.346089 c 0.18207,0 0.21294,-0.938308 0.0508,-1.543403 -0.0585,-0.218282 -0.16871,-0.396875 -0.24492,-0.396875 -0.19813,0 -0.52585,1.01754 -0.52585,1.632692 0,0.403269 0.0633,0.49741 0.27901,0.414652 0.15345,-0.05889 0.35189,-0.107066 0.44097,-0.107066 z M 49.048757,52.830514 c -1.722328,-0.85256 -1.743715,-2.506247 -0.05115,-3.95502 l 0.746103,-0.638636 -0.300505,-0.508714 c -0.638354,-1.080645 -0.139224,-2.089754 1.220367,-2.467259 0.880664,-0.244526 1.406702,-0.241484 1.88621,0.0109 0.995893,0.524197 0.883024,1.158668 -0.408335,2.295369 l -1.058198,0.931464 1.01222,1.022894 1.012218,1.022891 0.132454,-0.488747 c 0.108929,-0.401941 0.05444,-0.546188 -0.306798,-0.812142 -0.590577,-0.434792 -0.604487,-1.175904 -0.02207,-1.175904 0.536753,0 1.346705,0.635787 1.346705,1.05712 0,0.218759 0.174034,0.364185 0.529166,0.442186 0.682999,0.150012 0.68456,0.440972 0.0024,0.440972 -0.440163,0 -0.571368,0.106668 -0.797798,0.648591 -0.149049,0.356725 -0.209646,0.698447 -0.134659,0.759384 0.07499,0.06094 0.433996,0.328736 0.797798,0.595108 0.363802,0.266374 0.661458,0.568256 0.661458,0.670849 0,0.269805 -0.821197,0.02737 -1.428706,-0.421776 l -0.51137,-0.378072 -0.48517,0.452517 c -0.266843,0.248883 -0.658547,0.54159 -0.87045,0.650457 -0.62201,0.319566 -2.177595,0.238729 -2.971856,-0.154433 z m 3.115275,-0.632097 c 0.800287,-0.409386 0.718785,-0.664339 -0.64562,-2.019639 l -1.298386,-1.28972 -0.715053,0.715052 c -0.754251,0.754253 -0.921328,1.452653 -0.524774,2.193618 0.433907,0.810767 1.997516,1.007548 3.183833,0.400689 z m -0.466864,-5.590918 c 0.403456,-0.576015 0.330158,-0.832943 -0.237626,-0.832943 -1.009472,0 -1.819421,1.132422 -1.230889,1.720954 0.234359,0.234359 1.011557,-0.235612 1.468515,-0.888011 z M 39.512745,40.817147 c -0.30293,-0.334733 -0.336019,-0.669104 -0.336019,-3.395486 0,-2.583596 0.04644,-3.109272 0.318767,-3.608197 0.25685,-0.470575 0.411021,-0.573354 0.79375,-0.529167 0.337178,0.03893 0.491336,0.169986 0.531348,0.451717 0.06038,0.425146 -0.131722,0.515546 -0.440145,0.207122 -0.328697,-0.328697 -0.605416,0.84733 -0.708718,3.011975 -0.06264,1.312506 -0.02305,2.298827 0.112164,2.794437 0.186265,0.682756 0.254482,0.754543 0.627937,0.660811 0.539264,-0.135345 0.772019,0.228479 0.345633,0.54026 -0.461688,0.337594 -0.856746,0.295233 -1.244717,-0.133472 z m 2.161501,0.240336 c -0.114315,-0.184967 0.303097,-3.402937 0.65797,-5.072511 0.386937,-1.820423 0.690446,-2.634349 1.004917,-2.694903 0.357514,-0.06884 0.723533,1.533109 1.152792,5.045417 0.264246,2.162133 0.272988,2.549053 0.06056,2.680341 -0.136546,0.08439 -0.268663,0.133037 -0.293594,0.108108 -0.02493,-0.02493 -0.136096,-0.655614 -0.247036,-1.40152 l -0.201708,-1.356193 h -0.577601 -0.577601 l -0.238805,1.352919 c -0.216912,1.228896 -0.495783,1.733324 -0.739894,1.338342 z m 1.913905,-4.234664 c -0.234243,-2.123558 -0.303712,-2.198308 -0.614724,-0.661458 -0.257138,1.270637 -0.2584,1.423047 -0.01266,1.531004 0.663407,0.291453 0.743244,0.180799 0.627384,-0.869546 z m 1.92934,4.140581 c -0.0475,-0.123774 -0.06485,-1.889867 -0.03856,-3.924653 0.04069,-3.149705 0.08712,-3.699608 0.31238,-3.699608 0.224922,0 0.271744,0.536497 0.312356,3.57905 l 0.04777,3.579053 0.639198,-0.05128 c 0.39126,-0.03139 0.669073,0.03383 0.716218,0.168129 0.162394,0.462602 -1.8128,0.80942 -1.989363,0.349304 z m 2.82452,0.02331 c -0.09536,-0.13463 -0.169451,-1.857654 -0.169451,-3.940589 0,-3.384704 0.02641,-3.706471 0.30868,-3.761197 0.285953,-0.05544 0.308681,0.20849 0.308681,3.584562 v 3.644412 l 0.687453,-0.116145 c 0.717126,-0.121158 0.976958,0.02807 0.733836,0.421446 -0.20869,0.337666 -1.65676,0.467438 -1.869199,0.167511 z m 2.961452,-0.09361 c -0.384999,-0.268562 -0.520609,-0.756842 -0.27767,-0.999783 0.06556,-0.06556 0.299649,0.05031 0.520192,0.257502 0.2475,0.232512 0.51483,0.33302 0.698403,0.262576 0.447724,-0.171807 0.22401,-1.993089 -0.453974,-3.69585 -0.681434,-1.711431 -0.748688,-2.621795 -0.231867,-3.138618 0.431268,-0.431268 1.288318,-0.340177 1.288318,0.136927 0,0.195566 -0.108657,0.253381 -0.355086,0.188939 -0.474732,-0.124146 -0.763591,0.433292 -0.60343,1.164487 0.06782,0.309605 0.363812,1.158232 0.657768,1.885836 0.701739,1.736951 0.760494,3.400914 0.137892,3.905067 -0.48696,0.394315 -0.85005,0.402972 -1.380546,0.03292 z m 5.387978,-0.01333 C 56.303855,40.431757 56.230243,40.020636 55.928323,36.617795 55.740065,34.49599 55.7124,33.489861 55.838843,33.36342 c 0.360683,-0.360684 0.484845,0.182797 0.760105,3.327114 0.152871,1.74625 0.338634,3.330718 0.412809,3.521042 0.265611,0.681536 0.454002,-0.622983 0.517828,-3.585743 0.03421,-1.587807 0.107162,-2.931891 0.162121,-2.986852 0.055,-0.05496 0.18698,-0.01288 0.29337,0.09351 0.13098,0.130984 0.17227,1.212398 0.12789,3.349616 -0.0549,2.644567 -0.11601,3.233193 -0.37684,3.631264 -0.361105,0.551125 -0.669373,0.600228 -1.044683,0.166401 z m 2.549525,0.01333 c -0.385,-0.268562 -0.52061,-0.756842 -0.27767,-0.999783 0.0656,-0.06556 0.30136,0.05192 0.52399,0.261075 0.34895,0.327816 0.4449,0.346994 0.69551,0.139007 0.41801,-0.346921 0.23093,-1.847756 -0.445,-3.570003 -0.63413,-1.615726 -0.70545,-2.739717 -0.2027,-3.1947 0.42528,-0.38487 1.13625,-0.300826 1.22116,0.144354 0.05,0.261949 -0.0148,0.313388 -0.30039,0.238694 -0.91562,-0.239437 -0.9024,0.699633 0.0466,3.307955 0.97673,2.684653 0.27026,4.741884 -1.26147,3.673401 z m 7.75449,11.231858 c 0.8886,-0.335735 2.6938,-1.587897 2.28922,-1.587897 -0.21833,0 -3.02247,1.200543 -3.82601,1.63804 l -0.52916,0.288112 0.56665,0.0071 c 0.31165,0.0039 0.98634,-0.151509 1.4993,-0.345318 z m -47.814313,-0.70584 c 0.413438,-0.350139 0.413894,-0.35461 0.06364,-0.625228 -0.388874,-0.300453 -1.074415,-0.214127 -1.484154,0.186893 -0.204417,0.200068 -0.208477,0.293469 -0.0225,0.517559 0.312894,0.377015 0.945291,0.342295 1.443014,-0.07922 z m 57.742803,-0.396455 c 0.48507,-0.293306 1.07125,-0.681307 1.30261,-0.862224 l 0.42066,-0.328939 -0.68524,0.0039 c -0.85304,0.0048 -2.04466,0.532553 -2.63094,1.165158 -0.3359,0.362444 -0.38974,0.514752 -0.21975,0.621629 0.30152,0.189571 0.75663,0.03905 1.81266,-0.599498 z m 15.23118,0.218842 c 0.76923,-0.557232 0.93046,-0.880838 0.43883,-0.880838 -0.45474,0 -1.82348,0.866182 -1.82348,1.153962 0,0.414925 0.59753,0.297061 1.38465,-0.273124 z m -30.36579,-5.353628 c 0.12539,-1.21496 -0.19968,-1.373098 -0.36363,-0.176897 -0.16666,1.215912 -0.14674,1.579813 0.0744,1.358702 0.10259,-0.102596 0.23276,-0.634409 0.28926,-1.181805 z m 26.92091,-16.147294 c 1.47387,-0.700359 3.02992,-1.078452 5.09756,-1.238612 0.95034,-0.07361 1.76747,-0.17342 1.81584,-0.221789 0.14004,-0.140041 -1.78157,-3.580467 -3.18409,-5.700766 C 85.217516,11.661321 73.604726,3.7812973 60.872556,1.1591663 56.771889,0.31465325 55.376855,0.18263225 50.55381,0.18263225 c -4.720828,0 -6.161086,0.130363 -10.054167,0.91004605 C 27.284169,3.7393943 15.194908,12.115222 7.9621153,23.635723 c -0.536999,0.855339 -0.976362,1.627831 -0.976362,1.716648 0,0.08882 0.218281,0.01141 0.485069,-0.171991 1.244972,-0.855892 4.0003117,-1.61417 5.9897857,-1.648408 0.561921,-0.0097 1.22011,-0.07466 1.462645,-0.144425 0.390802,-0.112413 0.435612,-0.210573 0.393852,-0.86279 -0.02592,-0.404772 0.07153,-1.019911 0.21654,-1.366977 0.223413,-0.534704 0.337452,-0.622452 0.747062,-0.574836 0.661943,0.07695 0.917217,0.930305 0.558197,1.866004 -0.146112,0.38081 -0.225147,1.041219 -0.186976,1.56237 l 0.06612,0.902737 1.086979,-0.340781 c 0.597839,-0.187431 1.756093,-0.438415 2.573897,-0.557744 l 1.486918,-0.21696 0.204149,-1.022387 c 0.112282,-0.562312 0.316293,-1.094133 0.45336,-1.181825 0.390132,-0.249597 0.866572,0.461753 0.866572,1.293834 0,0.457322 0.103928,0.786661 0.291532,0.923838 0.313468,0.229214 0.190699,0.619469 -0.194876,0.619469 -0.129417,0 -0.291216,0.138907 -0.359558,0.308681 -0.211753,0.526039 -0.291005,3.061153 -0.14199,4.542014 l 0.141997,1.411111 0.561109,-0.970139 c 0.725637,-1.254605 1.450491,-1.932536 2.927722,-2.738199 1.034794,-0.564364 1.399341,-0.665676 2.683552,-0.745795 1.690115,-0.105444 2.38079,0.158591 2.38079,0.910135 0,0.556214 -0.679187,0.979064 -1.965112,1.223444 -1.024246,0.19465 -1.171836,0.329727 -0.874021,0.799927 0.179545,0.283469 1.642631,0.156077 2.995601,-0.260832 0.447519,-0.137899 2.261104,-0.600846 4.030188,-1.028772 1.769085,-0.427925 3.43596,-0.929875 3.704167,-1.115447 1.050859,-0.727082 3.353593,-1.392937 3.884016,-1.123098 0.169291,0.08612 0.545925,0.22889 0.836967,0.317264 l 0.529167,0.160678 -0.05549,1.637533 c -0.0704,2.077485 0.177528,2.589888 1.175265,2.428979 0.354263,-0.05713 1.914114,-0.733753 3.466336,-1.503599 2.565848,-1.272567 5.453858,-2.313607 6.418312,-2.313607 0.410683,0 1.016303,0.749477 1.685643,2.086037 0.401836,0.802404 0.509686,0.906985 0.739046,0.716636 0.52289,-0.433959 1.07592,-1.80235 0.99408,-2.4597 -0.0864,-0.694096 0.2411,-1.120225 0.78188,-1.017288 0.22269,0.04239 0.34342,0.269995 0.40534,0.764217 l 0.0882,0.703848 4.40696,0.03601 c 4.05218,0.03311 4.43559,0.01004 4.7625,-0.286639 0.60739,-0.551203 1.09217,-0.719607 2.06374,-0.716914 1.14437,0.0032 1.79952,0.306591 1.88001,0.870682 0.0815,0.571421 -0.51579,1.003755 -1.73612,1.256554 -1.48924,0.308506 -1.45145,0.287421 -1.23612,0.689769 0.11518,0.21523 0.36961,0.355395 0.6451,0.355395 0.25019,0 2.54921,-0.515937 5.10891,-1.146527 2.55971,-0.630591 4.79696,-1.146528 4.97168,-1.146528 0.53016,0 0.7002,0.330105 0.60503,1.174506 l -0.0899,0.797266 1.17052,-0.801368 c 2.31714,-1.586377 3.56969,-1.088563 2.67127,1.061663 -0.26328,0.63012 -0.36408,2.195746 -0.15485,2.404983 0.0603,0.06036 0.54216,-0.24251 1.07067,-0.673033 0.52851,-0.430524 1.45148,-1.015869 2.05103,-1.300767 z M 34.634712,17.09715 c -0.454722,-0.24527 -0.6353,-0.746901 -0.365864,-1.016338 0.06556,-0.06556 0.301362,0.05192 0.523997,0.261075 0.334998,0.314713 0.4513,0.341679 0.674543,0.156404 0.420253,-0.348779 0.323984,-1.439348 -0.276788,-3.135526 -0.300598,-0.848688 -0.611401,-1.808408 -0.690674,-2.132708 -0.281024,-1.149678 0.458696,-2.2082657 1.247936,-1.7858767 0.452476,0.242159 0.344918,0.6260277 -0.159736,0.5700877 -0.270454,-0.02998 -0.405654,0.08173 -0.485909,0.401499 -0.120186,0.478857 0.01238,1.034614 0.733979,3.077132 0.360337,1.019948 0.449715,1.552393 0.392761,2.339779 -0.04055,0.560642 -0.147957,1.088623 -0.238677,1.173288 -0.331662,0.309533 -0.882115,0.34656 -1.355568,0.09118 z m 3.346754,0.05831 c -0.527158,-0.397306 -0.800527,-1.426168 -0.926063,-3.485366 -0.131461,-2.156405 0.02707,-3.207445 0.580222,-3.8468457 0.437469,-0.505679 1.006861,-0.62926 1.344343,-0.291779 1.171515,1.1715147 1.091039,6.7307007 -0.109608,7.5716677 -0.470551,0.329585 -0.517358,0.33234 -0.888894,0.05232 z m 0.88205,-1.058334 c 0.248631,-0.455066 0.31321,-0.991503 0.31321,-2.601736 0,-2.285273 -0.280806,-3.5844897 -0.754997,-3.493169 -0.616374,0.118703 -0.763212,0.822571 -0.691933,3.31678 0.09042,3.163994 0.446355,4.036196 1.13372,2.778125 z m 2.09051,1.12413 C 40.771603,16.92609 40.497817,9.7224933 40.662753,9.5575573 c 0.267427,-0.267427 0.556481,0.05222 1.053252,1.1647157 l 0.47546,1.064771 0.564506,-1.262495 c 0.310478,-0.6943697 0.642682,-1.2624927 0.738228,-1.2624927 0.160288,0 0.220087,0.176307 0.433744,1.2788197 0.0423,0.218281 0.0969,1.785802 0.121322,3.483377 0.03996,2.777217 0.01459,3.092248 -0.2533,3.143838 -0.16374,0.03153 -0.303713,0.03167 -0.311051,3.53e-4 -0.0073,-0.03137 -0.05596,-1.406406 -0.108046,-3.055642 -0.05209,-1.649236 -0.114,-3.020224 -0.137583,-3.04664 -0.02358,-0.02642 -0.183838,0.33077 -0.35612,0.79375 -0.172285,0.462979 -0.387816,0.921154 -0.47896,1.018168 -0.209994,0.223471 -0.846229,-0.520617 -0.846229,-0.98973 0,-0.183281 -0.06895,-0.333238 -0.153227,-0.333238 -0.08428,0 -0.113069,1.258583 -0.06399,2.796851 0.06016,1.885325 0.02784,2.8348 -0.09917,2.913293 -0.103625,0.06404 -0.233032,0.04424 -0.28757,-0.044 z m 3.999436,0.03872 c -0.166714,-0.06791 -0.220486,-1.009606 -0.220486,-3.861275 0,-3.5482017 0.0202,-3.7822637 0.341182,-3.9540507 0.18765,-0.100428 0.590346,-0.182595 0.894878,-0.182595 0.432038,0 0.540834,0.06782 0.495157,0.308681 -0.03531,0.186175 -0.25045,0.330832 -0.5421,0.364494 -0.476213,0.05497 -0.483561,0.07473 -0.483561,1.3008677 v 1.245055 l 0.513782,-0.102757 c 0.61526,-0.123051 1.047244,0.243824 0.662788,0.562894 -0.13139,0.109043 -0.285136,0.152013 -0.34166,0.09549 -0.05652,-0.05652 -0.267501,-0.05049 -0.46884,0.01342 -0.337465,0.107099 -0.36607,0.250317 -0.36607,1.832763 v 1.716583 l 0.596528,-0.06964 c 0.597723,-0.06978 0.995122,0.210725 0.7022,0.495653 -0.190189,0.184999 -1.48682,0.355392 -1.783798,0.234414 z m 3.434948,-0.104518 c -0.537351,-0.404988 -0.79759,-1.429826 -0.907009,-3.571876 -0.09022,-1.766109 -0.05654,-2.262678 0.203323,-2.998283 0.596812,-1.6894017 1.862734,-1.6731017 2.357338,0.03036 0.373507,1.286394 0.328892,4.51999 -0.07687,5.571677 -0.418561,1.084848 -0.971471,1.42433 -1.576778,0.968127 z m 1.107717,-1.711645 c 0.266908,-0.960771 0.209577,-3.453423 -0.104258,-4.532979 -0.360447,-1.2398957 -0.767082,-1.2291677 -1.097878,0.02897 -0.304872,1.15953 -0.142175,4.47911 0.257397,5.251796 0.268778,0.51976 0.294065,0.529932 0.526652,0.211848 0.134375,-0.183767 0.322515,-0.615602 0.418087,-0.959633 z m 1.80539,1.781793 c -0.145117,-0.08969 -0.211645,-1.240623 -0.226189,-3.913013 -0.01806,-3.3195347 0.01374,-3.7929807 0.258107,-3.8429847 0.153289,-0.03137 0.279299,-0.03137 0.280022,0 7.06e-4,0.03136 0.396163,1.2079667 0.878754,2.6146687 l 0.877436,2.557639 -0.109298,-2.57631 c -0.08236,-1.941255 -0.05604,-2.6092257 0.106756,-2.7098397 0.11883,-0.07344 0.281118,-0.06504 0.360639,0.01867 0.07952,0.08371 0.171824,1.8569957 0.205116,3.9406337 0.05407,3.383719 0.02996,3.794481 -0.225622,3.845054 -0.224496,0.04442 -0.458107,-0.467852 -1.084129,-2.377322 l -0.797973,-2.433943 -0.0183,2.414937 c -0.01007,1.328215 -0.08162,2.454072 -0.159016,2.501904 -0.07739,0.04783 -0.233227,0.02979 -0.346301,-0.0401 z m 3.609536,0.01769 c -0.294723,-0.06771 -0.314046,-0.339898 -0.274237,-3.862881 0.03938,-3.4852807 0.06912,-3.8041157 0.369882,-3.9650757 0.179881,-0.09627 0.541413,-0.1503 0.803404,-0.120065 0.637014,0.07351 0.630296,0.566426 -0.0087,0.639952 -0.477395,0.05493 -0.485069,0.07525 -0.485069,1.2843447 v 1.228531 l 0.611127,-0.04116 c 0.33612,-0.02264 0.661568,0.0093 0.723219,0.07093 0.183736,0.183746 -0.09594,0.488339 -0.448394,0.488339 -0.82795,0 -0.885961,0.125961 -0.885961,1.923731 v 1.709598 l 0.596528,-0.06964 c 0.592254,-0.06914 1.001679,0.214024 0.7022,0.485655 -0.194553,0.176462 -1.289932,0.322857 -1.703985,0.227736 z m 4.521113,-0.08497 c -0.16738,-0.263555 -0.14316,-7.4408717 0.026,-7.7146267 0.34071,-0.551276 0.44423,0.351788 0.44423,3.8752917 0,3.599201 -0.10069,4.421262 -0.47026,3.839335 z m 1.39384,-0.07213 c -0.0921,-0.18019 -0.1837,-1.974649 -0.20359,-3.987687 -0.0459,-4.6442107 0.10721,-4.7753947 1.33795,-1.146528 l 0.85247,2.513542 0.0488,-2.601736 c 0.0299,-1.592538 0.11755,-2.6017367 0.22602,-2.6017367 0.28429,0 0.30959,0.246894 0.43079,4.2047837 0.10914,3.564017 0.0984,3.760563 -0.20234,3.702644 -0.24026,-0.04627 -0.50921,-0.672878 -1.10445,-2.573186 -0.43277,-1.38161 -0.83173,-2.512132 -0.88659,-2.51227 -0.0549,-1.37e-4 -0.0737,1.120819 -0.0419,2.491014 0.0567,2.444625 -0.0872,3.235087 -0.45714,2.51116 z M 15.515594,28.532541 c 0.297248,-1.798352 -0.07366,-2.416178 -0.582447,-0.970185 -0.201228,0.571899 -0.211279,0.819119 -0.04788,1.177742 0.289606,0.635616 0.502548,0.565498 0.630327,-0.207557 z m 25.488525,-0.757606 c 0.547156,-0.295416 1.232954,-0.731585 1.523996,-0.969262 l 0.529167,-0.432144 -0.705556,0.003 c -1.169742,0.005 -3.086805,1.061807 -3.086805,1.701691 0,0.38572 0.683965,0.26645 1.739198,-0.303283 z m -11.043713,-0.07298 c 0.550263,-0.115913 0.666017,-0.624625 0.142128,-0.624625 -0.188618,0 -0.56565,0.194433 -0.837848,0.432075 -0.526279,0.459467 -0.545782,0.454069 0.69572,0.19255 z m 42.26843,-0.170794 c 0.31292,-0.193395 0.22928,-0.453831 -0.14575,-0.453831 -0.18861,0 -0.56565,0.193428 -0.83784,0.42984 l -0.49491,0.429842 0.64065,-0.141989 c 0.35236,-0.07809 0.7294,-0.196833 0.83785,-0.263862 z"
       id="path1070" />
  </g>
</svg>
