<?xml version="1.0" encoding="UTF-8" standalone="no"?>
<!-- Created with Inkscape (http://www.inkscape.org/) -->

<svg
   version="1.1"
   id="svg9"
   width="384.89847"
   height="384.52054"
   viewBox="0 0 384.89847 384.52054"
   sodipodi:docname="circle.svg"
   inkscape:version="1.1 (c4e8f9e, 2021-05-24)"
   xmlns:inkscape="http://www.inkscape.org/namespaces/inkscape"
   xmlns:sodipodi="http://sodipodi.sourceforge.net/DTD/sodipodi-0.dtd"
   xmlns="http://www.w3.org/2000/svg"
   xmlns:svg="http://www.w3.org/2000/svg">
  <defs
     id="defs13">
    <clipPath
       clipPathUnits="userSpaceOnUse"
       id="clipPath203">
      <rect
         style="fill:none;stroke:#000000;stroke-width:2.50309"
         id="rect205"
         width="384.89847"
         height="384.52054"
         x="88.180687"
         y="82.889343" />
    </clipPath>
  </defs>
  <sodipodi:namedview
     id="namedview11"
     pagecolor="#ffffff"
     bordercolor="#666666"
     borderopacity="1.0"
     inkscape:pageshadow="2"
     inkscape:pageopacity="0.0"
     inkscape:pagecheckerboard="0"
     showgrid="false"
     fit-margin-top="0"
     fit-margin-left="0"
     fit-margin-right="0"
     fit-margin-bottom="0"
     inkscape:zoom="0.75782559"
     inkscape:cx="222.34667"
     inkscape:cy="255.33579"
     inkscape:window-width="1312"
     inkscape:window-height="1027"
     inkscape:window-x="0"
     inkscape:window-y="25"
     inkscape:window-maximized="0"
     inkscape:current-layer="g15" />
  <g
     inkscape:groupmode="layer"
     inkscape:label="Image"
     id="g15">
    <path
       style="fill:#000000;stroke-width:0.666667"
       d="M 173.9786,381.50413 C 129.24885,376.91884 89.730867,358.71915 58.392427,328.27182 47.704127,317.88744 40.479777,309.24754 32.345807,297.12161 3.0338166,253.42403 -6.8453434,200.35192 4.7154066,148.68764 16.724097,95.021544 52.349747,48.485858 101.64526,22.073884 141.14691,0.90934951 188.48639,-5.3466375 233.46062,4.6542825 c 3.38178,0.752007 6.75678,1.17428 7.5,0.938394 0.8949,-0.284027 1.35132,-0.12944 1.35132,0.457693 0,0.52664 1.82694,1.394093 4.5,2.136647 6.26098,1.739247 22.0087,7.9777875 29.0225,11.4974075 50.16137,25.17164 86.79041,70.68793 100.46046,124.835036 4.03904,15.99867 6.67256,39.85395 5.7224,51.83548 -0.31052,3.91576 -0.21103,5.50793 0.356,5.69694 0.58378,0.1946 0.59798,0.59875 0.055,1.56538 -0.4026,0.71669 -1.21817,5.35306 -1.81238,10.30306 -5.4474,45.37881 -26.86808,87.0596 -60.63729,117.98927 -13.69206,12.54075 -27.11066,21.66326 -44.66667,30.36621 -18.3656,9.10429 -36.05946,14.69115 -57,17.99781 -6.73511,1.06352 -37.60421,1.92033 -44.33333,1.23052 z m 32.33334,-0.91661 c 55.27444,-4.72047 103.67991,-31.46627 137.03024,-75.71422 16.81162,-22.30502 28.60229,-48.70491 34.26811,-76.72801 1.3928,-6.88876 3.4648,-22.86285 3.05215,-23.53053 -0.12457,-0.20156 -4.8294,-0.13888 -10.45516,0.1393 -14.24642,0.70445 -18.90289,1.95416 -30.56201,8.2023 -5.44218,2.91648 -8.76083,0.60871 -10.12762,-7.04269 -0.42509,-2.37968 -0.89047,-4.47188 -1.03418,-4.64935 -0.14372,-0.17746 -2.13784,1.69754 -4.4314,4.16667 -3.4111,3.67223 -4.54487,4.48933 -6.22918,4.48933 -2.63098,0 -5.34776,-3.07799 -5.92986,-6.71826 -0.49474,-3.09395 0.60839,-2.97087 -14.84078,-1.65599 -10.43432,0.88806 -12.02529,1.31238 -12.06344,3.21738 -0.005,0.28039 -0.9852,1.10427 -2.17687,1.83084 -2.6565,1.6197 -6.65092,1.70607 -9.20222,0.19898 -2.08943,-1.23426 -3.67318,-4.26642 -3.0613,-5.86098 0.30179,-0.78642 -0.13331,-1.01197 -1.95218,-1.01197 -2.96276,0 -11.93508,1.83706 -14.7843,3.02705 -2.0497,0.85606 -2.1687,1.09571 -2.2043,4.43893 -0.0438,4.11268 -1.17792,7.79197 -2.69252,8.73493 -1.9459,1.21147 -4.43296,0.001 -5.28144,-2.56935 -0.96044,-2.91017 -0.42777,-5.25119 1.88687,-8.29253 1.85443,-2.43666 1.92023,-3.57708 0.41531,-7.19876 l -0.91128,-2.19306 -3.8523,3.13774 c -10.65504,8.67864 -17.93045,8.11935 -18.72313,-1.43933 l -0.3104,-3.74301 2.25326,0.21536 c 1.84325,0.17618 2.28513,0.51864 2.42837,1.88203 0.0963,0.91667 0.48335,2.79167 0.86009,4.16667 0.57379,2.09416 0.97413,2.5 2.46618,2.5 1.36577,0 3.24897,-1.48216 8.07464,-6.35509 3.4614,-3.4953 6.62283,-6.25702 7.02539,-6.13716 0.78024,0.23232 3.77338,5.73961 4.94321,9.09538 l 0.70443,2.02072 3.87548,-1.35515 c 2.168,-0.75809 7.1064,-1.62471 11.2088,-1.96698 4.03334,-0.3365 8.79166,-0.79992 10.57406,-1.0298 3.03709,-0.3917 4.05212,-0.16017 7.9169,1.80586 2.84967,1.44964 26.17466,-0.0578 28.94101,-1.87038 2.56921,-1.68341 3.59901,-0.22882 3.48724,4.92572 -0.13875,6.39859 0.55381,6.50554 6.26522,0.9675 3.95404,-3.83403 5.322,-4.76729 6.98779,-4.76729 2.42819,0 2.71728,0.61228 3.77714,8 0.90113,6.28125 1.6785,6.51245 8.25797,2.45593 7.49442,-4.62062 16.40746,-6.45593 31.35269,-6.45593 h 7.59498 l -0.31794,-15.5 c -0.2925,-14.25903 -1.83718,-29.9561 -3.08073,-31.30632 -0.59867,-0.65002 -10.37153,1.91933 -13.7046,3.60302 -1.49512,0.75526 -4.13054,2.68496 -5.8565,4.28824 -3.32656,3.09012 -5.10552,3.57618 -6.81864,1.86307 -1.54996,-1.54997 -2.1673,-2.95265 -2.6911,-6.11468 -0.25814,-1.55833 -0.74298,-2.83333 -1.07742,-2.83333 -0.33443,0 -0.60806,0.3044 -0.60806,0.67646 0,1.13989 -4.21028,3.3184 -6.41838,3.32104 -2.75122,0.003 -3.80384,-1.40982 -3.80384,-5.10656 v -3.03802 l -4.05556,0.44567 c -9.69238,1.06512 -17.46798,4.16269 -22.72222,9.05187 -4.29065,3.99254 -5.22604,4.29793 -7.41006,2.41931 -2.2756,-1.95739 -2.82964,-6.68078 -1.36294,-11.61969 0.82114,-2.7651 0.85629,-3.48342 0.17042,-3.48342 -1.52183,0 -6.43931,3.99478 -7.84018,6.36908 -1.04008,1.76281 -1.797,2.29759 -3.25196,2.29759 -2.56795,0 -3.97195,-2.17331 -3.97195,-6.14834 0,-1.75175 -0.18169,-3.18499 -0.40377,-3.18499 -2.49329,0 -10.64148,3.11732 -19.59623,7.4971 -8.88904,4.34764 -11.74249,5.43976 -14.869,5.69088 -5.35354,0.43 -6.7786,-0.93754 -7.84122,-7.52468 l -0.78025,-4.83672 -5.19935,3.30938 c -5.75478,3.6629 -9.77704,4.71136 -11.2528,2.93317 -1.96138,-2.3633 -16.78518,-0.82402 -27.39072,2.84421 -6.99263,2.41861 -12.36921,3.12617 -14.65255,1.9283 -1.95165,-1.02386 -4.65423,-5.5106 -4.66982,-7.7527 -0.0134,-1.92893 -0.49679,-1.8446 -9.3443,1.63011 -5.3722,2.10985 -7.19329,2.50451 -12,2.60061 -5.32254,0.10642 -5.7962,0.23595 -7.79968,2.13286 -2.42815,2.29899 -9.18214,4.49509 -11.8021,3.83752 -1.99332,-0.50029 -2.75919,-2.36988 -1.74619,-4.26268 0.76953,-1.43788 5.26267,-4.02736 6.98808,-4.02736 1.73765,0 1.13339,-1.32859 -0.64011,-1.40741 -0.91666,-0.0407 -2.19166,-0.0977 -2.83333,-0.12669 -0.64167,-0.0289 -2.97014,0.16119 -5.17439,0.42252 -7.34079,0.87032 -10.33342,-0.73412 -7.81296,-4.18876 3.15704,-4.32713 16.57524,-7.64373 15.07159,-3.72526 -0.26188,0.68245 -1.2708,1.0256 -3.01546,1.0256 -1.44204,0 -3.78959,0.59571 -5.21677,1.3238 -4.6175,2.35568 -4.02438,2.78355 3.17156,2.28794 8.03748,-0.55358 10.78584,-0.10676 13.52609,2.19902 4.00603,3.37084 13.56118,2.43283 24.15672,-2.37142 l 4.46029,-2.02239 0.009,-2.87514 c 0.005,-1.58133 0.19,-3.55016 0.4111,-4.37516 0.35392,-1.32068 0.1536,-1.5 -1.67578,-1.5 -1.14273,0 -2.07772,-0.26326 -2.07772,-0.58504 0,-0.96949 1.82914,-2.17683 2.96269,-1.95554 0.59861,0.11686 1.42705,-0.51706 1.89954,-1.45351 1.22553,-2.42897 2.84937,-2.45907 3.68281,-0.0683 0.69047,1.9807 0.74925,2.00204 4.71028,1.71022 2.2061,-0.16253 4.15635,-0.0605 4.3339,0.22682 0.79031,1.27876 -1.01691,2.1843 -5.12488,2.56791 l -4.43966,0.41458 -0.46333,2.40476 c -0.25483,1.32261 -0.48539,4.6043 -0.51234,7.29263 -0.0457,4.55687 0.0777,4.99705 1.8215,6.5 1.02878,0.88667 2.568,1.61212 3.42049,1.61212 0.85248,0 6.31075,-1.21484 12.12948,-2.69965 7.85631,-2.00475 12.49377,-2.80166 18.01623,-3.09596 6.77133,-0.36084 7.49534,-0.52496 8.0919,-1.83427 1.37044,-3.00779 15.46569,-8.53673 16.69448,-6.5485 0.24636,0.39861 1.34694,0.82681 2.44575,0.95156 l 1.99783,0.22682 v 6.46881 c 0,8.45743 0.60581,9.24971 5.77888,7.55768 1.94986,-0.63776 7.29728,-3.05883 11.88316,-5.38015 11.45953,-5.80069 24.29621,-9.20461 25.76282,-6.83159 0.27695,0.44812 0.42257,1.93629 0.3236,3.30705 l -0.17995,2.4923 4.48544,-3.00782 c 3.59887,-2.4133 4.95922,-2.96813 6.88242,-2.80705 2.15606,0.18059 2.41764,0.41409 2.60258,2.32326 0.11309,1.16738 -0.26398,3.7038 -0.83794,5.6365 -0.59967,2.01934 -0.86989,4.43963 -0.63528,5.69018 l 0.40825,2.17619 3.71536,-3.02651 c 4.46,-3.6331 7.07114,-5.01532 12.82185,-6.78736 4.08969,-1.2602 6.84646,-1.66022 17.32215,-2.5135 2.38333,-0.19413 5.65949,-0.5656 7.28035,-0.82548 l 2.94701,-0.47251 1.44074,-5.92687 c 1.45197,-5.97305 2.62207,-7.73981 5.12599,-7.73981 2.02495,0 1.76843,3.51614 -0.85618,11.73563 -2.08924,6.54288 -2.48196,12.1985 -1.02891,14.8178 l 0.86175,1.5534 2.0426,-1.71872 c 3.09659,-2.60562 11.4424,-6.3306 16.14167,-7.20452 2.31798,-0.43108 4.34372,-1.18636 4.5377,-1.69185 0.19272,-0.50222 -0.61955,-4.71831 -1.80505,-9.36909 C 361.03375,87.920464 321.51795,41.243844 269.02358,17.529218 261.2906,14.035797 244.19103,7.9203025 242.15604,7.9203025 c -0.59708,0 -2.73466,2.3400285 -4.75018,5.2000545 -2.01552,2.860027 -7.40929,10.057107 -11.98616,15.993514 -4.57688,5.9364 -10.28692,13.72138 -12.68899,17.299947 l -4.3674,6.506486 0.90541,4.33333 c 0.49796,2.38334 1.71392,7.78334 2.70213,12.00001 1.65421,7.05854 1.77866,8.57048 1.56891,19.06101 -0.21158,10.58201 -0.14474,11.37259 0.93766,11.08922 0.64102,-0.16782 1.91602,0.18664 2.83334,0.787686 2.72339,1.78443 1.98162,6.39541 -1.02883,6.39541 -1.79311,0 -3.11449,2.08799 -3.97005,6.27332 -0.97228,4.75626 -2.75484,9.08336 -4.2547,10.32814 -0.94874,0.78738 -1.30258,0.73929 -2.52182,-0.34278 -0.97664,-0.86678 -1.50551,-1.00963 -1.69856,-0.4588 -0.61018,1.74099 -3.01801,4.20012 -4.1125,4.20012 -2.54208,0 -3.63679,-1.63384 -3.50925,-5.23752 0.1061,-2.99745 -0.0423,-3.42914 -1.17928,-3.42914 -0.71536,0 -1.47402,0.54624 -1.68592,1.21386 -0.21189,0.66762 -1.2755,2.61762 -2.36357,4.33333 -2.33195,3.67711 -4.60996,4.18829 -6.41154,1.43874 -1.07983,-1.64805 -1.05269,-3.35435 0.13498,-8.48593 0.40277,-1.74027 0.30192,-1.83334 -1.98673,-1.83334 -3.32725,0 -4.59122,-1.51648 -6.73838,-8.08458 -1.00366,-3.07015 -2.19675,-5.8831 -2.65132,-6.25101 -0.45458,-0.367896 -1.50269,-2.017896 -2.32913,-3.666656 -0.82645,-1.64876 -2.38217,-3.9243 -3.45717,-5.05674 -2.2873,-2.40952 -2.41431,-3.26659 -1.6886,-11.39502 0.47441,-5.31385 0.9216,-6.85172 3.39243,-11.66666 1.56529,-3.0503 3.05396,-6.446 3.30815,-7.546 0.25418,-1.1 2.15411,-5.3468 4.22206,-9.43734 l 3.75991,-7.437333 -1.20331,-3.229334 C 177.54356,36.001524 174.29457,30.916458 168.96825,24.586971 166.34555,21.470304 161.6354,15.770304 158.50126,11.920304 151.87934,3.7858965 153.30442,4.1303495 140.63657,7.6022225 117.88922,13.836577 95.989117,24.602358 76.470047,39.145584 c -16.28748,12.13544 -35.2488,32.71573 -46.47337,50.44139 -6.52488,10.30399 -15.28868,28.945526 -19.32843,41.113616 -2.0293104,6.11248 -3.6896604,11.61981 -3.6896604,12.23848 0,0.76759 1.28379,-0.0637 4.0419104,-2.61724 6.69441,-6.19784 21.45911,-15.32773 24.16495,-14.94262 1.43121,0.20369 1.46122,0.42328 1.53166,11.20776 0.0682,10.44263 1.09332,19.61138 2.27422,20.34122 0.29777,0.18403 1.3543,-2.14246 2.34786,-5.16997 2.31316,-7.04856 6.73363,-15.65051 8.7072,-16.94364 2.76548,-1.81201 3.77656,-0.97898 4.66689,3.84503 1.00944,5.46939 5.39361,14.35463 6.52475,13.22349 0.20264,-0.20264 0.64802,-3.35217 0.98973,-6.99894 0.56211,-5.99895 0.50045,-6.82852 -0.64727,-8.70921 -0.69771,-1.14328 -1.26856,-2.71828 -1.26856,-3.5 0,-2.23626 2.33279,-1.76396 3.8312,0.77566 1.40118,2.37482 4.20926,3.55482 10.12758,4.25575 2.80384,0.33207 3.5501,0.14791 5.53492,-1.36599 2.97685,-2.27056 7.3982,-2.90095 10.69245,-1.52452 5.08595,2.12504 2.18141,6.47035 -4.98369,7.4558 -2.5467,0.35026 -3.228,0.69456 -3.06614,1.54949 0.38612,2.03949 4.6611,1.54772 19.457203,-2.23828 8.02163,-2.05256 15.19617,-3.64131 15.94341,-3.53057 1.93934,0.28741 2.18028,1.76482 0.34376,2.1079 -3.36902,0.62935 -10.65354,2.38735 -19.496473,4.70513 -5.10534,1.33814 -11.01882,2.61446 -13.14104,2.83628 -3.75062,0.39202 -3.92461,0.33729 -6.21756,-1.95566 -1.36102,-1.36102 -2.35937,-3.02172 -2.35994,-3.92562 -6.6e-4,-1.36887 -0.35858,-1.59047 -2.83333,-1.75511 -1.55779,-0.10363 -3.88235,-0.47696 -5.16569,-0.82961 -4.78371,-1.31455 -4.66666,-1.48947 -4.66666,6.97465 0,7.92593 -0.63454,11.0434 -2.24778,11.0434 -1.08968,0 -4.8951,-4.12681 -5.75473,-6.24073 -2.33956,-5.7533 -5.38987,-12.11229 -5.89004,-12.27902 -0.97133,-0.32377 -4.55164,5.83124 -6.11923,10.51975 -0.79686,2.38333 -1.61344,6.50749 -1.81462,9.16478 -0.4201,5.54907 -1.28242,6.78862 -3.89465,5.59841 -3.21796,-1.4662 -5.34822,-9.23174 -6.47559,-23.60579 l -0.80336,-10.24283 -6.29701,3.70937 c -4.14523,2.44184 -8.21605,5.59516 -11.91293,9.22797 -5.0110504,4.92419 -5.7049804,5.39677 -6.4428204,4.3877 -0.69655,-0.95258 -1.05116,0.0692 -2.24939,6.48144 -0.78237,4.18675 -1.73828,9.71228 -2.12424,12.27895 -0.71135,4.73048 -1.73976,31 -1.2136,31 0.1574,0 1.95256,-0.58568 3.98923,-1.30151 5.5043904,-1.93464 11.0520104,-2.69467 23.0110304,-3.15257 l 10.76027,-0.41199 0.0583,4.13943 c 0.0321,2.27668 0.235,4.42539 0.45101,4.7749 0.21601,0.34952 1.34767,-0.79336 2.51479,-2.53972 1.64276,-2.45805 2.57377,-3.21784 4.12205,-3.36396 1.8443,-0.17408 2.17014,0.1422 4.18549,4.06265 1.20202,2.33829 2.9185,5.24497 3.8144,6.45929 1.45938,1.97807 1.67589,2.07563 2.08027,0.93734 0.24825,-0.69878 1.14503,-3.01838 1.99287,-5.15464 1.26906,-3.19764 1.39882,-4.11847 0.73424,-5.21009 -0.68841,-1.13073 -0.57554,-1.51589 0.76658,-2.61588 2.2136,-1.81423 3.99412,-1.63629 4.79857,0.47956 l 0.67275,1.76947 9.74123,-0.42072 c 7.33507,-0.31681 10.01837,-0.67155 10.86324,-1.43614 0.61711,-0.55848 1.96537,-1.01542 2.99613,-1.01542 1.87062,0 1.87341,0.007 1.4997,3.62761 -0.44042,4.26735 -0.0182,6.37239 1.27814,6.37239 0.51412,0 2.95414,-0.7028 5.42225,-1.56178 2.46811,-0.85899 7.637483,-2.25986 11.487483,-3.11304 3.85,-0.85318 7.04127,-1.57538 7.0917,-1.60488 0.0504,-0.0295 0.30489,-1.92863 0.56546,-4.2203 0.46601,-4.0986 0.44727,-4.16667 -1.14726,-4.16667 -2.14514,0 -2.61066,-0.56605 -1.765,-2.14618 0.48875,-0.91324 1.13985,-1.1933 2.17199,-0.93425 1.17951,0.29604 1.62317,-0.0253 2.22064,-1.60814 1.11094,-2.94319 3.0775,-2.47547 4.29673,1.02191 0.12782,0.36666 2.08203,0.66666 4.34268,0.66666 2.26065,0 4.36018,0.24953 4.66562,0.55451 1.12408,1.12238 -2.06299,2.44549 -5.89061,2.44549 -4.35421,0 -4.02462,-0.46909 -5.10473,7.26531 -0.66869,4.7884 -0.12859,8.21014 1.5969,10.11677 1.77179,1.95781 6.67651,1.63153 16.62255,-1.10581 6.62143,-1.82235 10.55458,-2.49038 16.66667,-2.83075 l 8,-0.44551 -0.29742,-2.33334 c -0.16359,-1.28333 -0.30649,-5.90511 -0.31757,-10.27062 -0.0166,-6.54605 0.1657,-8.05452 1.04014,-8.6061 0.58315,-0.36785 1.55106,-0.48048 2.1509,-0.2503 0.93801,0.35995 1.09061,1.72743 1.09061,9.77277 0,5.14484 0.26327,9.35425 0.58504,9.35425 0.32177,0 0.9767,-0.47192 1.4554,-1.04872 1.58792,-1.91334 5.94816,-3.70159 8.50642,-3.48873 2.41692,0.20111 2.4506,0.24349 2.28046,2.87079 -0.53084,8.19729 -0.48157,8.96479 0.64799,10.09435 1.07819,1.07819 1.35747,1.02453 5,-0.96059 10.11916,-5.5148 14.80475,-7.52373 19.75384,-8.46939 2.87603,-0.54955 5.54648,-0.80305 5.93432,-0.56335 0.98278,0.6074 -1.37402,2.23231 -3.23776,2.23231 -3.92947,0 -22.4577,8.29138 -23.95995,10.72207 -0.72347,1.1706 -3.54402,0.59957 -5.60522,-1.13482 -3.79787,-3.19569 -4.69432,-6.66907 -2.91679,-11.30126 0.24241,-0.63172 -0.0874,-0.95266 -0.97907,-0.95266 -0.78333,0 -2.55242,1.39145 -4.23799,3.33333 l -2.89335,3.33333 -7.24926,0.31898 c -9.21686,0.40556 -13.68504,1.20726 -22.5364,4.04362 -8.4574,2.7101 -13.51992,3.39878 -15.861,2.15764 -2.27693,-1.20714 -4.486,-4.69278 -5.03555,-7.94549 l -0.46081,-2.72754 -3.35123,0.44455 c -1.84318,0.24451 -6.88129,1.62889 -11.1958,3.0764 -4.314513,1.44752 -8.557523,2.63185 -9.428923,2.63185 -3.08125,0 -6.5477,-3.91133 -6.5477,-7.38801 0,-1.33311 -0.23595,-1.4188 -2.83334,-1.0289 -1.55833,0.23392 -6.52592,0.61984 -11.03908,0.8576 l -8.20574,0.4323 -1.355,2.656 c -0.74524,1.4608 -1.73548,4.48938 -2.20053,6.73018 -0.84196,4.05688 -0.85513,4.07368 -3.10593,3.9613 -2.76667,-0.13813 -5.49414,-3.04157 -8.7225,-9.28526 -1.2125,-2.34499 -2.38231,-4.26472 -2.59957,-4.26608 -0.76528,-0.005 -2.50789,4.36951 -3.05323,7.6642 -0.43587,2.63327 -0.8395,3.3745 -1.92186,3.52935 -0.75357,0.10781 -1.88805,-0.37629 -2.52106,-1.07577 -1.2265,-1.35526 -3.7755,-9.43473 -3.7755,-11.96706 0,-1.66421 0.83837,-1.63876 -15.47211,-0.46962 -4.72998,0.33904 -14.9332004,3.20293 -16.3950004,4.60182 -0.69549,0.66556 -0.72489,2.26989 -0.14854,8.10554 6.41252,64.92757 44.6119704,121.3143 102.3139534,151.02706 23.58125,12.1428 46.18445,18.49418 74.03504,20.80344 6.11187,0.50678 21.1891,0.38923 28.33334,-0.22089 z m -102.15301,-43.12094 -0.18033,-13.87959 -2.16667,-0.20891 c -2.140083,-0.20634 -3.006233,-1.68505 -1.33333,-2.27629 0.95674,-0.33814 7.09323,0.002 8.32209,0.46088 1.05157,0.39293 0.3748,2.21738 -0.92231,2.48637 -0.82634,0.17136 -1.0067,2.36973 -1.1099,13.52837 -0.11136,12.04121 -0.2342,13.34517 -1.27622,13.54625 -1.05852,0.20426 -1.16778,-0.91484 -1.33333,-13.65708 z m 13.94467,13.35652 c -0.25209,-0.25208 -0.45834,-4.17148 -0.45834,-8.70978 0,-7.4887 -0.10784,-8.23334 -1.16666,-8.05556 -1.85497,0.31147 -1.98401,0.90362 -1.7884,8.20687 0.1374,5.13009 -0.044,7.10165 -0.70389,7.64929 -0.48895,0.4058 -1.03503,0.49825 -1.21349,0.20544 -0.17846,-0.2928 -0.43002,-6.98237 -0.55904,-14.8657 -0.2029,-12.3986 -0.0996,-14.33334 0.76513,-14.33334 0.79204,0 1.03991,1.1424 1.19331,5.5 0.18964,5.38661 0.22836,5.5 1.87807,5.5 1.64451,0 1.68217,-0.10664 1.58912,-4.5 -0.12936,-6.10731 -0.12043,-6.16666 0.9281,-6.16666 1.38916,0 1.49844,1.19914 1.45301,15.94425 -0.0396,12.86346 -0.36511,15.177 -1.91692,13.62519 z m 5.02915,-14.73611 0.17918,-15.16667 2.23014,-0.21364 c 3.18451,-0.30506 4.4845,0.28424 3.42998,1.55486 -0.45286,0.54566 -1.38664,0.99212 -2.07508,0.99212 -1.26538,0 -1.30554,0.19595 -1.53742,7.5 -0.0405,1.27708 0.29686,1.5 2.27043,1.5 1.64167,0 2.383,0.32796 2.54067,1.124 0.17234,0.87017 -0.35112,1.17126 -2.31805,1.33333 l -2.54067,0.20933 v 6.66667 6.66667 l 2.5,0.20691 c 1.53474,0.12702 2.5,0.54993 2.5,1.09534 0,1.16131 -1.49568,1.69775 -4.7337,1.69775 h -2.62466 z m 17.70706,2.66667 c -0.24228,-15.56744 -0.0758,-18.16667 1.1636,-18.16667 0.78349,0 0.97943,2.40221 1.12833,13.83333 l 0.18019,13.83334 2.44692,-0.1889 c 1.3458,-0.1039 2.62356,0.0969 2.83946,0.44625 0.78575,1.27137 -1.70305,2.74265 -4.63945,2.74265 h -2.92451 z m 14.76534,11.33333 c -0.0221,-0.64167 -0.0109,-4.16667 0.0247,-7.83333 0.0561,-5.77634 -0.20559,-7.46241 -1.95989,-12.62506 -1.11356,-3.27712 -2.02466,-6.67712 -2.02466,-7.55556 0,-2.94111 1.59595,-1.14565 2.86994,3.22871 0.68642,2.35689 1.4929,4.54165 1.79218,4.85503 0.29927,0.3134 1.24773,-1.6366 2.10767,-4.33333 1.55485,-4.87589 3.01471,-6.05571 2.76733,-2.23646 -0.0713,1.1 -0.89416,4.25 -1.82869,7 -1.43927,4.2353 -1.69985,6.19803 -1.70379,12.83333 -0.004,6.51646 -0.17276,7.83334 -1.00464,7.83334 -0.55,0 -1.01806,-0.525 -1.04012,-1.16667 z m 11.78992,-0.0748 c -1.68749,-1.86464 -2.3274,-4.83042 -2.80722,-13.01044 -0.48098,-8.19966 0.24308,-12.40726 2.56657,-14.91475 1.66351,-1.79523 3.90671,-1.9365 5.29312,-0.33333 3.86479,4.46905 4.16043,21.37171 0.47967,27.42424 -1.46239,2.4047 -3.79288,2.75616 -5.53214,0.83428 z m 4.6343,-5.16783 c 1.37045,-4.71418 1.35404,-13.19029 -0.0347,-17.96764 -1.09083,-3.75234 -2.15529,-4.46419 -3.7677,-2.51959 -1.28688,1.55198 -1.28747,19.01371 -6.7e-4,22.0632 1.34734,3.19318 2.56327,2.68932 3.80322,-1.57597 z m 6.68722,5.35478 c -0.66342,-1.72885 -0.46334,-28.83051 0.21594,-29.25033 0.93804,-0.57974 1.44704,0.50532 4.8269,10.28966 l 3.11417,9.0152 0.0525,-9.83334 c 0.0425,-7.95679 0.23053,-9.83333 0.98538,-9.83333 1.20622,0 1.49561,3.16105 1.65805,18.11118 0.17627,16.2224 -0.61213,16.44228 -5.57727,1.55549 l -2.89058,-8.66667 -0.0615,9.83333 c -0.0497,7.93118 -0.24118,9.83334 -0.99021,9.83334 -0.51078,0 -1.11078,-0.47454 -1.33334,-1.05453 z m 15.07702,0.0167 c -1.43562,-1.00554 -1.95182,-2.9365 -1.03114,-3.85718 0.2478,-0.2478 1.13254,0.19015 1.96608,0.97323 4.16517,3.91297 4.75398,-2.00241 1.21775,-12.23377 -2.79227,-8.07885 -3.10141,-11.18842 -1.30919,-13.16879 1.52344,-1.68339 4.55408,-1.58559 4.88467,0.15765 0.16392,0.86436 -0.21999,1.16666 -1.48159,1.16666 -2.87946,0 -2.81994,2.34478 0.28894,11.38332 2.31002,6.716 2.73049,8.68112 2.38963,11.168 -0.68213,4.97668 -3.52876,6.78981 -6.92515,4.41088 z m 18.29602,0.5378 c -0.16555,-0.275 -0.40825,-7.1 -0.53935,-15.16666 l -0.23834,-14.66667 h 2.94444 c 3.58848,0 4.3858,1.37022 1.26751,2.17825 -1.21657,0.31524 -2.13695,0.7791 -2.04529,1.0308 0.0917,0.25169 0.16667,2.12532 0.16667,4.16363 0,2.43378 0.24187,3.55653 0.70456,3.27057 1.07885,-0.66676 4.09221,0.29956 3.7878,1.21467 -0.14796,0.44481 -1.14427,0.96529 -2.21403,1.15661 l -1.945,0.34787 0.2128,6.92294 c 0.11704,3.80762 0.0363,7.62608 -0.17936,8.48547 -0.3845,1.53195 -1.32642,2.05256 -1.92241,1.06252 z m 8.75499,-0.23528 c -0.64862,-1.94584 3.03797,-23.62852 4.80977,-28.2887 1.05395,-2.77208 2.47336,-1.97745 3.31762,1.85732 0.96039,4.36224 3.3105,22.05876 3.32739,25.05555 0.0237,4.19766 -1.62711,1.87629 -2.32704,-3.27235 l -0.67292,-4.94987 -2.44728,-0.20414 -2.44729,-0.20414 -0.44303,3.20414 c -0.67815,4.90465 -1.30574,7.08942 -2.11386,7.35879 -0.40482,0.13494 -0.85634,-0.11553 -1.00336,-0.5566 z m 7.88968,-13.60643 c -0.21282,-0.55461 -0.58807,-2.97145 -0.83389,-5.37077 -0.50655,-4.94428 -1.11433,-4.87602 -2.18395,0.2453 -1.16732,5.58907 -1.04889,6.13385 1.33347,6.13385 1.57493,0 1.97859,-0.24166 1.68437,-1.00838 z m 7.9418,13.50837 c -0.14337,-0.45833 -0.45548,-6.63991 -0.6936,-13.73684 -0.23811,-7.09692 -0.55825,-13.24692 -0.71141,-13.66666 -0.15317,-0.41974 -0.005,-1.19387 0.33037,-1.7203 0.95527,-1.5017 2.40938,0.12805 4.1735,4.67756 0.8416,2.17044 1.68172,3.94511 1.86692,3.94372 0.1852,-10e-4 1.21904,-2.10139 2.29744,-4.66667 3.53508,-8.40923 4.21787,-6.40338 4.51848,13.27397 0.1309,8.56845 -0.0365,12.348 -0.55456,12.52512 -1.1183,0.38231 -1.57582,-3.74714 -1.58396,-14.29656 -0.004,-5.225 -0.23442,-9.5 -0.51196,-9.5 -0.27754,0 -1.11308,1.575 -1.85675,3.5 -1.65077,4.27299 -2.96728,4.47782 -4.28475,0.66666 -0.53869,-1.55833 -1.16944,-2.83333 -1.40165,-2.83333 -0.23222,0 -0.27499,5.1 -0.095,11.33333 0.24231,8.39359 0.12491,11.33334 -0.4526,11.33334 -0.42888,0 -0.89708,-0.375 -1.04044,-0.83334 z m 15.22288,-0.13376 c -0.56733,-1.47844 0.005,-28.84918 0.61587,-29.45904 1.26877,-1.26642 1.56953,1.97852 1.41706,15.28904 -0.0891,7.7754 -0.18999,14.3621 -0.22429,14.6371 -0.10927,0.87625 -1.42338,0.53687 -1.80864,-0.4671 z m 5.52407,0.52265 c -0.24445,-0.24444 -0.44445,-7.14444 -0.44445,-15.33333 0,-12.79012 0.14096,-14.88889 1,-14.88889 0.85734,0 1,2.00947 1,14.08521 v 14.0852 l 2.62643,-0.41998 c 3.01352,-0.48188 4.27899,0.6054 2.34801,2.01737 -1.26959,0.92834 -5.74466,1.23976 -6.52999,0.45442 z m 13.93448,-0.67714 c -0.23672,-0.61687 -0.24199,-4.01674 -0.0117,-7.55526 0.40328,-6.19731 0.32849,-6.69757 -2.03576,-13.61691 -1.64462,-4.8132 -2.23334,-7.40434 -1.78436,-7.85332 1.14756,-1.14756 1.93883,-0.0205 3.4283,4.88328 0.79154,2.60598 1.58442,4.59289 1.76195,4.41536 0.17753,-0.17754 0.9851,-2.38426 1.79459,-4.90384 1.42614,-4.43898 2.59127,-5.6231 3.00025,-3.04918 0.10935,0.68825 -0.71565,4.10616 -1.83333,7.59536 -1.76414,5.50727 -2.03217,7.3241 -2.03217,13.77505 0,5.90727 -0.19043,7.43105 -0.92867,7.43105 -0.51078,0 -1.12236,-0.50472 -1.35907,-1.12159 z M 166.65584,311.28698 c -0.22693,-0.71501 0.0506,-2.19579 0.61677,-3.29062 l 1.02938,-1.9906 -2.32836,0.37784 c -1.9348,0.31398 -2.32836,0.1758 -2.32836,-0.81748 0,-1.54004 2.99682,-6.66092 4.55399,-7.78173 0.66026,-0.47523 1.40361,-1.40808 1.65187,-2.07299 0.24826,-0.6649 0.7535,-1.0222 1.12276,-0.79399 0.86915,0.53717 0.87278,2.33625 0.005,2.33625 -0.36667,0 -0.66667,0.33182 -0.66667,0.7374 0,0.40556 -0.93616,1.9194 -2.08036,3.36407 -4.45326,5.62269 0.53304,3.32583 6.67394,-3.07425 2.40197,-2.50335 4.00134,-4.68246 3.66667,-4.99579 -1.73721,-1.62642 -13.24277,-2.63874 -16.39019,-1.44209 -0.86192,0.3277 -2.29574,2.02951 -3.22968,3.83333 -6.58248,12.71333 -9.20118,16.24399 -12.04825,16.24399 -2.24834,0 -3.47958,-2.94069 -3.07933,-7.35467 0.19842,-2.18827 0.15744,-3.97866 -0.0911,-3.97866 -0.24852,0 -1.03019,1.07393 -1.73706,2.3865 -1.26368,2.34651 -4.57413,5.6135 -5.68819,5.6135 -1.64765,0 -2.66313,-2.29291 -2.66313,-6.01321 0,-7.42329 5.43607,-20.5008 9.33333,-22.45311 2.27037,-1.13732 2.66117,0.49991 0.62362,2.61261 -1.96585,2.03836 -5.59009,9.8935 -6.89767,14.94994 -1.04454,4.03923 -1.41722,8.90377 -0.68212,8.90377 1.34308,0 3.16751,-1.90689 6.0221,-6.29427 1.79708,-2.76201 3.49937,-5.02572 3.78289,-5.03045 0.28352,-0.005 0.43352,3.21639 0.33333,7.15805 -0.17262,6.79191 -0.1105,7.17692 1.18796,7.36268 0.75357,0.10781 1.84652,-0.34219 2.42878,-1 1.7031,-1.92406 8.53444,-14.65247 8.53444,-15.90169 0,-0.62778 0.675,-1.80927 1.5,-2.62553 0.825,-0.81626 2.34446,-2.72566 3.37657,-4.24312 1.98761,-2.92224 4.04076,-3.94163 2.20011,-1.09234 -0.59218,0.91667 -1.51198,2.34167 -2.04402,3.16667 l -0.96735,1.5 5.46735,0.0781 c 3.00704,0.043 7.26135,0.45358 9.45403,0.91244 l 3.98669,0.8343 2.52576,-2.91244 c 1.38917,-1.60184 3.04516,-4.03578 3.67998,-5.40877 1.26239,-2.73031 3.26683,-3.15845 2.99482,-0.6397 -0.15784,1.46169 -2.95315,6.20783 -4.79182,8.13604 -0.82887,0.86923 -0.81376,1.02693 0.11556,1.20593 0.59476,0.11456 2.33311,-1.1653 3.91782,-2.88452 3.05965,-3.31933 5.69747,-4.98808 7.88473,-4.98808 1.63235,0 1.82167,1.80996 0.38764,3.70592 -0.53833,0.71174 -0.98833,1.81532 -1,2.45239 -0.0117,0.63707 -1.1462,1.8882 -2.5212,2.7803 -1.375,0.8921 -4.3,3.29697 -6.5,5.34415 -3.44779,3.20829 -3.74776,3.66603 -2.17288,3.31565 2.16345,-0.48133 3.18176,1.16678 1.94476,3.14753 -0.42453,0.67978 -0.77188,1.4006 -0.77188,1.6018 0,0.5809 2.77664,-1.05183 5.49974,-3.23398 1.37486,-1.10174 2.71783,-1.78507 2.98439,-1.51852 0.56303,0.56304 -3.82664,4.45181 -6.97844,6.18214 -1.98435,1.0894 -2.24851,1.09885 -3.23175,0.11561 -0.83968,-0.83968 -0.91285,-1.36585 -0.33902,-2.43805 0.93068,-1.73899 0.92969,-2.32263 -0.003,-1.74623 -0.40408,0.24973 -1.16316,1.47953 -1.68684,2.73289 -1.06093,2.53915 -2.24514,2.40556 -2.24514,-0.25328 0,-1.61958 -0.27982,-1.4643 -4.27563,2.37268 -3.79023,3.63956 -4.57982,4.10567 -6.95507,4.10567 -2.07105,0 -2.77314,-0.29518 -3.09206,-1.30001 z m 10.12789,-4.86666 c 5.73197,-5.54494 9.9409,-12.5 7.56452,-12.5 -1.71648,0 -12.35515,11.51594 -14.62718,15.83334 -0.70221,1.33436 -0.63171,1.5 0.63846,1.5 0.86862,0 3.38472,-1.89302 6.4242,-4.83334 z m 12.86154,-11.91 c 0,-1.14919 -1.19514,-0.56687 -2.30124,1.12124 l -1.12125,1.71125 1.71125,-1.12125 c 0.94118,-0.61669 1.71124,-1.38675 1.71124,-1.71124 z m 5.35177,-5.42333 c 2.59779,-2.79693 3.43663,-4.37759 1.81489,-3.41991 -2.26972,1.34033 -5.30192,3.92697 -5.88871,5.02338 -1.26521,2.36408 1.34185,1.33792 4.07382,-1.60347 z m 2.87951,22.47447 c -2.33921,-6.09589 10.279,-26.5438 18.75637,-30.39484 3.40266,-1.54574 4.34568,-1.55059 4.34568,-0.0223 0,1.11388 -3.23372,4.44851 -12.38943,12.77604 -3.39851,3.0911 -7.81164,10.8387 -8.69786,15.26976 -0.40598,2.02994 -0.33696,2.15768 0.82205,1.52146 0.69588,-0.382 4.35367,-3.53482 8.12841,-7.00626 3.77474,-3.47144 7.43871,-6.46222 8.14215,-6.64618 1.7925,-0.46875 2.90412,1.1474 2.42768,3.52954 -0.41206,2.06032 0.33438,2.63086 1.52416,1.16502 3.95366,-4.87102 3.93623,-4.85615 4.37383,-3.7313 0.2358,0.60611 -0.19221,2.31916 -0.95113,3.80677 -2.11908,4.15374 -1.65772,4.6415 1.47871,1.56333 3.14831,-3.08982 4.14405,-3.4955 3.61511,-1.4728 -0.65699,2.51232 0.8984,2.09904 4.50472,-1.19692 3.71596,-3.39618 6.85026,-4.69131 7.46656,-3.08527 0.53428,1.39231 -0.37736,2.32803 -3.69766,3.79535 -2.93856,1.29864 -4.6801,2.80036 -4.7261,4.07528 -0.0392,1.08726 5.27208,-0.11002 9.71852,-2.19076 4.98236,-2.33153 4.92695,-2.31619 4.92695,-1.36416 0,1.064 -9.25327,5.1657 -12.77412,5.6624 -2.73147,0.38534 -3.19933,0.26671 -3.86678,-0.98044 -0.41763,-0.78036 -1.02584,-1.25412 -1.35157,-1.0528 -0.32574,0.20132 -0.87,-0.13028 -1.20946,-0.73688 -0.53194,-0.95051 -0.94197,-0.74853 -2.96762,1.46183 -1.96638,2.1457 -2.51508,2.42805 -3.35835,1.7282 -0.55437,-0.46009 -1.18529,-1.5431 -1.40203,-2.40669 -0.35152,-1.40054 -0.62866,-1.51194 -2.56542,-1.0312 -1.19422,0.29643 -3.1527,0.93349 -4.35216,1.41569 -1.67984,0.67531 -2.4663,0.69845 -3.42342,0.10072 -1.03803,-0.64826 -1.50209,-0.49371 -2.81915,0.93885 -2.41698,2.62894 -6.63286,5.53413 -8.03087,5.53413 -0.68983,0 -1.43132,-0.46149 -1.64777,-1.02553 z m 16.43539,-7.64114 c 0,-0.36666 -0.45,-0.66666 -1,-0.66666 -0.55,0 -1,0.3 -1,0.66666 0,0.36667 0.45,0.66667 1,0.66667 0.55,0 1,-0.3 1,-0.66667 z m 3.30988,-2.62284 c 0.86557,-1.61734 0.88347,-2.71049 0.0444,-2.71049 -0.35516,0 -0.48819,0.41057 -0.29563,0.91239 0.20773,0.54132 -0.20747,1.05819 -1.02092,1.27092 -1.56458,0.40914 -1.87023,1.81669 -0.39449,1.81669 0.5371,0 1.2871,-0.58028 1.66666,-1.28951 z m -1.97655,-15.71049 c 1.99161,-2.01667 3.39351,-3.66667 3.11533,-3.66667 -0.7249,0 -7.11533,6.06942 -7.11533,6.7579 0,0.91514 0.18328,0.7735 4,-3.09123 z m 31.10501,26.54946 c -0.2478,-0.2478 0.13116,-1.0728 0.84212,-1.83333 0.71097,-0.76054 1.38872,-2.5828 1.5061,-4.04946 0.17862,-2.23168 0.47391,-2.70349 1.81025,-2.89239 1.49391,-0.21117 1.57114,-0.0676 1.19852,2.22864 -0.21906,1.3499 -1.17789,3.47647 -2.13074,4.72572 -1.74221,2.28415 -2.39467,2.65239 -3.22625,1.82082 z M 44.767477,266.15365 c -0.81085,-0.81085 -0.5363,-33.43807 0.28565,-33.94606 0.40766,-0.25195 0.94963,-0.12084 1.20438,0.29135 0.25475,0.41219 0.41264,7.96919 0.35088,16.79333 -0.10277,14.681 -0.48848,18.21381 -1.84091,16.86138 z m 5.99663,-0.041 c -0.18516,-0.2996 -0.42048,-8.04044 -0.5229,-17.20186 -0.23474,-20.99421 0.17501,-21.41122 5.40405,-5.4999 2.01667,6.13647 3.85825,11.16147 4.09241,11.16667 0.23416,0.005 0.26521,-5.09055 0.069,-11.32388 -0.30883,-9.81145 -0.2218,-11.33333 0.64806,-11.33333 1.43465,0 1.84454,4.53858 1.85139,20.5 0.007,17.32262 -0.55219,17.63007 -5.26727,2.89379 -1.86648,-5.83345 -3.3936,-10.93345 -3.3936,-11.33336 0,-0.39992 -0.33962,-0.72713 -0.7547,-0.72713 -0.54238,0 -0.68304,3.2179 -0.5,11.4388 0.18419,8.27208 0.0409,11.51163 -0.51754,11.70186 -0.42474,0.14468 -0.92374,0.0179 -1.10891,-0.28168 z m 30.19798,-1.2357 c -0.35759,-0.94056 -0.65016,-5.29056 -0.65016,-9.6667 v -7.9566 h -1.66667 -1.66667 v 9.04888 c 0,8.2587 -0.10188,9.02937 -1.16666,8.82537 -1.05984,-0.20305 -1.1981,-1.65743 -1.50984,-15.88222 -0.26118,-11.91795 -0.14553,-15.88811 0.48413,-16.61901 1.37152,-1.59206 1.84755,-0.22337 2.09204,6.01504 0.22489,5.73848 0.28776,5.94528 1.80738,5.94528 1.51992,0 1.58104,-0.2015 1.767,-5.82584 0.16064,-4.85851 0.38069,-5.86178 1.32533,-6.04234 1.03634,-0.19809 1.14978,1.16262 1.33334,15.9925 0.11034,8.91496 0.0935,16.58401 -0.0374,17.04234 -0.39197,1.37248 -1.41877,0.9462 -2.11184,-0.87673 z m 9.59102,0.73729 c -2.57913,-1.80649 -3.59268,-5.83778 -4.0053,-15.93061 -0.33622,-8.22404 -0.22492,-9.85398 0.87034,-12.74579 1.41358,-3.73225 3.69592,-5.46268 6.33226,-4.801 4.08435,1.02511 6.468233,14.16397 4.50083,24.80659 -0.76059,4.11439 -2.8722,8.97692 -3.89834,8.97692 -0.32923,0 -1.00039,0.15418 -1.49149,0.34264 -0.4911,0.18845 -1.52984,-0.10349 -2.3083,-0.64875 z m 4.60578,-6.67329 c 1.12046,-3.67327 0.89782,-17.18879 -0.34626,-21.0206 -1.18854,-3.66074 -3.15197,-4.3606 -4.4208,-1.5758 -2.08411,4.57411 -1.4,22.46178 0.99908,26.12323 1.06343,1.62301 1.13648,1.63823 2.02575,0.42207 0.50739,-0.6939 1.2914,-2.47091 1.74223,-3.9489 z m 7.962583,6.80539 c -0.9731,-1.19101 -1.36099,-32.20771 -0.41462,-33.15417 1.17071,-1.17083 1.82398,0.19779 5.56581,11.66047 1.9149,5.8661 3.54914,10.73313 3.63165,10.81564 0.0825,0.0825 0.0195,-5.12144 -0.14011,-11.56433 -0.27699,-11.18411 -0.23344,-11.70348 0.96214,-11.4746 1.16481,0.223 1.29054,1.34902 1.80056,16.12535 0.30158,8.73709 0.38599,16.30862 0.1876,16.82563 -0.1984,0.51701 -0.79989,0.94002 -1.33664,0.94002 -0.67299,0 -2.10651,-3.4663 -4.61809,-11.16667 l -3.64216,-11.16667 -0.0695,11.12732 c -0.0666,10.66306 -0.44725,12.84267 -1.92663,11.03201 z m 18.27496,-0.68089 c -2.32591,-2.32591 -3.02498,-5.54498 -3.43376,-15.81177 -0.30144,-7.57096 -0.16985,-9.52681 0.82879,-12.31784 2.06869,-5.78161 6.90152,-6.77157 9.09566,-1.86316 2.29566,5.13552 3.03357,14.64305 1.69746,21.87075 -0.76059,4.11439 -2.8722,8.97692 -3.89834,8.97692 -0.32923,0 -1.05979,0.17698 -1.62347,0.39328 -0.60054,0.23044 -1.70452,-0.28636 -2.66634,-1.24818 z m 5.26906,-6.75452 c 1.28412,-4.32408 1.24639,-12.62184 -0.084,-18.47104 -1.7172,-7.54992 -4.49641,-6.90508 -5.77253,1.33936 -0.9254,5.97854 0.21827,18.6986 1.91387,21.28641 1.068,1.62997 1.1354,1.64373 2.03374,0.41518 0.51102,-0.69886 1.37003,-2.75532 1.9089,-4.56991 z m 8.07898,7.76994 c -0.64118,-1.03745 -1.81154,-27.4958 -1.36511,-30.86114 0.55079,-4.15206 1.80581,-4.31784 5.57117,-0.73594 2.40185,2.28482 2.69474,2.90361 2.69474,5.69322 0,3.01244 -1.83791,7.81911 -3.34618,8.75128 -0.42421,0.26217 0.0847,1.32384 1.29575,2.70314 2.25693,2.57051 3.23981,5.62738 3.52253,10.95558 0.15342,2.89133 -0.0155,3.66667 -0.79902,3.66667 -0.94823,0 -1.1691,-0.80689 -2.37237,-8.66667 -0.1684,-1.1 -1.07375,-2.9 -2.01188,-4 l -1.7057,-2 0.31063,6.80522 c 0.23352,5.11583 0.0931,6.98572 -0.56555,7.53236 -0.4819,0.39994 -1.03495,0.47027 -1.22901,0.15628 z m 4.47436,-25.47089 c 0.0641,-2.44294 -1.57326,-5.35633 -3.01022,-5.35633 -0.66926,0 -0.769,10.90545 -0.10581,11.56865 0.83123,0.83123 3.04719,-3.58665 3.11603,-6.21235 z m 20.25976,25.25151 c -2.34852,-1.35692 -3.29348,-4.64264 -4.02229,-13.98606 -0.82296,-10.5504 -0.10197,-15.72476 2.56233,-18.38905 1.80261,-1.80261 4.39742,-2.03335 5.90561,-0.52515 4.30516,4.30515 4.47903,26.33647 0.25039,31.72513 -1.15616,1.47332 -3.26611,2.00131 -4.69604,1.17513 z m 3.94904,-6.11565 c 2.58455,-7.41247 0.91942,-25.15885 -2.36064,-25.15885 -1.94912,0 -2.96174,3.21116 -3.27272,10.37818 -0.32875,7.5767 0.59747,14.96019 2.17958,17.3748 1.37716,2.10181 1.97224,1.65484 3.45378,-2.59416 z m 8.59243,6.24159 c -0.59865,-0.96864 -1.85937,-32.61636 -1.33322,-33.46769 0.20375,-0.32967 1.87474,-0.59939 3.71332,-0.59939 2.82344,0 3.30853,0.18128 3.12186,1.16666 -0.14555,0.76837 -0.95885,1.23799 -2.38221,1.37558 -2.39939,0.23192 -2.57341,0.931 -1.7419,6.99752 0.4033,2.94243 0.49196,3.04465 2.32306,2.67843 1.41986,-0.28397 2.01579,-0.0888 2.34451,0.76781 0.51865,1.3516 -0.72997,2.32247 -3.00577,2.33712 l -1.58555,0.0102 0.4612,8.5 c 0.37011,6.82122 0.27543,8.75037 -0.47935,9.76766 -0.67871,0.91476 -1.07847,1.04452 -1.43595,0.4661 z m 23.05061,-0.28947 c -0.52397,-0.63135 -0.7537,-3.79763 -0.69132,-9.52826 0.0888,-8.15425 -0.0206,-8.91547 -2.19043,-15.24935 -1.25611,-3.66667 -2.17351,-7.17504 -2.03865,-7.79638 0.50548,-2.32898 2.14365,-0.26226 3.84754,4.85406 0.96632,2.90161 1.86502,5.27565 1.99709,5.27565 0.13208,0 0.91487,-2.175 1.73953,-4.83333 0.82467,-2.65834 1.88095,-5.2616 2.34729,-5.78503 2.36342,-2.65277 1.30067,4.58523 -1.99957,13.61836 -0.6363,1.74162 -1.00476,5.55395 -1.06219,10.98995 -0.0886,8.38194 -0.50616,10.19318 -1.94929,8.45433 z m 14.53754,0.45446 c -2.91061,-0.78563 -4.6165,-8.13515 -4.62457,-19.92415 -0.004,-6.31193 0.20834,-7.78178 1.49496,-10.33262 1.6504,-3.27205 4.35896,-4.79057 6.36852,-3.57043 5.6482,3.42941 6.20387,26.95863 0.76511,32.3974 -1.87018,1.87018 -2.08642,1.9474 -4.00402,1.4298 z m 3.83531,-6.78459 c 2.60081,-6.73963 0.8516,-24.78084 -2.40266,-24.78084 -2.31732,0 -3.06565,3.55312 -3.01878,14.33333 0.0357,8.21293 0.25891,10.44915 1.24896,12.51333 1.45518,3.03395 2.38145,2.57534 4.17248,-2.06584 z m 11.58553,5.9363 c -1.80601,-1.80602 -2.53556,-4.99042 -3.37171,-14.71712 -0.39401,-4.58333 -0.89832,-10.46565 -1.1207,-13.07182 -0.29292,-3.43297 -0.17536,-4.87998 0.42669,-5.25207 1.67905,-1.03771 1.7059,-0.88287 3.38035,19.49518 0.36929,4.49421 0.99412,8.99421 1.3885,10 l 0.71707,1.82871 0.71181,-1.66666 c 0.3915,-0.91667 0.84141,-7.74167 0.9998,-15.16667 0.22705,-10.64399 0.47554,-13.5 1.1746,-13.5 0.48764,0 1.04448,0.525 1.23742,1.16667 0.6708,2.23094 -0.0653,24.49154 -0.91553,27.68851 -1.04019,3.91097 -2.73946,5.08411 -4.6283,3.19527 z m 10.25046,0.56374 c -0.24445,-0.39552 -0.607,-8.19552 -0.80567,-17.33333 -0.36018,-16.56623 -0.35716,-16.61422 1.0437,-16.61422 0.77271,0 2.65443,1.18863 4.18162,2.64141 2.73912,2.60567 2.77287,2.69418 2.49442,6.54359 -0.19519,2.69856 -0.76783,4.58413 -1.85651,6.11303 -1.2673,1.77977 -1.42135,2.42121 -0.79008,3.28974 2.65647,3.65488 3.42883,5.44331 4.11971,9.53932 0.8709,5.16322 0.53596,7.16543 -0.98718,5.90134 -0.52248,-0.43362 -1.1435,-2.49241 -1.38005,-4.57508 -0.57564,-5.06822 -0.71493,-5.47074 -2.69471,-7.78668 l -1.70969,-2 0.28449,6.66666 c 0.15647,3.66667 0.15026,7.04167 -0.0138,7.5 -0.36647,1.02384 -1.28954,1.07973 -1.88626,0.1142 z m 4.79311,-24.73104 c 0.26686,-1.64452 -0.0125,-2.6902 -1.08219,-4.05002 -0.79306,-1.00825 -1.72016,-1.83316 -2.06021,-1.83316 -0.70663,0 -0.85769,10.87171 -0.16075,11.56865 0.67673,0.67673 2.88848,-3.13021 3.30315,-5.6855 z m 17.08838,24.8821 c -0.41097,-0.2626 -0.79678,-6.63789 -0.98417,-16.26298 -0.28695,-14.73889 -0.22375,-15.90752 0.91615,-16.93912 0.99723,-0.90247 1.53336,-0.96726 2.88986,-0.34919 3.76606,1.71593 5.50759,8.17735 3.32958,12.35339 -0.90727,1.73957 -0.88153,2.04024 0.30363,3.54692 2.64917,3.36788 2.30137,10.75854 -0.70499,14.98058 -1.33504,1.8749 -4.61275,3.3971 -5.75006,2.6704 z m 4.10188,-4.93192 c 1.6121,-2.4633 1.97128,-6.59784 0.81384,-9.368 -0.56654,-1.35596 -1.34539,-2.46536 -1.73076,-2.46536 -0.38538,0 -0.90464,-0.075 -1.1539,-0.16666 -0.24926,-0.0917 -0.57957,2.90833 -0.734,6.66666 -0.24237,5.89829 -0.13685,6.83334 0.77117,6.83334 0.57859,0 1.49372,-0.675 2.03365,-1.5 z m -0.19858,-18.52312 c 0.68138,-2.27427 0.63569,-3.04665 -0.29579,-5 -1.72654,-3.62061 -2.45657,-2.82128 -2.45657,2.68976 0,3.9389 0.20654,5 0.97324,5 0.55923,0 1.31604,-1.1442 1.77912,-2.68978 z m 18.84802,23.25376 c -0.30655,-0.49354 -0.8681,-3.14733 -1.24787,-5.89733 l -0.6905,-5 -2.70647,-0.19891 -2.70646,-0.19892 -0.7926,5.09816 c -0.8862,5.70025 -1.12368,6.29967 -2.49583,6.29967 -0.58093,0 -0.96065,-0.66053 -0.96065,-1.67105 0,-2.59855 1.8681,-14.4074 3.40807,-21.54345 3.62763,-16.81009 5.66959,-14.45662 8.86249,10.2145 1.24536,9.62279 1.38802,12.17776 0.72011,12.89731 -0.698,0.75196 -0.92319,0.75196 -1.39029,0 z m -2.49084,-15.39733 c -0.20258,-0.825 -0.55323,-3.15 -0.77922,-5.16667 -0.80865,-7.21604 -1.10926,-7.38327 -2.39675,-1.33333 -1.51073,7.09899 -1.5117,7.17159 -0.10024,7.54045 2.87188,0.7505 3.65493,0.50182 3.27621,-1.04045 z m 9.0568,15.59858 c -0.43119,-0.26913 -0.8238,-6.53968 -1.04171,-16.63753 l -0.3497,-16.20563 1.5282,-0.6963 c 4.57809,-2.08591 8.96476,6.71717 6.09151,12.22433 -0.84004,1.61011 -0.77485,2.09084 0.67078,4.94632 0.88069,1.73958 1.59957,3.93702 1.59753,4.88322 -0.005,2.58616 -1.32281,6.8312 -2.73722,8.82131 -1.33203,1.8742 -4.60179,3.38679 -5.75939,2.66428 z m 4.11793,-4.93191 c 1.6121,-2.4633 1.97129,-6.59785 0.81384,-9.36801 -0.56654,-1.35593 -1.34538,-2.46533 -1.73076,-2.46533 -0.38538,0 -0.88186,-0.001 -1.1033,-0.003 -0.52052,-0.005 -1.11199,11.2363 -0.65402,12.42975 0.51356,1.3383 1.56262,1.10575 2.67424,-0.59281 z m -0.37201,-18.13801 c 1.06807,-2.19277 0.1021,-6.62467 -1.58502,-7.27208 -0.82669,-0.31723 -0.99391,0.46561 -0.99391,4.65323 0,5.41294 0.81489,6.24045 2.57893,2.61885 z m 8.11927,22.676 c -0.85636,-1.03185 -0.77072,-32.52465 0.0908,-33.38378 0.25061,-0.24992 0.77561,-0.25665 1.16667,-0.0149 0.8807,0.5443 0.99676,33.43879 0.11989,33.98072 -0.32512,0.20094 -0.94492,-0.0609 -1.37734,-0.58198 z m 5.59841,0.10669 c -0.17656,-0.4601 -0.24052,-8.18087 -0.14214,-17.15728 l 0.17887,-16.32074 3.55596,-0.20344 c 3.12544,-0.17882 3.52836,-0.0577 3.32788,1 -0.15318,0.8082 -0.93788,1.27205 -2.3893,1.41235 l -2.16121,0.20891 v 5.29109 5.29109 h 2.55555 c 1.40556,0 2.75296,0.1974 2.99422,0.43866 0.88314,0.88314 -1.10763,2.22801 -3.29806,2.22801 h -2.25171 v 7.66667 7.66666 h 3 c 2.24955,0 3,0.25539 3,1.02092 0,1.18586 -0.53859,1.39796 -4.85786,1.91306 -2.23893,0.26701 -3.28699,0.13095 -3.5122,-0.45596 z m 13.61577,-0.15697 c -1.95826,-1.05763 -2.72968,-2.48611 -2.15346,-3.98771 0.52748,-1.37458 1.40548,-1.25242 2.3958,0.33333 0.93763,1.50139 2.51698,1.72831 3.71195,0.53333 1.50415,-1.50415 0.80017,-6.19006 -2.26876,-15.10149 -3.21792,-9.34407 -3.41113,-11.72658 -1.15333,-14.22143 1.31824,-1.45664 3.75486,-1.57666 4.86452,-0.23961 1.09487,1.31923 0.22217,2.51521 -1.44843,1.98498 -3.25564,-1.0333 -3.29563,3.1445 -0.10755,11.23602 3.041,7.71823 3.85648,15.88782 1.82176,18.25062 -1.6776,1.94809 -3.55536,2.34999 -5.6625,1.21196 z m 10.34096,0.0442 c -0.47481,-1.23733 0.21792,-2.36525 1.45268,-2.36525 0.58025,0 0.96065,0.65997 0.96065,1.66667 0,1.83181 -1.78068,2.34726 -2.41333,0.69859 z M 86.145257,191.86692 c -1.76755,-1.0295 -1.40293,-2.35365 0.91216,-3.31259 3.21289,-1.33082 5.75319,0.77207 3.56998,2.95528 -1.22441,1.22441 -2.78045,1.34846 -4.48214,0.35731 z m 162.046983,18.77193 c 0.1175,-1.19834 0.0211,-2.67523 -0.21428,-3.282 -0.38431,-0.99078 -0.52496,-0.97133 -1.3803,0.19089 -0.99295,1.3492 -1.28644,4.48298 -0.49406,5.27536 0.92941,0.92941 1.8809,-0.0657 2.08864,-2.18425 z m 33.07208,-6.43282 c 1.29181,-1.29181 1.29468,-1.46721 0.0445,-2.71735 -0.8184,-0.8184 -1.42123,-0.86507 -3.27439,-0.25347 -2.46344,0.81301 -3.61529,2.58554 -2.24512,3.45494 1.41064,0.89507 4.35623,0.63461 5.47496,-0.48412 z M 145.60557,158.75262 c 3.24849,-1.6509 3.58112,-3.14871 0.5915,-2.66356 -3.14016,0.50958 -7.21847,2.27829 -7.21847,3.13057 0,1.10475 4.10315,0.81559 6.62697,-0.46701 z m 199.88057,-4.44568 c 1.36837,-1.25402 2.24587,-2.5221 1.95001,-2.81798 -0.78596,-0.78595 -6.74739,2.5603 -7.00379,3.93136 -0.36841,1.96996 2.34049,1.37318 5.05378,-1.11338 z m -110.13498,-4.09156 c 2.17842,-1.30438 4.56078,-2.99048 5.29411,-3.74688 l 1.33333,-1.37528 -2.90331,0.43262 c -4.63659,0.69089 -10.09669,4.03148 -10.09669,6.17735 0,1.50734 2.24624,0.98291 6.37256,-1.48781 z M 87.952167,139.02207 c 1.89882,-1.38846 0.0856,-2.00564 -2.28733,-0.77856 -1.11077,0.5744 -2.01958,1.18666 -2.01958,1.36058 0,0.68898 3.15107,0.26315 4.30691,-0.58202 z M 190.3827,121.91955 c 2.17383,-3.57364 2.34315,-4.66591 0.72332,-4.66591 -0.66325,0 -1.78825,-0.44046 -2.5,-0.9788 -1.94643,-1.4722 -2.13288,-1.31427 -2.99467,2.53659 -0.61578,2.75163 -0.61642,3.8937 -0.003,5.04022 1.13958,2.12933 2.68376,1.5044 4.77417,-1.9321 z m 10.50001,2.44962 c 0.40372,-0.48645 1.19449,-1.98645 1.75725,-3.33333 l 1.0232,-2.44887 h -2.92561 c -2.73462,0 -2.95244,0.13414 -3.33653,2.05458 -0.70008,3.50039 1.61406,5.97799 3.48169,3.72762 z m 7.25311,-3.2822 c 0.70868,-0.90325 2.84278,-6.97454 2.84278,-8.08739 0,-0.37576 -1.2,0.48857 -2.66666,1.92073 -1.77529,1.73352 -2.66667,3.1901 -2.66667,4.35752 0,2.58559 1.19839,3.4561 2.49055,1.80914 z m -10.84957,-7.5611 c 0.56554,-3.77132 0.12215,-4.37049 -1.25849,-1.70062 -1.2965,2.50714 -1.35561,4.76172 -0.12485,4.76172 0.5871,0 1.09176,-1.1167 1.38334,-3.0611 z m 8.65042,-1.78007 c 0.93135,-3.24722 1.09015,-4.71061 0.56787,-5.2329 -1.07916,-1.07916 -3.0206,-0.19195 -4.52594,2.06828 -0.73333,1.10108 -1.67083,2.00282 -2.08333,2.00387 -0.4125,0.001 -0.9375,0.93942 -1.16667,2.08526 -0.77526,3.8763 -0.68061,4.00666 2.74924,3.78652 l 3.16591,-0.20319 z m -12.71698,3.17451 c 0.42899,-1.11796 0.31906,-1.17311 -1.18656,-0.59534 -1.30246,0.4998 -1.38888,1.59534 -0.12586,1.59534 0.51078,0 1.10136,-0.45 1.31242,-1 z m -0.38024,-2.7326 c 1.74962,-1.14639 4.45188,-6.55539 3.80107,-7.60843 -1.37191,-2.21978 -8.03081,1.23956 -8.99767,4.67436 -1.17968,4.19081 -0.94688,4.88986 1.46757,4.40697 1.1725,-0.2345 2.85056,-0.8973 3.72903,-1.4729 z m -6.9764,-0.8563 c 0.21144,-1.05722 0.57122,-2.66641 0.7995,-3.57597 0.32105,-1.27914 0.1223,-1.7303 -0.87744,-1.99173 -0.85707,-0.22413 -1.44726,-1.16292 -1.75187,-2.7866 l -0.45936,-2.4486 -2.01545,1.6959 c -1.10851,0.93274 -2.59244,1.69589 -3.29765,1.69589 -1.56897,0 -1.61217,1.11552 -0.18666,4.81984 1.34585,3.49732 2.53503,4.5135 5.2819,4.5135 1.80601,0 2.17992,-0.28669 2.50703,-1.92223 z m 23.05849,-3.07777 -0.0367,-1.33334 -0.57295,1.33334 c -0.31513,0.73333 -0.58945,1.78333 -0.6096,2.33333 -0.0326,0.88889 0.0351,0.88889 0.6096,0 0.35544,-0.55 0.62976,-1.6 0.6096,-2.33333 z m 2.71352,-2.83334 c 0.008,-2.10432 -0.25247,-2.83333 -1.01071,-2.83333 -1.40767,0 -2.01728,1.91865 -1.08429,3.4126 0.42453,0.67979 0.77647,1.91505 0.78208,2.74502 0.008,1.21881 0.1345,1.31672 0.65646,0.50905 0.35544,-0.55 0.65085,-2.275 0.65646,-3.83334 z m -6.22373,-0.83333 h 1.71211 l -0.23909,-9.499996 c -0.20401,-8.10626 -0.0924,-9.5 0.76092,-9.5 0.70606,0 0.94789,0.58789 0.82274,2 -0.22991,2.59401 -0.13079,13.914166 0.12406,14.169016 0.10763,0.10763 0.65755,0.0185 1.22203,-0.19814 1.22277,-0.46922 1.947,-4.299006 1.02904,-5.441676 -0.3553,-0.44227 -0.48006,-1.0726 -0.27726,-1.40074 0.2028,-0.32813 0.0344,-2.39452 -0.37429,-4.59197 -0.88286,-4.74734 -0.34687,-7.85843 1.24842,-7.24626 0.94907,0.36419 1.02596,-0.1888 0.66935,-4.81332 -0.2216,-2.87363 -1.19076,-8.20651 -2.1537,-11.85084 -0.96293,-3.64435 -2.62067,-12.17607 -3.68386,-18.959406 -1.69478,-10.813001 -2.23094,-12.908594 -4.34944,-17 -3.89769,-7.527467 -10.94593,-23.8851555 -10.9157,-25.3333355 0.0357,-1.71046 1.73957,1.35564 4.72357,8.5000015 1.18688,2.841667 2.32831,5.164014 2.5365,5.160774 0.2082,-0.0033 1.57854,-3.029801 3.0452,-6.725681 2.49812,-6.2950475 3.35355,-7.8037745 4.0371,-7.1202205 0.15495,0.154946 -1.21544,3.909193 -3.04531,8.3427745 l -3.32703,8.061053 3.39853,6.990054 c 2.75768,5.671973 3.588,8.228406 4.40336,13.557313 0.55266,3.612 1.12421,6.967993 1.27011,7.457767 0.1459,0.48978 2.6991,-2.51022 5.67377,-6.666667 2.97466,-4.15644 8.33688,-11.307167 11.91604,-15.8905 9.45671,-12.109934 14.13288,-18.8096485 13.5332,-19.3894745 -0.88244,-0.853234 -16.24858,-3.85716 -24.97072,-4.881534 -12.97056,-1.52332699 -23.40306,-1.85786699 -34.43371,-1.10418 -9.71602,0.663854 -23.80385,2.4332 -24.93376,3.131527 -0.56621,0.349933 0.41655,1.631187 10.04818,13.1001545 9.10375,10.840387 11.6582,14.306446 14.10854,19.143507 3.18147,6.280313 3.0002,8.167553 -1.63308,17.001863 -3.77293,7.19389 -3.83738,7.40852 -3.50228,11.66344 1.13172,14.36977 1.87207,19.07019 3.47959,22.09159 2.16838,4.07554 2.14845,7.64724 -0.0609,10.9028 -1.92866,2.842036 -1.73558,4.340306 0.55932,4.340306 2.07678,0 4.83899,-2.983886 6.18014,-6.676106 0.88716,-2.44242 1.0077,-4.49633 0.6576,-11.20576 -0.23576,-4.51836 -0.70146,-8.93274 -1.0349,-9.80974 -0.37644,-0.99012 -0.36272,-1.74502 0.0362,-1.99157 0.88622,-0.54771 1.60028,1.62845 2.93208,8.93582 0.62677,3.43895 1.45186,7.03895 1.83353,8 0.38167,0.96105 0.64806,4.67236 0.59197,8.24736 -0.0997,6.352796 0.20312,7.312586 1.80246,5.713246 0.43271,-0.43272 2.05534,-0.95772 3.60584,-1.16667 l 2.8191,-0.37991 0.81411,-6.488076 c 0.87275,-6.95515 1.16118,-7.84526 2.54225,-7.84526 1.54919,0 1.75129,2.05358 0.39021,3.96504 -1.955,2.74554 -2.78545,10.810416 -1.41147,13.707356 l 1.05324,2.22067 1.52698,-1.6132 c 0.84369,-0.89133 2.29311,-1.6132 3.23908,-1.6132 z m -6.43273,2 c 0,-0.36667 -0.13229,-0.66667 -0.29399,-0.66667 -0.16169,0 -0.4794,0.3 -0.70601,0.66667 -0.22661,0.36667 -0.0943,0.66667 0.29399,0.66667 0.3883,0 0.70601,-0.3 0.70601,-0.66667 z m 14.8,-2.8 c -0.62222,-0.62222 -0.8,-0.44445 -0.8,0.8 0,1.24445 0.17778,1.42222 0.8,0.8 0.62222,-0.62222 0.62222,-0.97778 0,-1.6 z m 4.53334,-0.42345 c 0,-1.00368 -1.62654,-2.10988 -3.10233,-2.10988 -1.47039,0 -1.4786,0.0413 -0.38621,1.94472 0.89392,1.55757 1.35226,1.81833 2.30232,1.30987 0.65242,-0.34916 1.18622,-0.86428 1.18622,-1.14471 z m -30.75576,-7.443216 c 0.0377,-2.75 -0.22214,-5.45 -0.57758,-6 -0.48017,-0.743 -0.64887,-0.35201 -0.65646,1.52142 -0.005,1.38677 -0.43955,3.54898 -0.96431,4.80491 -0.91222,2.18323 -0.53132,5.793946 0.84466,8.007006 0.64727,1.04103 1.2783,-2.84359 1.35369,-8.333336 z m -10.94871,1.185 c 1.50702,-2.15159 1.27366,-5.87615 -0.5875,-9.37652 -1.24051,-2.33306 -1.79369,-4.8425 -2.33652,-10.59929 -0.39118,-4.14839 -0.94184,-8.38817 -1.2237,-9.42175 -0.492,-1.80412 -0.59695,-1.69753 -2.62569,2.66666 -1.52125,3.27248 -2.31771,6.29519 -2.84325,10.79054 -0.78084,6.67914 -0.56659,7.53432 2.70803,10.80894 0.71377,0.71376 1.77628,2.4937 2.36115,3.95542 1.21809,3.04432 2.92895,3.48676 4.54748,1.176 z m 35.5153,-9.685 c -0.15275,-1.00833 -0.27773,-0.18333 -0.27773,1.83334 0,2.01666 0.12498,2.84166 0.27773,1.83333 0.15275,-1.00833 0.15275,-2.65833 0,-3.66667 z"
       id="path255" />
  </g>
</svg>
