<?xml version="1.0" encoding="UTF-8" standalone="no"?>
<svg
   xmlns:dc="http://purl.org/dc/elements/1.1/"
   xmlns:cc="http://creativecommons.org/ns#"
   xmlns:rdf="http://www.w3.org/1999/02/22-rdf-syntax-ns#"
   xmlns:svg="http://www.w3.org/2000/svg"
   xmlns="http://www.w3.org/2000/svg"
   xmlns:sodipodi="http://sodipodi.sourceforge.net/DTD/sodipodi-0.dtd"
   xmlns:inkscape="http://www.inkscape.org/namespaces/inkscape"
   inkscape:version="1.0 (4035a4f, 2020-05-01)"
   inkscape:export-ydpi="96"
   inkscape:export-xdpi="96"
   inkscape:export-filename="/Users/micaylalyons/Desktop/ornaments/4/circle1.svg.png"
   sodipodi:docname="circle.svg"
   viewBox="0 0 388.86594 384.52915"
   height="384.52914"
   width="388.86594"
   id="svg72"
   version="1.1">
  <metadata
     id="metadata78">
    <rdf:RDF>
      <cc:Work
         rdf:about="">
        <dc:format>image/svg+xml</dc:format>
        <dc:type
           rdf:resource="http://purl.org/dc/dcmitype/StillImage" />
        <dc:title />
      </cc:Work>
    </rdf:RDF>
  </metadata>
  <defs
     id="defs76">
    <clipPath
       id="clipPath88"
       clipPathUnits="userSpaceOnUse">
      <rect
         y="66.49752"
         x="86.735901"
         height="384.52914"
         width="388.86594"
         id="rect90"
         style="fill:none;stroke:#000000;stroke-width:1.65921" />
    </clipPath>
  </defs>
  <sodipodi:namedview
     inkscape:current-layer="g80"
     inkscape:window-maximized="0"
     inkscape:window-y="25"
     inkscape:window-x="0"
     inkscape:cy="240.16332"
     inkscape:cx="239.14311"
     inkscape:zoom="0.6917551"
     fit-margin-bottom="0"
     fit-margin-right="0"
     fit-margin-left="0"
     fit-margin-top="0"
     showgrid="false"
     id="namedview74"
     inkscape:window-height="749"
     inkscape:window-width="1440"
     inkscape:pageshadow="2"
     inkscape:pageopacity="0"
     guidetolerance="10"
     gridtolerance="10"
     objecttolerance="10"
     borderopacity="1"
     bordercolor="#666666"
     pagecolor="#ffffff"
     inkscape:document-rotation="0" />
  <g
     id="g80"
     inkscape:label="Image"
     inkscape:groupmode="layer">
    <path
       id="path18"
       d="m 54.764105,499.66918 c 78.008335,-0.0934 205.658345,-0.0934 283.666675,0 78.00834,0.0934 14.18334,0.16975 -141.83334,0.16975 -156.016669,0 -219.841672,-0.0764 -141.833335,-0.16975 z M 183.93078,383.43123 c -15.61442,-0.77654 -32.32418,-3.89048 -47.9043,-8.9272 C 84.262679,357.76991 40.532771,318.08728 19.213743,268.50249 -7.4259111,206.54273 0.35316925,136.03952 39.846684,81.502486 71.408826,37.917978 118.93608,10.17393 173.59744,3.4254429 c 8.79468,-1.0857867 33.4354,-1.1027734 42.66667,-0.0294 57.47914,6.6833871 107.83278,37.5457211 139.3998,85.4397831 28.10205,42.636934 37.77472,94.871324 26.85085,145.000004 -12.4295,57.03782 -51.29474,105.70307 -104.91731,131.37251 -29.07157,13.91675 -59.84985,19.90467 -93.66667,18.22289 z m 27.13035,-1.31351 c 38.14578,-3.209 73.49362,-17.35589 104.20299,-41.70404 7.77784,-6.16672 24.03936,-22.5728 29.97804,-30.24452 21.72821,-28.06899 34.96692,-59.94044 39.46093,-95 1.28635,-10.0353 1.08074,-36.77008 -0.3589,-46.66667 C 379.95852,138.3538 370.2397,112.53042 354.2356,88.502486 335.74184,60.736652 311.36924,39.134578 281.59745,24.12139 259.30703,12.88087 237.00738,6.4434363 212.31918,4.1222296 201.89614,3.1422495 178.44337,3.6663629 168.93078,5.0918563 107.74585,14.260643 56.817745,49.539971 27.349544,103.16915 1.708176,149.8339 -2.4209042,207.8228 16.281183,258.6135 c 6.542054,17.76675 19.277594,39.80174 31.784235,54.99297 11.571047,14.05481 30.063934,30.20061 46.198688,40.33523 34.281984,21.53332 76.032924,31.60529 116.797024,28.17602 z m 2.86965,-17.72312 c -11.27214,-1.16828 -23.06672,-5.21988 -27.21429,-9.34851 -0.48452,-0.48231 -1.10648,-0.87693 -1.38212,-0.87693 -0.27565,0 -2.68447,-2.175 -5.35295,-4.83333 -6.16229,-6.13887 -6.71731,-6.77695 -6.71731,-7.72259 0,-0.42758 -0.25829,-0.77741 -0.57397,-0.77741 -0.6316,0 -6.0927,-7.70641 -6.0927,-8.59769 0,-0.30571 -0.55532,-1.27129 -1.23405,-2.14574 -0.67873,-0.87444 -2.363,-4.99332 -3.74283,-9.15306 -2.44675,-7.37617 -2.55222,-7.55398 -4.26595,-7.19161 -7.27486,1.53826 -13.52367,1.94469 -17.21805,1.11987 -5.45555,-1.21801 -18.55461,-8.1482 -27.20579,-14.39348 -6.22448,-4.49346 -26.999997,-23.74602 -26.999997,-25.02076 0,-0.21657 -1.725,-2.17159 -3.833334,-4.3445 -2.108333,-2.17291 -5.033333,-5.33672 -6.5,-7.0307 -7.009307,-8.09565 -10.082807,-11.60471 -11,-12.55885 -2.018341,-2.09966 -5.333334,-6.56004 -5.333334,-7.1761 0,-0.34874 -0.56904,-1.14904 -1.264527,-1.77845 -2.98454,-2.70097 -3.618033,-12.13908 -1.167933,-17.40045 1.45324,-3.12072 5.674593,-7.66182 7.122327,-7.66182 0.353907,0 0.643467,-0.24521 0.643467,-0.54492 0,-0.29971 -1.725001,-1.08488 -3.833334,-1.74484 -17.289294,-5.41196 -38.460102,-22.25995 -42.554842,-33.86567 -0.79816,-2.26222 -0.766053,-2.56018 0.33958,-3.1519 0.671587,-0.35942 4.266021,-0.94 7.987634,-1.29018 6.046314,-0.5689 7.29336,-0.9258 11.715694,-3.35292 2.72202,-1.49393 5.24304,-2.71624 5.602273,-2.71624 0.8842,0 1.587074,2.39334 1.125774,3.83334 -1.047667,3.27044 -12.552247,8.48541 -17.559981,7.95986 -1.564127,-0.16415 -2.98972,-0.0625 -3.16798,0.22598 -0.6244,1.0103 9.563074,12.49423 13.725934,15.4727 5.9038,4.2241 7.56432,5.29312 12.02218,7.73973 7.713627,4.23349 12.473861,5.54382 20.263734,5.57793 12.302441,0.0539 23.215075,-4.4632 31.995955,-13.24408 5.80327,-5.80328 15.77737,-21.9903 16.70623,-27.11264 0.25178,-1.38845 -0.3557,-2.23274 -3.5246,-4.89854 -7.36045,-6.1919 -20.84425,-20.7536 -20.84425,-22.51054 0,-0.23708 -0.58182,-1.24391 -1.29294,-2.2374 -0.711114,-0.99348 -2.836787,-6.45634 -4.723707,-12.13967 -3.254047,-9.80104 -3.41042,-10.59038 -3.03566,-15.32324 0.44832,-5.66199 2.37386,-10.2063 5.191327,-12.25164 1.078453,-0.7829 3.299826,-1.43475 5.515587,-1.6185 3.168993,-0.26279 4.323593,-0.005 7.919063,1.76452 14.97954,7.3744 22.47241,22.49276 23.37226,47.15815 0.12164,3.33444 -0.0373,7.68444 -0.35316,9.66666 -1.44328,9.05698 -1.45191,8.9636 1.02978,11.14255 2.52282,2.21507 24.94293,13.78491 25.54527,13.18257 0.20876,-0.20876 -0.1186,-0.93002 -0.72746,-1.60281 -0.60886,-0.67279 -1.10702,-1.476 -1.10702,-1.78493 0,-0.30892 -0.43811,-1.04578 -0.97357,-1.63746 -0.53546,-0.59167 -1.91581,-2.8415 -3.06745,-4.99962 -4.1101,-7.70217 -3.06822,-16.82818 2.47707,-21.69701 6.19434,-5.43871 14.26161,-7.02088 32.56395,-6.38655 6.96666,0.24146 14.01666,0.55958 15.66666,0.70693 24.41677,2.18054 43.20085,1.91324 51.21115,-0.72875 1.7172,-0.56636 6.0543,-2.38551 9.638,-4.04254 11.22801,-5.19161 14.57904,-4.45785 10.33164,2.26227 -2.83148,4.47989 -11.0617,12.40122 -15.46928,14.8887 -2.0413,1.15204 -3.86433,2.34197 -4.05117,2.64428 -0.18683,0.30231 0.41603,1.14411 1.33971,1.87068 1.81976,1.43143 3.66662,5.8537 3.66662,8.77965 0,2.25166 -2.007,4.90626 -4.4774,5.92214 -1.02076,0.41975 -5.00593,1.4786 -8.85593,2.35301 -4.33521,0.9846 -6.93163,1.88526 -6.82039,2.36589 0.0988,0.42684 0.54412,2.13888 0.98961,3.80454 0.76356,2.85486 0.72098,3.10056 -0.74272,4.28579 -3.85582,3.12225 -11.52523,3.3009 -18.62343,0.43381 l -4.09805,-1.65527 0.12106,4.08485 c 0.14167,4.78057 -0.22797,5.56279 -3.21939,6.81268 -4.59268,1.91895 -11.30027,0.76259 -19.60559,-3.37993 -2.38394,-1.18906 -5.23444,-2.37654 -6.33444,-2.63885 -3.6842,-0.87854 -0.84816,0.73498 6.33334,3.60325 3.85,1.53767 9.55,3.93417 12.66666,5.32553 3.11667,1.39137 12.26667,5.45416 20.33334,9.02842 31.27054,13.85566 45.85828,22.43649 57.57854,33.86897 4.49803,4.38758 12.03815,13.54486 13.82363,16.78844 0.40454,0.73489 1.70882,3.08596 2.89842,5.2246 2.35866,4.2404 7.84405,19.8378 8.47968,24.11156 1.54435,10.38353 0.31797,24.90167 -2.58633,30.61744 -2.46281,4.84689 -8.48831,13.56458 -10.60887,15.34892 -2.77576,2.33565 -18.59598,11.733 -27.16982,16.13911 -7.28362,3.74307 -12.24921,5.45049 -22.11081,7.60282 -10.05496,2.19452 -23.24976,3.478 -29.30444,2.85048 z m 13.64334,-5.23555 c 15.62495,-1.82775 28.29619,-4.87769 33.42564,-8.04548 l 2.06899,-1.27774 -14.40232,-0.0259 c -14.81048,-0.0266 -23.03468,-0.8523 -36.73565,-3.68812 -11.81002,-2.44444 -16.50844,-3.94223 -16.88514,-5.38278 -0.51631,-1.97436 1.0577,-2.21608 6.77674,-1.04069 2.80962,0.57743 8.7084,1.79799 13.1084,2.71234 22.24216,4.62209 47.90305,3.91176 62.44933,-1.72868 10.90374,-4.22802 20.62826,-15.88709 23.22576,-27.84618 1.0788,-4.96683 1.3734,-17.49724 0.51724,-22 -1.06132,-5.58179 -5.23452,-18.13186 -6.62494,-19.92324 -0.67874,-0.87445 -1.23406,-1.86211 -1.23406,-2.1948 0,-0.3327 -0.31284,-0.96724 -0.69522,-1.4101 -0.38236,-0.44286 -1.67391,-2.35435 -2.8701,-4.24776 -8.28932,-13.12096 -29.17174,-29.18697 -51.10134,-39.31516 -16.93,-7.81912 -31.96233,-14.19383 -62.66667,-26.57488 -21.58177,-8.70251 -34.8026,-14.79223 -43.89536,-20.21887 -3.79245,-2.26337 -7.00519,-4.11522 -7.13943,-4.11522 -0.13425,0 -1.17758,2.025 -2.31853,4.5 -2.33978,5.07556 -3.4248,6.86393 -13.24654,21.83334 -11.809647,17.9992 -12.901967,21.00162 -11.39948,31.33333 0.42658,2.93334 0.92284,6.38334 1.102807,7.66667 0.179966,1.28333 1.072433,4.63579 1.983263,7.44991 2.1711,6.70784 2.10439,6.66082 24.26341,17.10284 8.32199,3.92158 18.56451,11.55087 18.62879,13.87592 0.0623,2.25467 -3.6048,1.24267 -9.97894,-2.75382 -1.28333,-0.80463 -3.68333,-2.2181 -5.33333,-3.14105 -1.65,-0.92295 -6,-3.41955 -9.66667,-5.54801 -3.66666,-2.12846 -10.64244,-5.80394 -15.50173,-8.16774 -8.3788,-4.07586 -9.07266,-4.2942 -13.435894,-4.22778 -4.5827,0.0698 -4.603707,0.0618 -5.3316,-2.02627 -0.401927,-1.15296 -0.730773,-2.19777 -0.730773,-2.32179 0,-0.12402 1.17074,-0.96454 2.60164,-1.86783 2.877987,-1.81679 5.67696,-6.81061 6.375193,-11.37438 0.382367,-2.49921 0.176114,-2.94543 -3.284426,-7.10584 -2.03082,-2.44154 -3.692407,-4.64006 -3.692407,-4.8856 0,-0.24553 -1.22448,-1.62291 -2.721067,-3.06083 -2.28866,-2.19894 -3.168347,-2.6144 -5.535774,-2.6144 -7.109253,0 -17.74316,9.30232 -17.74316,15.52135 0,2.06831 2.014113,7.96287 3.01096,8.81199 0.430467,0.36666 2.246493,2.61666 4.03562,5 1.789127,2.38333 3.807413,4.93333 4.48508,5.66666 0.67766,0.73334 1.885267,2.18332 2.68356,3.22219 0.798294,1.03887 2.201447,2.68887 3.118114,3.66667 0.916666,0.97779 2.758787,3.12781 4.093593,4.77781 4.31408,5.33276 20.654771,22.09113 26.652101,27.33333 7.70623,6.73595 21.02477,15.07538 27.79775,17.40563 11.51326,3.96114 20.02745,1.2989 24.61496,-7.69665 1.43103,-2.80607 1.74251,-4.39314 1.84605,-9.40595 0.16622,-8.0473 -1.3807,-17.25121 -3.30031,-19.63636 -0.75973,-0.94397 -4.30089,-9.71205 -5.38493,-13.33333 -0.2744,-0.91667 -0.71694,-1.81667 -0.98342,-2 -0.26648,-0.18334 -1.89942,-3.18334 -3.62876,-6.66667 -3.92212,-7.90016 -4.55504,-9.0254 -5.93295,-10.54798 -0.60915,-0.6731 -1.73658,-3.90017 -2.5054,-7.17125 -0.76882,-3.27109 -1.83052,-7.44744 -2.35932,-9.28077 -1.66665,-5.77813 -0.38023,-11.2721 2.82791,-12.0773 3.11322,-0.78136 4.53807,0.71956 6.5511,6.90089 1.60088,4.91573 1.807,6.39186 1.45224,10.40016 -0.2274,2.56922 -0.53416,4.79202 -0.6817,4.93956 -0.40722,0.40722 4.58904,14.71234 6.46256,18.50336 0.90604,1.83333 4.11678,10.83333 7.13498,20 3.0182,9.16666 5.8774,17.07814 6.3538,17.58106 0.72938,0.77 1.21806,0.6475 3.09462,-0.77571 8.44398,-6.40407 30.56294,-13.13869 43.15223,-13.13869 9.63497,0 27.35295,2.95702 28.46105,4.74996 0.74991,1.21339 -1.21469,1.99498 -4.11847,1.63848 l -2.73367,-0.3356 0.68955,2.5834 c 0.93496,3.50283 -0.29404,7.51607 -2.86157,9.34431 -6.41125,4.56522 -15.03156,4.29283 -21.31443,-0.6735 -3.80284,-3.00597 -4.68744,-5.46663 -3.08161,-8.57196 0.57705,-1.11589 1.67177,-2.36209 2.43272,-2.76934 2.07534,-1.11069 1.01868,-1.55985 -3.24061,-1.37751 -7.77119,0.3327 -21.03163,4.84343 -29.94068,10.18477 -8.07964,4.84407 -13.55934,12.5993 -14.09044,19.94171 -0.22014,3.04333 0.16911,5.17286 1.89913,10.38993 1.19681,3.60911 3.10585,8.1562 4.2423,10.10465 1.13646,1.94844 2.39293,4.12137 2.79215,4.82874 0.39922,0.70737 1.22422,1.83681 1.83333,2.50987 0.60912,0.67306 1.10748,1.57513 1.10748,2.00459 0,0.42946 0.26133,0.78084 0.58074,0.78084 0.3194,0 1.27222,1.00917 2.11738,2.2426 0.84516,1.23343 2.82724,3.10843 4.40462,4.16667 1.57737,1.05824 2.87454,2.14906 2.88261,2.42406 0.008,0.275 0.28399,0.5 0.61319,0.5 0.32918,0 2.62038,1.22832 5.09153,2.7296 11.68531,7.09907 18.21413,8.25737 35.28661,6.26029 z m 2.85666,-68.98258 c 2.49637,-1.52207 2.45133,-1.36885 1.24867,-4.24721 -1.17272,-2.80671 -4.08676,-4.08749 -7.92287,-3.48228 -4.1953,0.66188 -8.38768,2.91909 -9.5321,5.13214 -0.95432,1.84545 -0.92904,1.96826 0.51819,2.51794 2.74486,1.04254 4.12948,1.24983 8.85478,1.32561 3.57365,0.0573 5.17414,-0.23457 6.83333,-1.2462 z M 96.32304,245.67253 c -0.716993,-0.71699 -1.097634,0.28717 -0.59432,1.56788 0.472133,1.20138 0.507793,1.20346 0.741287,0.0433 0.134913,-0.67036 0.06878,-1.39536 -0.146967,-1.61111 z m 47.9524,-22.66989 c -0.22938,-4.52795 -0.92652,-6.71607 -1.72705,-5.42077 -0.29159,0.4718 -0.38258,1.62196 -0.20219,2.55589 0.29444,1.52433 0.63143,4.15451 0.8419,6.57075 0.0418,0.47997 0.34726,0.70503 0.67878,0.50014 0.33152,-0.20489 0.51538,-2.0976 0.40856,-4.20601 z m -51.144667,-7.63348 c 0.44,-0.44 0.8,-1.51022 0.8,-2.37826 0,-1.32937 -0.236547,-1.50529 -1.5,-1.11554 -0.825,0.25449 -2.382133,0.91195 -3.460293,1.46103 -1.864974,0.94977 -1.899301,1.04291 -0.705914,1.91554 1.54574,1.13027 3.79888,1.18455 4.866207,0.11723 z M 207.81877,194.27253 c 0.37604,-2.65605 -1.16881,-5.18593 -5.93863,-9.72529 -2.52316,-2.40126 -4.78022,-5.13346 -5.01567,-6.07158 -0.4007,-1.59654 -0.30564,-1.67735 1.48577,-1.26311 1.05263,0.24341 5.63201,2.38922 10.17641,4.76847 12.98003,6.7958 19.14586,8.38516 21.67744,5.58779 1.09021,-1.20466 1.07068,-1.34014 -0.39667,-2.75279 -0.84882,-0.81718 -4.87504,-3.06537 -8.94716,-4.99598 -5.2851,-2.5057 -7.50885,-3.91172 -7.77075,-4.91322 -0.20179,-0.77165 -0.11336,-1.5597 0.19651,-1.7512 0.30988,-0.19152 2.86309,0.1268 5.67382,0.70738 2.81073,0.58056 5.24822,0.91776 5.41666,0.74932 0.16844,-0.16844 -1.36595,-5.39227 -3.40975,-11.60852 l -3.716,-11.30226 -7.15999,-0.39968 c -3.93799,-0.21982 -11.80998,-0.74925 -17.49332,-1.17651 -5.68333,-0.42725 -14.69778,-0.65319 -20.03212,-0.50209 -8.63434,0.2446 -10.0611,0.45426 -13,1.91032 -3.81082,1.88806 -8.49546,8.13276 -9.15639,12.20563 -0.53222,3.27969 1.75699,9.99732 4.61485,13.54215 1.23218,1.52837 2.24489,3.02837 2.25046,3.33333 0.0165,0.90057 6.70916,5.60458 10.43842,7.33669 3.98417,1.85052 9.80267,2.76266 10.49342,1.64501 0.25594,-0.41413 -1.31128,-2.50949 -3.57653,-4.78178 -2.21766,-2.22455 -4.03211,-4.38549 -4.03211,-4.80208 0,-0.41659 -0.56242,-1.37677 -1.24983,-2.13374 -0.68741,-0.75697 -1.74203,-2.89261 -2.34359,-4.74587 -0.92162,-2.83928 -0.961,-3.73442 -0.25017,-5.68785 1.31293,-3.60807 2.82894,-5.3106 5.61255,-6.30308 5.0601,-1.80414 9.56785,-0.61545 14.33468,3.78004 1.94854,1.79675 2.83084,3.49051 4.40216,8.45095 1.90854,6.02492 1.938,6.3216 1.02176,10.28764 -0.5189,2.24609 -1.22488,4.60964 -1.56884,5.25234 -1.06326,1.98672 -0.7619,2.33059 3.87462,4.42114 6.22767,2.80798 6.1065,2.77556 9.83333,2.63101 2.94442,-0.1142 3.35916,-0.31169 3.55466,-1.69258 z m -20.30149,-11.43075 c 1.39704,-3.49157 1.36274,-4.53403 -0.29504,-8.96484 -2.28076,-6.09588 -8.76468,-10.44032 -12.5546,-8.41202 -3.21555,1.72091 -4.91712,8.13752 -2.51448,9.4821 0.61102,0.34195 1.11907,0.98182 1.12899,1.42193 0.0246,1.09237 4.08892,5.38178 7.74,8.16871 3.58033,2.73293 4.85637,2.39976 6.49513,-1.69588 z m 57.80827,-8.47566 c 1.68378,-0.74922 3.75922,-2.34218 4.61208,-3.53991 1.51832,-2.13229 1.52399,-2.19807 0.2719,-3.1552 -3.45188,-2.63869 -5.45472,-2.9661 -13.0284,-2.12975 -3.97939,0.43944 -8.74509,0.65391 -10.59044,0.4766 -2.85057,-0.27391 -3.31001,-0.16144 -3.05486,0.74778 2.41385,8.6016 2.44643,8.65598 5.33966,8.91098 6.61446,0.58301 13.41159,0.0415 16.45006,-1.3105 z M 122.03512,161.66916 c 0.0574,-1.375 0.19951,-3.4 0.31581,-4.5 0.20824,-1.96955 0.3265,-16.06666 0.15659,-18.66667 -0.16593,-2.53933 -5.43043,-18.00693 -6.66755,-19.58991 -0.68339,-0.87445 -1.24253,-1.89928 -1.24253,-2.27741 0,-0.76457 -0.51587,-1.37718 -5.05512,-6.0032 -6.10987,-6.22665 -12.263727,-7.76036 -15.701194,-3.91317 -2.604926,2.91542 -3.398586,6.56153 -2.981146,13.69557 0.383913,6.56099 2.172013,12.8458 4.306666,15.13708 0.725627,0.77888 1.509647,2.17445 1.742267,3.10128 0.232614,0.92683 1.3827,2.96275 2.555734,4.52428 1.173033,1.56153 2.582793,3.50155 3.132793,4.31116 2.23805,3.29445 8.43934,9.90749 10.96664,11.69481 3.33901,2.36136 7.35513,4.88016 7.86669,4.93378 0.275,0.0288 0.54696,-1.0726 0.60435,-2.4476 z m 110.06233,0.69618 c -0.825,-0.15891 -2.175,-0.15891 -3,0 -0.825,0.1589 -0.15,0.28891 1.5,0.28891 1.65,0 2.325,-0.13001 1.5,-0.28891 z m -7.80763,-3.54871 c 2.33429,-1.19547 3.68645,-1.33095 11.64439,-1.16667 l 9.00344,0.18586 5.30371,-3.30158 c 2.91705,-1.81588 6.2155,-4.16512 7.3299,-5.22055 l 2.02619,-1.91896 -2,0.37112 c -1.1,0.20412 -4.85,0.97767 -8.33334,1.71901 -6.80505,1.44828 -16.51831,2.36124 -24.83333,2.33411 -2.84167,-0.009 -5.16667,0.24455 -5.16667,0.56406 0,0.70782 2.03608,7.78613 2.23968,7.78613 0.0798,0 1.3335,-0.60864 2.78603,-1.35253 z m 66.13391,57.26856 c -1.49089,-0.83435 -1.49726,-2.97715 -0.0105,-3.54766 1.05064,-0.40317 2.85092,1.07707 2.85092,2.34408 0,1.10174 -1.72001,1.83057 -2.84038,1.20358 z m 1.50705,-1.5827 c 0,-0.55 -0.28229,-1 -0.62732,-1 -0.84065,0 -1.44273,1.04106 -0.91011,1.57368 0.75079,0.75079 1.53743,0.45726 1.53743,-0.57368 z m -30.44898,0.68757 c -2.62028,-1.85364 -3.20289,-5.15378 -3.18145,-18.0209 0.0227,-13.6164 1.01605,-18.79656 3.97639,-20.73625 2.07838,-1.3618 4.61479,-0.78547 6.02673,1.36941 1.60866,2.45514 2.26541,12.39232 1.59819,24.18202 -0.48637,8.59398 -0.81795,10.77659 -1.84772,12.16248 -1.49827,2.01642 -4.51872,2.49588 -6.57214,1.04324 z m 5.1208,-0.89102 c 1.33619,-1.08198 1.54945,-2.10821 2.11281,-10.16667 0.70528,-10.08845 0.2055,-22.76916 -0.99674,-25.29031 -0.95923,-2.01156 -3.81407,-2.55149 -5.35312,-1.01243 -2.09638,2.09637 -2.71758,6.40055 -2.74312,19.00619 -0.0267,13.1618 0.25756,15.28255 2.32531,17.3503 1.63189,1.63188 2.74565,1.6589 4.65486,0.11292 z m -4.48979,-1.93106 c -0.99684,-1.51898 -1.21692,-3.68627 -1.40476,-13.83333 -0.23704,-12.80525 0.42349,-18.10221 2.49061,-19.97293 1.35465,-1.22594 3.06068,-0.85152 3.76197,0.82565 0.76932,1.83983 1.17543,17.44009 0.65339,25.09907 -0.38866,5.70217 -0.74418,7.41032 -1.75209,8.41823 -1.69144,1.69144 -2.34862,1.59737 -3.74912,-0.53669 z m 3.71475,-0.93915 c 0.6808,-1.84038 1.00705,-25.55624 0.40665,-29.56003 -0.57813,-3.85526 -2.2322,-3.9162 -3.47339,-0.12796 -1.10925,3.38554 -1.33615,26.70834 -0.28469,29.26165 0.89704,2.17831 2.62215,2.39777 3.35143,0.42634 z m 7.88091,3.78925 c -0.20073,-0.52309 0.52552,-3.44809 1.6139,-6.5 1.64148,-4.60289 5.94174,-23.56642 5.94174,-26.20225 0,-0.41717 -0.38714,-1.28796 -0.86033,-1.93507 -0.82099,-1.12278 -0.95874,-1.12098 -3.0127,0.0393 -1.88815,1.06658 -2.23139,1.09307 -2.79613,0.21582 -0.97758,-1.51856 -0.84856,-1.77729 1.65906,-3.32709 2.47052,-1.52686 4.35965,-1.37908 6.5101,0.50927 0.85518,0.75094 1.16667,2.04038 1.16667,4.82947 0,5.6128 -3.64839,22.41775 -6.45453,29.73046 -0.28619,0.74579 0.41101,0.83899 3.70272,0.49493 3.47888,-0.36361 4.11861,-0.25888 4.5007,0.73684 0.68002,1.77211 -0.88828,2.33798 -6.5109,2.34925 -3.80477,0.008 -5.18778,-0.23069 -5.4603,-0.94087 z m 9.83445,-0.12025 c 2.05626,-0.78906 1.00994,-1.25886 -2.29387,-1.02995 -5.39958,0.37411 -5.50604,0.2202 -3.64087,-5.26361 1.99911,-5.87765 5.65593,-22.78702 5.65593,-26.15343 0,-2.88678 -1.85816,-5.14835 -4.23,-5.14835 -0.85984,0 -2.10634,0.6 -2.77,1.33333 -1.45229,1.60477 -0.0611,1.89689 1.65176,0.34682 0.96309,-0.87158 1.26046,-0.86717 2.5525,0.0378 1.07623,0.75382 1.46241,1.7043 1.46241,3.59933 0,3.92021 -3.15792,18.95463 -5.36752,25.55398 -1.08119,3.22919 -1.96581,6.15419 -1.96581,6.5 0,0.69039 7.2566,0.87215 8.94547,0.22407 z m 12.93633,-0.39337 c -0.15792,-0.84442 -0.24968,-9.61602 -0.2039,-19.49244 0.0733,-15.82123 0.21257,-18.03872 1.17068,-18.64308 0.59811,-0.37728 1.32686,-0.44625 1.61944,-0.15327 0.29259,0.29298 0.4737,9.28237 0.40246,19.97642 -0.12414,18.63867 -0.18276,19.45209 -1.41553,19.6457 -0.89732,0.14092 -1.37281,-0.26208 -1.57315,-1.33333 z m 2.08487,-18.20197 c 0.003,-11.95159 -0.23699,-19 -0.64746,-19 -0.41035,0 -0.65255,7.05187 -0.65255,19 0,11.84652 0.24377,19 0.64746,19 0.40358,0 0.64938,-7.15697 0.65255,-19 z m 13.04745,12.6008 c 0.23916,-3.88623 0.22937,-8.83623 -0.0217,-11 l -0.4566,-3.93413 h -3.62214 c -2.74416,0 -3.72397,-0.26539 -4.04226,-1.09486 -0.69979,-1.82362 1.83573,-16.29584 2.92848,-16.71516 2.00344,-0.76879 2.29592,0.85292 1.24128,6.88234 -1.37621,7.86754 -1.42403,7.59434 1.32926,7.59434 h 2.37042 l -0.12103,-7.04938 c -0.0771,-4.49221 0.15126,-7.32168 0.62959,-7.8 1.38361,-1.38362 1.92267,0.41052 2.3584,7.84938 0.49472,8.44624 0.48285,30.98066 -0.0167,31.78904 -0.18502,0.29936 -0.93835,0.5443 -1.67408,0.5443 -1.28234,0 -1.31969,-0.29232 -0.90284,-7.06587 z m 2.03593,-11.93413 c -0.20196,-8.06667 -0.37084,-15.94167 -0.37529,-17.5 -0.004,-1.55834 -0.30809,-2.83334 -0.67476,-2.83334 -0.40365,0 -0.66667,2.86512 -0.66667,7.26201 0,6.00701 -0.18224,7.33194 -1.05452,7.66667 -1.56017,0.59869 -4.81353,0.49082 -5.22392,-0.1732 -0.19643,-0.31783 0.0855,-3.09283 0.6264,-6.16667 1.13306,-6.43833 1.24123,-8.46699 0.40288,-7.55547 -0.70234,0.76364 -2.85339,14.41967 -2.35054,14.92252 0.19457,0.19457 2.1341,0.26553 4.31007,0.15769 l 3.9563,-0.19607 0.0573,11.54126 c 0.0422,8.49917 0.22898,11.0141 0.70863,9.54126 0.39145,-1.20199 0.50481,-7.85206 0.28413,-16.66666 z m 5.07234,17.16666 c 0.15172,-1.31857 0.58532,-1.83333 1.54428,-1.83333 0.95896,0 1.39256,0.51476 1.54428,1.83333 0.18286,1.5892 -0.0228,1.83334 -1.54428,1.83334 -1.5215,0 -1.72714,-0.24414 -1.54428,-1.83334 z m 2.54428,0.16667 c 0,-0.55 -0.45,-1 -1,-1 -1.04105,0 -1.32265,0.78847 -0.55556,1.55555 0.76709,0.7671 1.55556,0.4855 1.55556,-0.55555 z m 4.34297,1.0156 c -0.22131,-0.35809 0.63593,-3.73309 1.90497,-7.5 1.85931,-5.51902 5.75206,-22.85661 5.75206,-25.61861 0,-0.35318 -0.40348,-1.19394 -0.89661,-1.86834 -0.86955,-1.18918 -0.96094,-1.18818 -3.02819,0.033 -1.85698,1.09694 -2.21253,1.13114 -2.75986,0.26544 -0.95956,-1.51776 -0.82856,-1.77381 1.71034,-3.34294 2.07133,-1.28015 2.60288,-1.35693 4.35881,-0.6296 3.87112,1.60347 4.24847,4.8484 1.92743,16.57466 -1.19799,6.05248 -3.74086,15.60494 -5.08982,19.1203 -0.34432,0.89727 0.15009,0.97462 3.67844,0.57543 3.50899,-0.397 4.13774,-0.30085 4.51832,0.69091 0.26067,0.6793 0.0603,1.39386 -0.48838,1.74125 -1.26977,0.80401 -11.08668,0.76887 -11.58751,-0.0415 z m 10.65703,-0.68227 c 1.62118,-0.69664 1.03005,-0.81122 -3.48647,-0.67579 -1.91756,0.0575 -3.77282,-0.0724 -4.12279,-0.28873 -0.37478,-0.23162 0.038,-2.37492 1.00414,-5.21437 1.92245,-5.64979 5.60512,-22.85287 5.60512,-26.18352 0,-2.70496 -1.92822,-4.97092 -4.23001,-4.97092 -0.85984,0 -2.10633,0.6 -2.76999,1.33333 -1.4264,1.57616 -0.88799,1.7275 1.22358,0.34394 1.33949,-0.87766 1.67563,-0.8734 2.97655,0.0378 1.08052,0.75682 1.46653,1.70498 1.46653,3.60221 0,3.98626 -3.17594,19.04002 -5.36473,25.42851 -1.08273,3.16018 -1.9686,6.08518 -1.9686,6.5 0,0.89496 7.62695,0.96403 9.66667,0.0875 z m 7.47084,-0.62482 c -1.1678,-1.38784 -1.85425,-3.21054 -2.17451,-5.77376 -0.68731,-5.50105 0.0899,-24.11223 1.14997,-27.53755 1.74721,-5.6456 6.60256,-7.01721 9.04157,-2.55421 1.03308,1.89037 1.17303,4.01498 1.13217,17.18734 -0.0417,13.43563 -0.18314,15.31004 -1.33334,17.66666 -1.10262,2.25918 -1.63167,2.66519 -3.69802,2.83797 -1.99806,0.16707 -2.7038,-0.14596 -4.11784,-1.82645 z m 6.13306,0.0209 c 1.5788,-1.57879 2.22957,-7.71063 2.26451,-21.33699 0.0291,-11.3431 -0.7524,-15.1706 -3.22415,-15.79096 -4.83658,-1.21391 -5.87242,1.96061 -6.18308,18.94902 -0.26244,14.35207 0.0727,16.5805 2.77903,18.47606 1.84863,1.29482 2.83919,1.22738 4.36369,-0.29713 z m -4.19676,-1.08419 c -1.64176,-1.64176 -2.07643,-5.27874 -2.03255,-17.00677 0.0451,-12.04873 0.89046,-16.86489 3.17493,-18.0875 1.11232,-0.5953 1.56653,-0.47481 2.48476,0.65915 1.48808,1.8377 2.17986,14.17036 1.42363,25.37986 -0.46473,6.88867 -0.76321,8.40741 -1.80155,9.16666 -1.58159,1.15649 -1.99553,1.1423 -3.24922,-0.1114 z m 2.92242,-1.30736 c 1.01276,-1.2203 1.7095,-25.15409 0.8636,-29.66544 -0.70508,-3.76038 -2.29642,-4.29235 -3.5995,-1.20328 -1.32584,3.143 -1.33601,29.16761 -0.0121,30.7622 1.1299,1.36084 1.68895,1.38252 2.74794,0.10652 z m 8.30553,3.4869 c -0.17769,-0.46303 -0.24327,-9.38803 -0.14575,-19.83333 0.17262,-18.48791 0.21268,-18.99146 1.51066,-18.99146 1.2995,0 1.33781,0.50331 1.50992,19.83333 0.17447,19.5959 0.16025,19.83334 -1.18759,19.83334 -0.7503,0 -1.50956,-0.37885 -1.68724,-0.84189 z m 1.96771,-17.89528 c 0.13176,-9.67789 -0.004,-18.19616 -0.30143,-18.9295 -0.46997,-1.1583 -0.79512,5.93122 -0.87139,19 -0.0483,8.26484 0.27634,18.18256 0.58497,17.87394 0.19156,-0.19156 0.45609,-8.26656 0.58785,-17.94444 z m 9.73494,18.28354 c 0.003,-0.3005 1.05243,-4.69873 2.33334,-9.77384 2.82427,-11.19012 2.8283,-11.2566 0.64931,-10.70971 -2.39783,0.60181 -5.54382,-0.91651 -6.75599,-3.26057 -2.25428,-4.3593 -0.86967,-12.69999 2.39867,-14.44916 1.89486,-1.01409 4.86196,-0.83465 6.62568,0.4007 3.80638,2.6661 4.36194,9.73579 1.76779,22.49578 -2.27385,11.18454 -3.76583,15.36123 -5.58333,15.63013 -0.79193,0.11717 -1.43789,-0.0328 -1.43547,-0.33333 z m 4.72012,-9.99863 c 4.14186,-16.39994 3.83183,-25.20391 -0.9585,-27.21809 -2.788,-1.17226 -5.38452,-0.14681 -6.7121,2.65085 -1.89889,4.00163 -0.97568,10.96756 1.63903,12.36691 1.66501,0.89108 4.87106,0.8219 5.81852,-0.12556 1.61118,-1.61118 1.54703,1.35672 -0.19743,9.13475 -0.96968,4.32344 -2.03702,8.58142 -2.37188,9.46217 -0.33486,0.88075 -0.59972,2.10683 -0.58856,2.72463 0.0431,2.38829 1.43182,-1.31767 3.37092,-8.99566 z m -6.3534,-14.36275 c -0.64573,-0.92192 -1.0378,-2.92274 -1.0378,-5.29616 0,-3.03279 0.31814,-4.18435 1.55242,-5.61928 3.19479,-3.71417 7.39996,-0.23574 7.39996,6.1211 0,4.32292 -1.45782,6.276 -4.68456,6.276 -1.50962,0 -2.51535,-0.46134 -3.23002,-1.48167 z m 5.9244,-0.66666 c 1.22797,-1.75317 1.35399,-5.76164 0.25684,-8.16961 -0.9981,-2.19061 -3.60944,-2.91123 -5.1088,-1.40983 -1.38616,1.38806 -1.5074,8.37763 -0.17319,9.98526 1.27323,1.53415 3.80983,1.3293 5.02515,-0.40582 z M 61.960305,203.20476 c -1.278713,-1.54076 -2.021173,-11.38385 -0.929533,-12.3232 0.994773,-0.856 5.96936,-2.04572 8.553793,-2.04572 1.445654,0 3.874494,0.74858 5.761941,1.77586 2.601553,1.41594 3.4163,2.28806 4.020027,4.30311 0.62832,2.09716 0.574193,2.80654 -0.318074,4.16831 -2.238293,3.41607 -15.099247,6.51812 -17.088154,4.12164 z m -7.1962,-16.81855 c -0.825,-0.57549 -1.5,-1.60976 -1.5,-2.29837 0,-1.07357 0.52404,-1.25202 3.676767,-1.25202 2.880286,0 4.470626,-0.44802 7.34144,-2.06821 3.91968,-2.21213 5.246687,-2.20685 5.829853,0.0232 0.271174,1.03697 -0.1932,1.82799 -1.786606,3.04335 -4.44694,3.39184 -10.676887,4.56422 -13.561454,2.55206 z m 9.64034,-24.21639 c -0.411613,-1.574 -0.1445,-1.77422 4.0157,-3.0101 4.615754,-1.3712 8.781034,-4.25101 12.874034,-8.9009 4.51262,-5.1266 7.505941,-5.50756 8.301321,-1.05652 0.397046,2.22194 -0.171107,3.08376 -3.998061,6.06447 -8.165153,6.35964 -20.301354,10.31268 -21.192994,6.90305 z m 70.370915,-38.16733 c -1.82325,-2.3303 -0.94622,-7.82094 1.90219,-11.90859 0.66761,-0.95805 1.08746,-1.86829 0.93301,-2.02274 -0.7537,-0.75369 7.98001,-8.51089 12.98688,-11.534813 l 5.66667,-3.422414 0.15305,-5.63906 c 0.14849,-5.47074 0.12585,-5.564107 -0.75855,-3.128073 -0.50138,1.381046 -2.19639,3.931046 -3.76669,5.666667 -1.5703,1.735626 -2.94459,3.271326 -3.05398,3.41266 -0.10938,0.141333 -0.95825,-0.24058 -1.88636,-0.8487 -1.49101,-0.976954 -1.68747,-1.565214 -1.68747,-5.052821 V 85.57746 l -3.16667,1.404293 c -1.74166,0.772367 -4.50089,1.746073 -6.13161,2.1638 -2.1682,0.555413 -3.25684,1.28764 -4.0512,2.724887 -1.78308,3.226153 -6.69134,4.891233 -7.58136,2.571893 -0.63129,-1.64512 1.6618,-4.876793 4.0812,-5.75166 1.75826,-0.635793 2.18297,-1.152433 2.18297,-2.655447 0,-2.902393 -1.58588,-2.28452 -5.04935,1.96726 -1.71744,2.108334 -3.45892,3.833334 -3.86997,3.833334 -0.41918,0 -0.74735,-1.09796 -0.74735,-2.50044 0,-1.37524 -0.11963,-2.50024 -0.26584,-2.5 -0.14622,2.4e-4 -1.94237,1.38064 -3.99144,3.067546 -8.03364,6.613734 -12.0392,6.940187 -12.06584,0.983354 l -0.0102,-2.28288 -1.5,1.366233 c -4.4354,4.039867 -6.8395,3.30062 -6.335173,-1.948027 0.169753,-1.766633 0.84502,-3.79334 1.507953,-4.525873 1.423327,-1.57276 4.48648,-1.741254 5.67263,-0.312027 0.74368,0.896074 0.95225,0.857154 1.7861,-0.333333 0.51925,-0.74134 1.41658,-1.347887 1.99407,-1.347887 0.86065,0 0.96972,0.510913 0.60488,2.833334 -1.0835,6.897153 -1.08813,7.86584 -0.0395,8.268247 0.56394,0.2164 1.5628,-0.09292 2.21968,-0.687394 0.65688,-0.594467 1.40275,-1.080853 1.65748,-1.080853 0.83128,0 10.20866,-9.301501 10.24521,-10.162301 0.0625,-1.472313 0.84125,-5.0525 1.44359,-6.63676 0.32083,-0.843853 0.61927,-1.759273 0.6632,-2.034273 0.0439,-0.275 0.10216,-0.575 0.1294,-0.666667 0.0273,-0.09167 0.18115,-0.87954 0.342,-1.750833 0.33478,-1.81346 1.60926,-4.868334 4.16221,-9.976727 1.85976,-3.721321 5.38731,-7.213807 7.94625,-7.867267 6.77291,-1.729567 7.50539,5.663786 1.66061,16.761494 -1.34335,2.550673 -11.39183,14.231773 -12.96855,15.075607 -0.65563,0.350887 -1.19206,0.941553 -1.19206,1.3126 0,0.37104 1.16861,-0.264493 2.5969,-1.4123 3.55158,-2.854134 5.52784,-2.535867 6.35915,1.024093 0.34249,1.466667 0.68247,2.756654 0.75552,2.866634 0.29613,0.445866 8.69307,-2.730634 10.36456,-3.92084 0.988,-0.703521 2.30628,-1.279127 2.92951,-1.279127 1.01133,0 1.08239,0.573353 0.66103,5.333333 -0.27728,3.132474 -0.21984,5.333334 0.13922,5.333334 1.39005,0 4.13103,-3.9738 5.89172,-8.54166 1.84548,-4.787841 3.94396,-7.168141 4.66436,-5.290787 0.1882,0.490446 0.40876,3.80082 0.49012,7.356373 0.0813,3.55556 0.29792,6.464101 0.48125,6.463427 0.4379,-0.0013 11.34058,-8.26072 12.78928,-9.688274 0.61743,-0.608426 1.51743,-0.95874 2,-0.778473 1.04734,0.391247 -6.40949,7.812727 -7.84995,7.812727 -0.51664,0 -0.93934,0.249473 -0.93934,0.554393 0,0.304914 -1.45499,1.497187 -3.2333,2.649494 -3.02346,1.959133 -3.3052,2.386433 -4.34098,6.58372 -0.60922,2.46873 -2.19641,6.60146 -3.52708,9.18383 -2.67002,5.18158 -9.38312,13.22203 -12.29762,14.72918 -2.29331,1.18591 -6.87113,1.26424 -7.75644,0.13272 z m 6.50708,-2.2662 c 2.22606,-1.48492 6.64834,-5.71284 6.64834,-6.35616 0,-0.28513 0.99465,-2.09924 2.21033,-4.03136 2.86261,-4.54961 4.23899,-7.57552 5.01318,-11.0212 l 0.62587,-2.78551 -2.87814,1.980214 c -1.58298,1.089116 -3.22256,1.980216 -3.6435,1.980216 -0.42095,0 -3.08632,2.3492 -5.92306,5.22046 -4.06641,4.1159 -5.47898,6.07956 -6.67614,9.28074 -1.80882,4.83673 -1.46767,6.83213 1.16804,6.83213 0.99371,0 2.5485,-0.49479 3.45508,-1.09953 z M 128.93299,91.4989 c 0.52681,-0.8524 -0.0876,-0.8427 -1.71271,0.02707 -0.70923,0.379566 -1.28951,0.990126 -1.28951,1.356793 0,0.765653 2.34052,-0.313173 3.00222,-1.383833 z M 102.471,87.530926 c 1.26351,-1.70898 1.30207,-1.99606 0.37187,-2.76806 -0.87199,-0.723686 -1.21798,-0.6225 -2.16516,0.633207 -1.420677,1.883433 -1.764683,4.865953 -0.50551,4.382767 0.489,-0.187647 1.52346,-1.199207 2.2988,-2.247914 z m 29.37492,-12.398 c 3.53669,-4.150367 4.36877,-5.375954 6.31203,-9.297107 2.13889,-4.3159 3.20267,-9.892474 2.19737,-11.519081 -0.84511,-1.367426 -2.29995,-0.923346 -5.01711,1.53144 -2.76049,2.493934 -5.44863,7.392781 -6.76088,12.320974 -0.43936,1.65 -0.9607,3.45 -1.15853,4 -0.19783,0.55 -0.47269,1.75 -0.61079,2.666667 -0.13811,0.916667 -0.51749,2.46616 -0.84307,3.443327 -1.31094,3.93454 0.81749,2.795867 5.88098,-3.14622 z M 75.097439,98.115753 c -2.21064,-1.28758 -1.450567,-4.250053 1.831693,-7.139213 3.264527,-2.873554 6.947814,-4.91934 7.851421,-4.36088 0.74432,0.460013 -1.456387,2.886826 -2.617854,2.886826 -1.466526,0 -6.231927,4.714067 -6.231927,6.164801 0,1.17662 0.3097,1.294793 2.5,0.953926 1.932487,-0.300746 3.217387,-1.190726 5.660227,-3.92056 3.672454,-4.103907 6.506441,-9.473554 6.506441,-12.327954 0,-3.455253 -1.97434,-4.452673 -9.581627,-4.84056 -0.988827,-0.0504 0.952806,-1.952407 2.475166,-2.424633 2.741367,-0.850354 5.124201,-3.05044 6.445741,-5.951407 2.538586,-5.572547 1.23358,-9.063787 -2.58652,-6.91962 -3.681494,2.066373 -8.094861,10.417627 -13.097514,24.783961 -2.769374,7.95294 -4.212141,10.19182 -5.644641,8.75932 -0.47924,-0.47924 0.536407,-4.987067 3.295167,-14.625274 2.19336,-7.662874 4.185767,-15.251774 4.427567,-16.864221 l 0.439633,-2.931713 -2.086486,0.458273 c -2.160994,0.474634 -2.672894,-0.127933 -1.286487,-1.51434 1.047973,-1.047973 4.19118,-1.027127 5.026447,0.03333 1.17072,1.486361 1.509373,4.293894 0.772806,6.406807 -1.02404,2.937567 -0.364913,4.178614 0.912481,1.718087 0.583,-1.122973 2.4295,-3.56498 4.103333,-5.426687 4.337314,-4.824133 8.09536,-5.449587 9.684994,-1.611866 0.465146,1.12296 0.571,2.651986 0.263846,3.811166 -0.28212,1.064707 -0.549553,2.085827 -0.594293,2.26916 -0.417773,1.712001 -1.913233,4.269034 -3.66068,6.259274 -1.633773,1.86076 -1.859333,2.407393 -0.99338,2.407393 0.616187,0 2.034827,0.91448 3.152527,2.032181 1.763066,1.763066 1.985586,2.37956 1.68034,4.655333 -0.748627,5.581447 -6.575441,14.171147 -11.385774,16.784541 -2.361873,1.28318 -5.520014,1.48954 -7.262647,0.474546 z M 200.93078,96.387947 c -3.60468,-1.0124 -7,-5.651247 -7,-9.563701 0,-1.86568 4.33407,-6.434293 6.5089,-6.861127 3.2759,-0.642933 3.07028,0.72566 -0.37104,2.469507 -2.61925,1.327274 -3.45548,2.147334 -3.80297,3.729407 -1.05342,4.796213 4.02622,8.537714 10.40345,7.662854 4.55783,-0.625267 7.05416,-2.409354 7.93182,-5.668721 0.95722,-3.55482 0.1971,-5.85376 -3.62506,-10.9638 -3.57256,-4.776347 -4.57609,-8.184667 -3.63822,-12.356547 1.07663,-4.789174 4.79714,-7.538127 8.57814,-6.338087 1.99454,0.63304 1.63556,1.67142 -0.57784,1.67142 -1.05937,0 -2.63437,0.573493 -3.5,1.274433 -1.3328,1.07924 -1.57385,1.878007 -1.57385,5.215354 0,3.299027 0.32576,4.406587 2,6.7999 5.50271,7.86608 5.66667,8.207674 5.66667,11.806161 0,6.760693 -4.05482,10.73632 -11.44418,11.22066 -2.32237,0.15222 -4.82249,0.108253 -5.55582,-0.09771 z m 58.61387,-2.53914 c -0.71983,-1.098607 -1.00309,-2.665007 -0.8439,-4.666667 0.1318,-1.65714 0.12417,-3.012987 -0.0169,-3.012987 -0.14113,0 -2.24329,1.462187 -4.67147,3.249307 -10.48981,7.720407 -13.13434,7.25206 -11.49822,-2.036334 0.39965,-2.26888 0.57194,-4.279927 0.38287,-4.469 -0.18907,-0.18908 -2.11365,1.51618 -4.27683,3.78946 -5.35456,5.627101 -6.58836,5.409867 -4.92296,-0.866766 0.48644,-1.833334 0.888,-3.568887 0.89235,-3.856787 0.0153,-1.014427 -2.73039,0.95632 -3.34004,2.39732 -1.01033,2.388053 -5.77047,7.337647 -6.57725,6.839027 -1.5935,-0.984834 -0.10802,-11.486167 1.72424,-12.189274 1.14359,-0.438833 2.33355,1.06038 1.67572,2.111213 -0.2405,0.384174 -0.50328,1.1485 -0.58398,1.6985 -0.0807,0.550001 -0.31654,2.050001 -0.5241,3.333334 l -0.37738,2.333333 1.17202,-2.1115 c 1.79016,-3.2252 5.39216,-6.8885 6.7732,-6.8885 1.81653,0 2.92598,1.710273 2.59082,3.993894 -0.39389,2.683686 0.32614,2.527493 2.855,-0.619341 2.29012,-2.849733 3.4263,-3.534806 4.91502,-2.963533 1.39582,0.535627 1.51836,1.980647 0.64358,7.58898 -0.42894,2.75 -0.6771,5.113594 -0.55144,5.252427 0.39501,0.436474 7.08451,-3.991853 11.96068,-7.91776 2.57484,-2.07306 5.0102,-3.659647 5.4119,-3.525747 0.52652,0.175513 0.51565,1.305973 -0.0389,4.0506 -0.94487,4.675847 -0.94592,6.954441 -0.003,7.268627 0.39477,0.131594 3.38727,-2.047787 6.64998,-4.84306 5.15068,-4.412753 6.03931,-5.4909 6.74513,-8.1837 0.44711,-1.70576 1.57962,-5.328934 2.51668,-8.051487 0.93708,-2.72256 1.70377,-5.197561 1.70377,-5.500001 0,-0.91858 -2.27586,-0.615833 -3.89477,0.5181 -0.83864,0.587401 -1.71372,0.879067 -1.94464,0.648147 -0.82012,-0.82012 2.44163,-3.248893 4.89974,-3.648447 2.04224,-0.33196 2.60624,-0.769553 3.09772,-2.40344 1.24147,-4.127187 2.86284,-6.98244 3.96927,-6.989947 1.75366,-0.01187 1.881,0.829854 0.56887,3.76058 -2.36941,5.292247 -2.36849,5.565107 0.0187,5.565107 1.26452,0 2.48915,-0.476673 2.99731,-1.166666 0.81775,-1.11036 0.8812,-1.109947 1.31475,0.0085 0.7348,1.895634 -0.89832,3.15818 -4.08515,3.15818 -3.25982,0 -3.52981,0.311054 -5.69843,6.565147 -3.21002,9.257347 -4.89062,18.009848 -3.6889,19.211568 0.6624,0.6624 3.20484,-0.684847 7.59937,-4.026907 4.93397,-3.75232 5.07755,-3.95016 6.10786,-8.416474 2.7312,-11.83954 6.68268,-20.518367 11.31472,-24.851094 3.53896,-3.310287 4.99924,-3.761167 7.12947,-2.201313 1.0937,0.800853 1.29089,1.755746 1.27342,6.166666 -0.0114,2.870487 -0.41828,6.370261 -0.90425,7.777274 -0.79867,2.312394 -8.66038,12.065401 -12.28621,15.241914 l -1.45554,1.275173 1.45617,-0.704313 c 4.1515,-2.00796 5.33406,-0.186953 4.56177,7.024594 l -0.4675,4.365447 2.22478,-1.141147 c 1.22363,-0.627634 4.51875,-3.04886 7.32248,-5.380507 4.82059,-4.008914 6.56897,-4.983087 6.56897,-3.66014 0,0.318573 -2.76581,2.86562 -6.14624,5.660107 -10.88883,9.0014 -12.79772,9.021773 -12.6288,0.134773 0.0526,-2.7724 -0.0868,-5.040747 -0.30997,-5.040747 -0.79932,0 -5.27082,4.270134 -6.40527,6.11682 -1.74134,2.834601 -3.17647,2.460641 -3.17647,-0.82772 v -2.7109 l -4.0286,3.2109 c -6.06991,4.837881 -6.47272,5.063607 -8.24304,4.619287 -1.58632,-0.39814 -2.69068,-2.5582 -3.1912,-6.241753 -0.19547,-1.438574 -0.31036,-1.402054 -2.8043,0.891393 -2.93742,2.701287 -8.9193,6.941974 -9.7923,6.941974 -0.31706,0 -1.06408,-0.744154 -1.66002,-1.65368 z m 34.90748,-9.694701 c 0.78105,-1.25066 0.74436,-1.287353 -0.5063,-0.5063 -1.34344,0.838987 -1.80459,1.85468 -0.84208,1.85468 0.27846,0 0.88524,-0.606773 1.34838,-1.34838 z m 5.23936,-7.818287 c 6.90574,-6.6091 8.45196,-9.47074 9.37483,-17.3503 1.21392,-10.364628 -4.85391,-6.932427 -10.34281,5.8503 -2.73764,6.37548 -5.29216,16 -4.24669,16 0.28199,0 2.62859,-2.025 5.21467,-4.5 z m -37.98293,-0.611113 c -0.78919,-0.789187 -0.47213,-2.735614 0.50681,-3.111267 1.4794,-0.5677 2.74399,1.316347 1.71541,2.555714 -0.90308,1.088146 -1.53232,1.24546 -2.22222,0.555553 z"
       style="fill:#000000;stroke-width:0.666667" />
  </g>
</svg>
