<?xml version="1.0" encoding="UTF-8" standalone="no"?>
<svg
   xmlns:dc="http://purl.org/dc/elements/1.1/"
   xmlns:cc="http://creativecommons.org/ns#"
   xmlns:rdf="http://www.w3.org/1999/02/22-rdf-syntax-ns#"
   xmlns:svg="http://www.w3.org/2000/svg"
   xmlns="http://www.w3.org/2000/svg"
   xmlns:sodipodi="http://sodipodi.sourceforge.net/DTD/sodipodi-0.dtd"
   xmlns:inkscape="http://www.inkscape.org/namespaces/inkscape"
   inkscape:version="1.0 (4035a4f, 2020-05-01)"
   sodipodi:docname="50.svg"
   viewBox="0 0 358.15479 359.60599"
   height="359.60599"
   width="358.15479"
   id="svg9"
   version="1.1">
  <metadata
     id="metadata61">
    <rdf:RDF>
      <cc:Work
         rdf:about="">
        <dc:format>image/svg+xml</dc:format>
        <dc:type
           rdf:resource="http://purl.org/dc/dcmitype/StillImage" />
        <dc:title></dc:title>
      </cc:Work>
    </rdf:RDF>
  </metadata>
  <defs
     id="defs13">
    <clipPath
       id="clipPath203"
       clipPathUnits="userSpaceOnUse">
      <rect
         y="101.27341"
         x="112.68118"
         height="361.88751"
         width="361.23499"
         id="rect205"
         style="fill:none;stroke:#000000;stroke-width:1.81545" />
    </clipPath>
  </defs>
  <sodipodi:namedview
     inkscape:document-rotation="0"
     inkscape:current-layer="g15"
     inkscape:window-maximized="0"
     inkscape:window-y="25"
     inkscape:window-x="0"
     inkscape:window-height="847"
     inkscape:window-width="1312"
     inkscape:cy="204.85437"
     inkscape:cx="245.13082"
     inkscape:zoom="0.7200237"
     fit-margin-bottom="0"
     fit-margin-right="0"
     fit-margin-left="0"
     fit-margin-top="0"
     showgrid="false"
     inkscape:pagecheckerboard="0"
     inkscape:pageopacity="0.0"
     inkscape:pageshadow="2"
     borderopacity="1.0"
     bordercolor="#666666"
     pagecolor="#ffffff"
     id="namedview11" />
  <g
     id="g15"
     inkscape:label="Image"
     inkscape:groupmode="layer">
    <path
       id="path259"
       d="M 165.71876,359.13568 C 107.52561,354.58317 55.550205,322.26586 25.246565,271.79275 11.490735,248.88133 3.0075351,222.36052 0.53863512,194.54903 c -0.76498,-8.61732 -0.69886,-32.35607 0.0949,-34.08587 0.2524,-0.55 0.95939998,-4.39315 1.57112998,-8.54033 C 6.3911951,123.54025 18.272415,95.444285 36.301145,71.29362 44.214625,60.693 61.127455,43.84613 71.890635,35.84294 86.047515,25.3163 101.09207,17.06649 116.51511,11.37274 c 5.47106,-2.0197702 7.1805,-2.9602902 8,-4.4015602 1.19092,-2.09449 1.905,-2.28384 2.99439,-0.79401 0.68881,0.942 1.45029,0.87386 7.56989,-0.67737 60.03451,-15.21797 123.54831,1.6279 167.96801,44.5504302 22.13222,21.38625 37.43448,45.770162 46.69824,74.41293 6.15552,19.03234 8.40916,33.86161 8.40916,55.33333 0,16.8321 -0.81626,24.81613 -4.02134,39.33334 -13.63882,61.77637 -60.02539,112.59053 -120.39966,131.89182 -21.43676,6.85322 -46.26702,9.8154 -68.01508,8.11403 z m 33.75024,-1.67502 c 77.02705,-9.01033 139.27015,-66.11095 154.42246,-141.66417 1.95389,-9.74258 2.92843,-17.86622 3.66912,-30.58529 0.37625,-6.46091 0.32401,-6.88835 -0.78966,-6.461 -0.65592,0.2517 -4.76424,1.50545 -9.12962,2.78612 -8.37986,2.4584 -17.55368,6.39719 -29.09768,12.49315 -24.94734,13.17376 -33.29517,11.57666 -35.37973,-6.7688 -0.35816,-3.15209 -0.76573,-5.84559 -0.9057,-5.98556 -0.13996,-0.13996 -2.60491,1.38926 -5.47766,3.3983 -6.08086,4.25258 -12.00936,7.35359 -16.15935,8.45242 -2.59653,0.68751 -3.13635,0.6286 -4.66667,-0.50926 -2.37069,-1.76272 -2.74828,-6.23344 -0.75426,-8.93051 l 1.39702,-1.88957 h -5.02702 c -7.61017,0 -16.18666,2.17651 -25.34623,6.43227 -9.99241,4.64271 -18.00588,7.5472 -20.85475,7.55881 -3.02656,0.0123 -6.54495,-1.5799 -7.52097,-3.4036 -1.19414,-2.23128 -0.86992,-9.32024 0.68559,-14.99014 0.74623,-2.72005 1.35679,-5.20815 1.35679,-5.52911 0,-0.32096 -0.91781,-0.71827 -2.03958,-0.88291 -2.34182,-0.34371 -2.50683,-0.1074 -5.92247,8.48135 -2.21905,5.57988 -6.17489,13.17353 -7.90094,15.16667 -1.22596,1.41566 -2.71349,1.51072 -3.21439,0.20541 -0.20288,-0.52869 1.90297,-5.83226 4.67966,-11.78571 2.7767,-5.95345 4.97412,-10.89887 4.88317,-10.98982 -0.091,-0.091 -7.06239,0.39549 -15.49208,1.081 -8.42969,0.6855 -17.2027,1.39639 -19.49558,1.57977 -4.52948,0.36223 -5.49779,0.71251 -5.49779,1.9888 0,1.24518 -3.70321,4.79445 -6.27645,6.01553 -3.25972,1.54685 -8.19794,1.36622 -11.70993,-0.42832 -3.68799,-1.88447 -5.48029,-4.30949 -5.48029,-7.41495 0,-1.33011 -0.12658,-2.41838 -0.2813,-2.41838 -0.95981,0 -9.36498,4.24164 -12.04366,6.0778 -1.7646,1.20958 -6.41205,5.25395 -10.32766,8.98749 -4.752965,4.53196 -8.100015,7.16279 -10.069905,7.9151 -9.18162,3.50648 -11.4958,-2.62486 -9.48446,-25.12872 1.97238,-22.06787 2.00364,-23.10022 0.71469,-23.59484 -1.5889,-0.60972 -4.82311,2.71302 -8.31464,8.54223 -2.20811,3.68652 -3.63077,7.49712 -6.15917,16.49737 -8.19943,29.18731 -8.7735,30.70357 -11.62461,30.70357 -0.93331,0 -2.27624,-0.31003 -2.98427,-0.68896 -4.88067,-2.61205 -8.28363,-22.01998 -7.85756,-44.81359 l 0.23254,-12.43999 -1.66666,0.36344 c -5.43104,1.18436 -11.99746,3.87594 -25.33334,10.38416 -8.25,4.02619 -16.0874699,7.75968 -17.4166099,8.29666 l -2.4166,0.97631 -0.44837998,8.46099 c -1.02716,19.38235 2.43512998,43.88368 8.96769998,63.46098 18.8888099,56.6074 64.5745099,99.98318 121.8872649,115.72454 9.10575,2.50096 20.30198,4.67579 28.56971,5.54957 8.93719,0.94454 29.93231,0.79602 39.10191,-0.27661 z m -15.24498,-5.02521 c -5.41733,-1.03141 -6.52298,-1.39337 -10.12063,-3.31318 -5.29622,-2.82623 -7.8268,-5.09018 -11.16922,-9.99244 -3.13076,-4.59183 -5.82891,-12.84936 -5.37169,-16.43976 0.89621,-7.03752 1.14801,-8.22691 1.74173,-8.22691 0.36584,0 0.47163,-0.31314 0.23509,-0.69586 -0.23654,-0.38274 -0.0424,-1.163 0.43143,-1.73393 0.47383,-0.57093 0.92698,-1.4841 1.00699,-2.02927 0.08,-0.54517 0.57256,-1.4899 1.09455,-2.09941 0.522,-0.60951 1.11224,-1.57319 1.31166,-2.14153 0.63124,-1.799 13.24887,-12.02721 15.17342,-12.3 0.18333,-0.026 0.93333,-0.37409 1.66667,-0.77357 1.15442,-0.62887 3.04116,-0.73046 6.14321,-0.33077 0.44543,0.0574 1.15105,0.74184 1.56805,1.52101 0.84796,1.58441 0.0778,3.70706 -2.34756,6.47037 -0.75004,0.85454 -1.29229,1.75454 -1.20501,2 0.23403,0.65814 -0.55269,2.98496 -1.34277,3.97142 -1.07052,1.33662 -1.64028,10.41612 -0.89372,14.242 0.81778,4.19092 5.06704,13.26001 7.6058,16.23291 0.62627,0.73335 3.01366,2.95335 5.30533,4.93331 2.29167,1.97997 4.16667,3.94407 4.16667,4.36467 0,1.37864 -4.95496,5.62392 -7,5.99742 -4.29873,0.78512 -5.42631,0.83353 -8,0.34352 z m -56.63788,-5.9257 c -0.19098,-0.30901 -0.45657,-3.49271 -0.5902,-7.07489 -0.23511,-6.30254 -0.30845,-6.56894 -2.26915,-8.24237 -1.11442,-0.95113 -2.51519,-2.51199 -3.11284,-3.46857 -1.21066,-1.93774 -0.98891,-2.28289 2.65424,-4.13122 l 2.04419,-1.0371 -0.51751,-4.84338 c -0.48964,-4.5824 -0.0582,-6.58239 1.4201,-6.58239 0.27191,0 1.36018,1.275 2.41838,2.83333 1.0582,1.55834 2.449,3.4149 3.09066,4.12571 0.64167,0.71081 1.16667,1.53581 1.16667,1.83333 0,0.29753 1.05,0.54096 2.33333,0.54096 1.80247,0 2.33334,0.27302 2.33334,1.2 0,0.66 -0.30109,1.50109 -0.66909,1.86909 -0.44767,0.44767 -0.18692,1.99299 0.78797,4.66977 2.04836,5.62422 1.56399,6.4949 -3.41293,6.1349 -3.62733,-0.26237 -3.99865,-0.1599 -4.65711,1.28527 -0.39353,0.86371 -0.71551,3.62417 -0.71551,6.13435 0,3.39762 -0.2501,4.65995 -0.97865,4.93952 -0.53826,0.20655 -1.13491,0.12271 -1.32589,-0.18631 z m 8.59998,-16.21325 c -0.67137,-2.18414 -0.96425,-2.31072 -2.01657,-0.8716 -0.74542,1.01942 -0.76914,1.40491 -0.11216,1.82208 1.6492,1.04717 2.6108,0.61782 2.12873,-0.95048 z m -3.64534,-2.13986 c 1.15529,-1.8693 1.28342,-2.57202 0.67593,-3.70712 -0.48324,-0.90294 -1.26653,-1.32701 -2.20447,-1.19348 -1.16241,0.16548 -1.49733,0.7238 -1.66598,2.77723 -0.40091,4.88115 0.93948,5.77209 3.19452,2.12337 z m -6.21289,-2.81183 c -0.18546,-0.18546 -0.83641,-0.0578 -1.44655,0.28362 -1.02277,0.57237 -1.01366,0.71693 0.11667,1.85248 1.19194,1.19745 1.23213,1.18957 1.44654,-0.28361 0.12129,-0.83341 0.0688,-1.66703 -0.11666,-1.85249 z m 4.22946,-4.75423 c 0,-0.29658 -0.44046,-1.12158 -0.9788,-1.83333 -0.93754,-1.23953 -0.97969,-1.21679 -1,0.53925 -0.0138,1.1946 0.32719,1.83333 0.9788,1.83333 0.55,0 1,-0.24266 1,-0.53925 z m 82,8.50088 c 0,-0.69471 1.82458,-4.15165 4.50375,-8.53302 1.24601,-2.03765 1.28473,-2.43868 0.4324,-4.47859 -0.51488,-1.23229 -0.93615,-3.00017 -0.93615,-3.92861 0,-1.57266 0.21953,-1.68808 3.21075,-1.68808 h 3.21076 l 1.91182,-4 c 2.7497,-5.75304 4.03014,-5.4643 4.5205,1.01936 0.31468,4.1608 0.64474,5.24412 1.92956,6.33334 l 1.54994,1.31397 -1.53708,1.30355 c -0.88586,0.75128 -1.70188,2.37535 -1.92607,3.83334 -0.81073,5.27254 -2.23328,6.01564 -6.00654,3.13764 -1.24422,-0.94902 -2.69449,-1.5596 -3.22283,-1.35686 -0.52834,0.20274 -2.02288,2.02921 -3.3212,4.05881 -2.12342,3.31945 -4.31961,4.83717 -4.31961,2.98515 z m 14.15135,-8.89983 c 0.28082,-1.46897 0.17492,-1.54479 -1.2504,-0.89537 -1.20498,0.54903 -1.38912,0.91202 -0.81411,1.60487 1.09111,1.3147 1.7188,1.09899 2.06451,-0.7095 z m -1.45158,-2.74559 c 2.8069,-1.4515 2.38822,-4.31621 -0.63082,-4.31621 -0.43296,0 -2.73562,4.22769 -2.73562,5.02262 0,0.59891 1.41736,0.3015 3.36644,-0.70641 z m -4.76958,-5.02602 c -1.21278,-0.74954 -1.47432,-0.33791 -0.91167,1.43483 0.43615,1.37417 0.52617,1.39823 1.13843,0.30419 0.47898,-0.8559 0.41559,-1.34203 -0.22676,-1.73902 z m 6.72627,-2.79019 c -0.008,-1.21296 -0.13388,-1.30864 -0.65646,-0.5 -0.83528,1.29251 -0.83528,2 0,2 0.36667,0 0.66207,-0.675 0.65646,-1.5 z M 97.890675,298.0639 c 0,-0.38242 4.101275,-8.03463 5.577865,-10.40726 0.50908,-0.818 0.48059,-1.77258 -0.10091,-3.38066 -0.44566,-1.23245 -0.81028,-3.19452 -0.81028,-4.36015 0,-2.09561 0.0369,-2.11933 3.29656,-2.11933 h 3.29656 l 2.20344,-4.16412 c 3.21868,-6.08275 4.23528,-5.87568 4.75249,0.96804 0.34181,4.52288 0.6636,5.6959 1.76775,6.44406 1.71113,1.15943 1.71592,2.3387 0.0143,3.50404 -0.82677,0.56618 -1.5609,2.14768 -1.92698,4.15114 -0.32524,1.78008 -1.0664,3.71155 -1.64702,4.29216 -0.96309,0.96309 -1.31896,0.86656 -4.05868,-1.10096 -3.72267,-2.67342 -4.84735,-2.24876 -7.77282,2.93487 -1.36218,2.41364 -2.48002,3.63743 -3.322545,3.63743 -0.69833,0 -1.26969,-0.17967 -1.26969,-0.39926 z m 15.333335,-9.67206 c 0,-1.00697 -0.29856,-1.2901 -1.05452,-1 -0.57999,0.22256 -1.36672,0.40466 -1.7483,0.40466 -0.42007,0 -0.36636,0.39451 0.13616,1 1.20228,1.44867 2.66666,1.22645 2.66666,-0.40466 z m -1.74808,-2.93762 c 2.71416,-1.13405 3.24579,-3.16606 1.12524,-4.30094 -1.84037,-0.98493 -1.87722,-0.96357 -3.36361,1.94999 -1.97829,3.87779 -1.81823,4.0459 2.23837,2.35095 z m -4.05875,-4.32439 c 0.25863,-0.98899 0.0205,-1.33333 -0.92225,-1.33333 -1.23396,0 -1.72592,1.32278 -0.82647,2.22222 0.78573,0.78574 1.39129,0.47793 1.74872,-0.88889 z m 6.17607,-3.39142 c 0.24636,-0.39862 0.15424,-1.01844 -0.20472,-1.37739 -0.42573,-0.42574 -0.77786,-0.17377 -1.01283,0.72475 -0.37853,1.44753 0.45135,1.89237 1.21755,0.65264 z m 21.40854,6.94697 c -0.80044,-0.80044 -0.5169,-28.76542 0.29676,-29.26829 1.56114,-0.96484 1.90537,1.82927 1.91526,15.54607 0.008,11.36622 -0.16551,14.16667 -0.87868,14.16667 -0.4889,0 -1.0889,-0.2 -1.33334,-0.44445 z m 6.79608,-0.8314 c -1.54779,-1.25473 -1.57386,-1.4733 -1.57386,-13.19728 0,-10.29051 0.16171,-12.16804 1.18204,-13.72415 0.82755,-1.2621 1.75273,-1.80272 3.08504,-1.80272 3.45807,0 3.73292,1.05297 3.73292,14.30103 0,10.45444 -0.16014,12.33708 -1.18203,13.89588 -1.39182,2.1231 -3.06767,2.29158 -5.24411,0.52724 z m 3.9628,-14.83702 c -0.11183,-6.11208 -0.43332,-11.34209 -0.71444,-11.62223 -0.2811,-0.28014 -0.8811,-0.14015 -1.33333,0.31108 -1.20078,1.19818 -1.55976,22.46703 -0.40273,23.86117 0.74921,0.90274 0.94505,0.87919 1.74876,-0.21028 0.6978,-0.94591 0.8585,-3.77179 0.70174,-12.33974 z m 5.24096,15.16161 c -0.50836,-1.32476 1.3766,-2.82786 2.33916,-1.8653 0.92056,0.92057 0.23089,2.81656 -1.02453,2.81656 -0.52227,0 -1.11386,-0.42807 -1.31463,-0.95126 z m 7.23969,-0.36295 c -1.53696,-1.69832 -2.28662,-5.69567 -2.31657,-12.35246 -0.0305,-6.78996 1.07432,-13.64645 2.44266,-15.15846 1.4663,-1.62024 4.62261,-1.52443 5.52827,0.16781 2.10712,3.93718 1.26221,26.08193 -1.0599,27.7799 -1.69027,1.23596 -3.21153,1.09133 -4.59446,-0.43679 z m 3.86709,-6.40693 c 0.67913,-5.68396 0.18362,-18.81085 -0.74512,-19.73959 -0.46545,-0.46545 -0.96702,-0.18274 -1.57752,0.88915 -0.98496,1.72937 -1.311,20.55572 -0.39474,22.79369 0.97826,2.38939 2.16683,0.66464 2.71738,-3.94325 z m 6.6926,6.28872 c -1.49104,-1.64758 -0.2574,-3.29553 1.42301,-1.90091 1.85602,1.54036 2.67001,-0.2514 2.632,-5.79366 -0.0318,-4.63359 -0.18051,-5.17208 -1.7852,-6.46385 -1.74648,-1.4059 -1.74756,-1.4128 -0.46534,-2.98301 0.87455,-1.07098 1.2852,-2.60278 1.2852,-4.794 0,-3.47389 -0.80438,-4.56773 -2.39079,-3.25113 -1.68995,1.40253 -2.80664,-0.35622 -1.29013,-2.03194 2.71703,-3.00228 6.34759,-0.55763 6.34759,4.27418 0,1.62614 -0.29899,3.743 -0.66441,4.70414 -0.5013,1.31851 -0.40256,2.25389 0.40215,3.81004 1.53683,2.97191 1.62108,11.70383 0.13483,13.97389 -1.35634,2.07162 -3.97494,2.28387 -5.62891,0.45625 z m 9.31356,0.38761 c -0.48113,-1.25382 0.69863,-2.62111 1.71803,-1.99109 1.09886,0.67914 0.86895,3.0359 -0.29617,3.0359 -0.56151,0 -1.20135,-0.47017 -1.42186,-1.04481 z m 5.37714,0.11416 c -0.22995,-0.59924 0.35993,-3.55999 1.31083,-6.57944 2.37338,-7.53633 4.21478,-18.29661 3.28943,-19.22196 -0.50323,-0.50323 -1.11815,-0.45633 -2.10605,0.16062 -1.13306,0.70761 -1.55504,0.71113 -2.24526,0.0187 -0.68924,-0.6914 -0.5348,-1.09516 0.81669,-2.13515 0.91667,-0.70538 2.0553,-1.28918 2.5303,-1.29733 1.33573,-0.0229 4.13637,3.09902 4.13637,4.61092 0,1.9896 -3.21308,16.86579 -4.32114,20.00634 l -0.95305,2.70125 h 2.93108 c 2.73079,0 4.3542,0.8778 3.39583,1.83616 -0.22776,0.22777 -2.2035,0.54356 -4.39053,0.70176 -3.23939,0.23431 -4.0539,0.0857 -4.3945,-0.8019 z m 13.10283,-0.3655 c -1.85952,-1.85952 -2.24435,-4.94316 -1.9038,-15.25516 0.36452,-11.03795 1.29432,-13.65505 4.73282,-13.32147 3.4962,0.33918 4.06932,2.46419 3.94265,14.61843 -0.1048,10.05578 -0.68141,13.66922 -2.35057,14.73058 -1.36811,0.86992 -3.07743,0.5713 -4.4211,-0.77238 z m 3.69515,-2.87052 c 0.26887,-0.825 0.50423,-6.21986 0.52301,-11.98857 0.0351,-10.78418 -0.44639,-13.02292 -2.31694,-10.77208 -1.2283,1.47803 -1.7681,20.75418 -0.64021,22.86167 0.96903,1.81064 1.82267,1.77522 2.43414,-0.10102 z m 5.98689,3.58505 c -0.248,-0.40126 0.33169,-3.20691 1.2882,-6.23478 2.09543,-6.63323 4.08424,-17.78112 3.46165,-19.40358 -0.36901,-0.96162 -0.69865,-1.03741 -1.84461,-0.4241 -1.42,0.75995 -3.29114,0.4617 -3.29114,-0.5246 0,-0.29912 0.93112,-1.09387 2.06916,-1.76612 2.01814,-1.19216 2.11263,-1.18996 3.83333,0.0892 1.20006,0.89209 1.82773,2.04585 1.96292,3.60818 0.19894,2.29904 -2.47419,15.91441 -3.81817,19.44754 -1.14588,3.01233 -0.9407,3.32924 1.90808,2.94714 1.97576,-0.265 2.71902,-0.0988 3.01569,0.6743 0.21654,0.5643 0.23033,1.18937 0.0307,1.38905 -0.75102,0.75101 -8.16862,0.92133 -8.61577,0.19782 z m 11.32185,-0.62228 c -0.6359,-2.00355 -0.2045,-28.15576 0.47134,-28.57345 1.55014,-0.95804 1.88639,1.73547 1.89455,15.1765 0.007,12.04841 -0.1444,14.29934 -0.97552,14.4721 -0.54131,0.11252 -1.16698,-0.3713 -1.39037,-1.07515 z m -90.23452,-38.62944 c -0.40412,-1.07604 -0.64407,-7.33681 -0.58088,-15.15675 0.0928,-11.49087 0.25085,-13.3511 1.14878,-13.52471 1.43786,-0.27798 4.14272,5.64174 4.576,10.0148 0.0273,0.275 0.32317,0.5 0.6576,0.5 0.33444,0 0.80213,-1.14863 1.03932,-2.5525 0.56298,-3.33231 1.94123,-7.30278 2.85064,-8.21219 1.47538,-1.47539 2.92201,3.11294 2.82995,8.97589 -0.0471,3.0005 -0.0533,5.60546 -0.0138,5.7888 0.25457,1.18032 0.39937,14.48974 0.165,15.16666 -0.43287,1.25026 -2.67867,1.00284 -3.02558,-0.33333 -0.16659,-0.64167 -0.35113,-3.85599 -0.41009,-7.14295 -0.0589,-3.28694 -0.23164,-6.10072 -0.38374,-6.25281 -0.15209,-0.1521 -0.63592,0.51223 -1.07517,1.47627 -1.08231,2.37542 -1.65541,2.21434 -3.25129,-0.91384 -0.74824,-1.46667 -1.45125,-2.66667 -1.56226,-2.66667 -0.111,0 -0.14064,2.96931 -0.0659,6.59848 0.15633,7.58707 -0.18096,10.06819 -1.36872,10.06819 -0.46277,0 -1.15124,-0.825 -1.52994,-1.83334 z m 16.85977,0.49895 c -0.46637,-1.46939 -0.0411,-6.32935 0.94435,-10.79042 0.34929,-1.58135 0.7976,-4.29127 0.99624,-6.02203 0.57662,-5.02427 1.75811,-12.03178 2.13006,-12.6336 0.66394,-1.07427 1.57516,-0.52786 2.69122,1.61377 1.15832,2.22273 3.82046,15.14022 3.23987,15.72081 -0.17775,0.17775 -0.0553,0.65078 0.27211,1.05118 0.3274,0.40041 0.7674,2.22801 0.9778,4.06134 0.21038,1.83334 0.58098,4.19025 0.82354,5.23758 0.40158,1.73395 -0.36564,3.04826 -1.80118,3.08555 -0.59821,0.0155 -1.94034,-3.21769 -1.94034,-4.67434 0,-2.08877 -2.07084,-6.64879 -3.01942,-6.64879 -0.48106,0 -1.03369,0.825 -1.22808,1.83334 -0.19438,1.00833 -0.68949,3.55833 -1.10023,5.66666 -0.76635,3.93365 -2.16031,5.10027 -2.98594,2.49895 z m 16.44348,-0.49895 c -0.39885,-1.01754 -0.71294,-6.13476 -0.70586,-11.5 0.007,-5.31666 -0.14723,-10.97777 -0.34278,-12.58023 -0.48223,-3.95176 0.40783,-5.41977 3.28602,-5.41977 2.14031,0 2.43943,0.27565 4.30109,3.9636 2.55988,5.07108 2.11759,9.46204 -1.13653,11.28314 -1.05844,0.59233 -1.03441,0.88845 0.34151,4.2081 0.81404,1.96401 1.48007,3.94014 1.48007,4.39138 0,0.45125 0.24443,0.82045 0.54319,0.82045 1.08312,0 2.67595,4.36981 2.02004,5.54184 -1.07825,1.92673 -1.79621,1.28816 -4.5444,-4.04184 l -2.66396,-5.16667 0.091,4.39896 c 0.1229,5.93907 -1.17024,7.92573 -2.66941,4.10104 z m 4.80948,-20.92158 c 0.16696,-2.62482 -0.61019,-4.57842 -1.82131,-4.57842 -0.87001,0 -0.91098,3.23332 -0.0836,6.59643 0.53338,2.16805 1.7185,0.91256 1.90491,-2.01801 z m 9.91233,21.92158 c -1.50599,-1.88727 -2.79629,-5.14968 -2.42224,-6.12443 0.62379,-1.62557 1.63474,-1.23218 2.46135,0.95777 0.41521,1.1 0.98987,2 1.27704,2 0.28716,0 0.40996,-5.775 0.27288,-12.83334 -0.13709,-7.05833 -0.10572,-13.20833 0.0697,-13.66666 0.52143,-1.36232 1.20145,-0.96415 2.27714,1.33333 0.78502,1.67665 1.02639,4.92425 1.06729,14.35971 0.0501,11.5716 -0.0187,12.25966 -1.35002,13.5 -1.6211,1.51028 -2.71297,1.65184 -3.65315,0.47362 z m 10.92234,-3.95674 c -1.85664,-3.98908 -1.90381,-4.35527 -1.60906,-12.49306 0.24745,-6.83209 0.56531,-8.89264 1.71764,-11.13464 1.47553,-2.87083 2.50391,-3.58222 5.17843,-3.58222 2.13198,0 4.5235,4.50026 4.78278,9 0.37834,6.56622 0.33599,14.27282 -0.0909,16.5486 -0.69151,3.68608 -2.73205,5.78595 -5.61452,5.77779 -2.35041,-0.007 -2.53057,-0.17658 -4.36432,-4.11647 z m 6.41551,-1.54326 c 1.00986,-3.40852 0.67118,-17.08742 -0.49201,-19.87134 -0.56578,-1.3541 -1.30139,-2.46199 -1.63471,-2.46199 -1.41556,0 -2.37578,5.27308 -2.36727,13 0.0107,9.68411 0.47119,11.8364 2.46987,11.54328 0.9251,-0.13567 1.64119,-0.91751 2.02412,-2.20995 z m 9.18891,4.38014 c -0.37871,-0.70764 -0.70702,-5.73228 -0.72961,-11.16667 -0.0226,-5.43407 -0.0983,-11.64511 -0.16826,-13.8023 -0.14922,-4.60189 0.8727,-5.80265 4.00431,-4.70511 2.24773,0.78776 5.73171,6.59704 5.17401,8.62728 -0.20144,0.73333 -0.4628,2.02164 -0.58078,2.8629 -0.11799,0.84126 -0.90322,2.26266 -1.74497,3.15866 l -1.53045,1.62908 2.63276,5.84134 c 2.96988,6.58936 3.25206,8.50802 1.25128,8.50802 -0.944,0 -1.96716,-1.168 -3.50398,-4 l -2.17065,-4 0.11763,3.37976 c 0.16386,4.70789 -1.21248,6.54233 -2.75129,3.66704 z m 4.70829,-19.84089 c 0.29428,-3.85187 -0.32701,-6.20584 -1.638,-6.20602 -0.63941,-9e-5 -0.92106,5.39598 -0.46974,9.00011 0.10935,0.87331 2.02117,-1.66105 2.10774,-2.79409 z m 9.33323,19.28812 c -0.50885,-1.22847 -0.70176,-6.37602 -0.58088,-15.5 0.17855,-13.47719 0.20056,-13.66349 1.63861,-13.86818 1.45726,-0.20743 1.45766,-0.2039 1.51398,13.58628 0.031,7.58657 0.16484,13.97993 0.29743,14.20748 0.38248,0.65638 -0.82911,3.41372 -1.50001,3.41372 -0.334,0 -0.95011,-0.82769 -1.36913,-1.8393 z m 8.37043,0.006 c -0.71513,-1.40886 -0.91203,-4.99757 -0.85046,-15.5 l 0.0801,-13.66667 3.56189,-0.35767 c 3.03869,-0.30514 3.69817,-0.1631 4.48972,0.96701 1.14217,1.63066 0.27572,2.36539 -2.80722,2.38046 -1.69072,0.008 -2.14922,0.32548 -2.4051,1.66402 -0.35525,1.85836 1.0806,4.34618 2.50839,4.34618 0.51631,0 1.2438,0.57002 1.61665,1.2667 0.72821,1.36066 -0.1731,2.06664 -2.63846,2.06664 -1.12536,0 -1.21748,0.56444 -1.06648,6.53454 0.0909,3.594 0.38744,6.894 0.65896,7.33334 0.27152,0.43933 1.33924,0.79878 2.3727,0.79878 1.03346,0 2.25249,0.45 2.70895,1 1.41155,1.70081 -0.34864,3 -4.06451,3 -2.8586,0 -3.34276,-0.2131 -4.16516,-1.83333 z m 76.62531,-46.81915 c 2.16573,-0.72554 10.2377,-4.47012 17.9377,-8.32131 14.07778,-7.04106 27.1352,-11.79823 35.16667,-12.81216 l 3.16666,-0.39977 v -4.93341 c 0,-7.17035 -1.13537,-16.54252 -3.33718,-27.54757 C 342.38721,86.319351 302.80693,37.94549 248.39051,14.86198 238.0159,10.46106 238.11896,10.47237 237.57796,13.67453 c -0.29565,1.7499 -0.14834,3.14633 0.43206,4.09582 0.75326,1.23226 0.72186,1.55869 -0.21706,2.25648 -0.60376,0.4487 -1.56345,1.93043 -2.13266,3.29274 -1.22334,2.92787 -1.95551,3.06437 -4.089,0.76229 -1.82139,-1.96531 -3.3508,-1.57216 -5.26824,1.35422 -0.61038,0.93156 -1.55286,1.69374 -2.09441,1.69374 -1.68708,0 -1.29504,-0.9733 1.96874,-4.88769 1.45351,-1.74326 1.95342,-3.05226 1.99334,-5.21956 0.0521,-2.83108 0.0977,-2.88831 2.13896,-2.68434 1.69476,0.16935 2.40875,-0.2044 3.80943,-1.99413 l 1.72375,-2.20255 -1.47609,-0.5483802 c -3.95486,-1.46928 -19.75798,-5.25986 -27.4761,-6.59048 -7.60117,-1.31046 -11.00256,-1.49396 -27.66666,-1.49252 -20.71984,0.002 -27.41365,0.7474 -43.66667,4.86397 l -7.33334,1.85739 0.0255,3.3946602 c 0.0209,2.77107 0.327,3.64793 1.66666,4.77337 l 1.64114,1.37871 -1.53378,1.20412 c -0.88868,0.69768 -1.88715,2.59422 -2.37392,4.50911 -1.02218,4.02121 -2.7341,4.61921 -5.81125,2.02996 -1.84145,-1.54948 -2.15869,-1.61732 -3.48674,-0.74556 -0.80353,0.52745 -2.20471,2.32286 -3.11371,3.9898 -0.99982,1.83344 -2.11916,3.03078 -2.83334,3.03078 -0.64933,0 -1.1806,-0.13982 -1.1806,-0.31071 0,-0.80062 2.51264,-5.61647 4.11634,-7.88961 1.69141,-2.39745 1.73633,-2.65613 0.83558,-4.81192 -0.52355,-1.25305 -0.95192,-3.03791 -0.95192,-3.96635 0,-1.55427 0.23594,-1.68808 2.97655,-1.68808 2.29424,0 3.14011,-0.30563 3.69012,-1.33333 1.03294,-1.9300702 0.22467,-1.76738 -8.60184,1.73134 -10.64911,4.22118 -22.830395,10.63928 -32.731495,17.24564 -9.66216,6.44692 -21.8038,16.31434 -20.83464,16.93214 0.36602,0.23332 1.37855,1.47536 2.25006,2.7601 4.30198,6.34171 5.33598,7.33078 7.6637,7.33078 2.40671,0 2.85975,0.95619 1.5832,3.34146 -0.495,0.9249 -0.31121,2.16664 0.70064,4.7337 0.7544,1.91395 1.28136,4.40502 1.17101,5.53571 l -0.20064,2.0558 h -4.55995 c -4.36208,0 -4.60428,0.0845 -5.58138,1.94801 -0.74582,1.4224 -0.9328,3.1866 -0.69296,6.53862 0.25264,3.530931 0.0966,4.822445 -0.67577,5.594858 -0.55233,0.552327 -1.24794,0.75994 -1.54582,0.461373 -0.29787,-0.298573 -0.67897,-4.120311 -0.84689,-8.492751 -0.28302,-7.3702 -0.41923,-8.03752 -1.86792,-9.15184 -0.85946,-0.66108 -1.76318,-1.20862 -2.00827,-1.21678 -0.24509,-0.008 -1.12302,-1.11086 -1.95094,-2.45047 l -1.50531,-2.43565 1.95094,-1.5656 c 1.07302,-0.86109 2.51673,-1.74821 3.20826,-1.97139 1.1308,-0.36495 1.21934,-0.90795 0.87986,-5.39666 -0.20761,-2.74499 -0.54115,-5.15458 -0.74122,-5.35464 -0.55333,-0.55334 -2.05502,0.87033 -8.95833,8.49292 -22.65912,25.02008 -37.46037,54.24555 -43.7235299,86.33334 -2.25381,11.54687 -2.61478,14.99745 -1.57036,15.01163 0.47096,0.007 7.15629,-3.15564 14.8562899,-7.02672 11.09937,-5.58009 16.07189,-7.66544 24.00001,-10.06502 5.5,-1.66468 10.9437,-3.18182 12.09712,-3.37144 2.00132,-0.329 2.11732,-0.22512 2.53959,2.27428 0.28551,1.68991 0.0942,3.5458 -0.53937,5.23148 -1.51142,4.02149 -1.78106,8.14406 -1.07176,16.38654 1.03879,12.07155 4.36151,30.45317 5.32471,29.45689 0.30006,-0.31037 1.63718,-4.3143 2.97138,-8.89764 4.85577,-16.68087 6.5217,-21.7578 8.67914,-26.44977 4.57805,-9.95628 9.44479,-14.88356 14.70066,-14.88356 2.58021,0 2.90048,0.18852 3.56664,2.09948 1.00906,2.89457 0.91735,8.36988 -0.33791,20.17384 -1.63838,15.40667 -0.4087,27.72668 2.76746,27.72668 0.60446,0 3.99477,-2.79199 7.53402,-6.20441 7.119065,-6.86397 12.974115,-11.23883 19.252215,-14.38512 4.78801,-2.39953 13.09435,-5.22851 15.9147,-5.42023 4.43493,-0.30149 7.56669,0.0703 8.50617,1.00976 0.55,0.55 1.72493,1 2.61096,1 0.88603,0 2.18246,0.6387 2.88095,1.41934 1.22255,1.36633 1.63111,1.4028 10.93666,0.97623 10.7405,-0.49235 25.15244,-1.55754 28.52923,-2.10861 l 2.1959,-0.35835 -1.6959,-2.01545 c -2.01369,-2.39315 -2.30296,-6.74978 -0.60877,-9.16858 2.31378,-3.30337 9.1308,-4.52666 11.57954,-2.07792 1.78966,1.78966 1.70282,5.0442 -0.2368,8.87545 l -1.57014,3.10142 4.92686,-0.0507 c 4.74721,-0.0488 6.88008,0.6541 6.88008,2.26738 0,0.38335 -1.5,3.92488 -3.33333,7.87008 -2.39808,5.1605 -3.33333,7.99097 -3.33333,10.08805 0,5.76003 2.12434,5.849 13.30478,0.5572 13.04827,-6.17586 21.38026,-8.26325 36.36189,-9.10965 6.92264,-0.39111 8.50917,-0.70652 11.78091,-2.34209 7.55291,-3.77577 17.95947,-5.76395 18.79351,-3.59051 0.25328,0.66006 1.29734,1 3.07132,1 1.83233,0 3.12844,0.44084 4.07293,1.38534 1.27195,1.27195 1.34016,1.80395 0.83333,6.5 -0.90088,8.34719 -0.6623,13.53408 0.71822,15.61466 1.48332,2.23553 3.33122,2.3436 8.79208,0.51418 z M 147.8285,145.62982 c -0.0342,-1.19166 -0.14555,-3.36666 -0.24746,-4.83333 -0.10191,-1.46667 -0.29893,-6.86667 -0.43782,-12 l -0.25254,-9.33333 2.33333,-0.36626 c 1.28334,-0.20144 2.70834,-0.24435 3.16667,-0.0953 1.55869,0.50673 0.84069,1.96012 -1.16667,2.3616 -1.7363,0.34726 -1.9988,0.68787 -1.9909,2.58333 0.0169,4.03873 0.63166,5.18333 2.78421,5.18333 2.66342,0 2.36397,2.23728 -0.34109,2.54834 l -1.8697,0.21502 0.10454,6.45165 c 0.14711,9.07909 0.10688,9.45166 -1.02039,9.45166 -0.67101,0 -1.02045,-0.71282 -1.06218,-2.16667 z m 10.79475,0.43237 c -1.81004,-2.3011 -2.26775,-5.09225 -2.33938,-14.2657 -0.0515,-6.60283 0.13034,-7.99044 1.31084,-10 1.14532,-1.94965 1.74824,-2.33333 3.66667,-2.33333 2.01481,0 2.45714,0.32654 3.61218,2.66666 1.90738,3.8644 2.2768,15.5092 0.65553,20.66364 -1.63756,5.20622 -4.36596,6.49765 -6.90584,3.26873 z m 4.42761,-3.43237 c 2.29997,-5.26479 0.87711,-21.16666 -1.89393,-21.16666 -2.31074,0 -3.36866,10.59255 -1.86872,18.71089 1.10101,5.95918 1.9812,6.53365 3.76265,2.45577 z m 6.5945,-0.30258 c -0.55414,-7.06708 -0.64659,-22.29362 -0.14034,-23.11275 0.67908,-1.09877 2.98552,-0.003 5.12582,2.43423 1.82743,2.08132 2.03565,2.71792 1.74177,5.32523 -0.18359,1.62873 -0.99517,3.85589 -1.80354,4.94927 -1.46408,1.98027 -1.46469,1.9935 -0.15737,3.4306 2.07288,2.27869 2.68223,3.87804 3.19106,8.37558 0.4357,3.85098 0.37336,4.18131 -0.74828,3.9653 -0.9489,-0.18274 -1.38921,-1.24775 -1.9614,-4.74416 -0.43265,-2.64374 -1.2306,-4.9867 -1.92922,-5.66462 -1.14174,-1.10792 -1.18199,-0.92056 -0.96562,4.49526 0.1908,4.77603 0.0597,5.6843 -0.84672,5.86408 -0.89,0.17653 -1.14628,-0.72835 -1.50616,-5.31802 z m 3.2282,-12.49764 c 1.40638,-2.71963 1.27728,-5.59102 -0.31621,-7.03311 -1.3223,-1.19667 -1.33333,-1.16442 -1.33333,3.89667 0,2.80684 0.14229,5.10333 0.31621,5.10333 0.17392,0 0.77392,-0.8851 1.33333,-1.96689 z m 7.30928,17.09998 c -0.66611,-1.73585 0.18847,-27.27276 0.92796,-27.72979 0.39862,-0.24636 1.71217,-0.43789 2.91899,-0.42561 2.77274,0.0282 3.07854,1.92056 0.36089,2.23326 -1.78816,0.20575 -1.83333,0.31662 -1.83333,4.5 v 4.28905 h 2.22222 c 2.54423,0 3.16903,0.4067 2.66052,1.73185 -0.21022,0.54782 -1.29515,0.93482 -2.62073,0.93482 h -2.26201 v 6.33333 6.33333 h 2.22222 c 2.63939,0 3.37111,0.55011 2.35703,1.772 -0.96964,1.16834 -6.5076,1.19046 -6.95376,0.0278 z m 14.04808,0.21142 c -0.24673,-0.39922 -1.16293,-5.59006 -2.03599,-11.53519 -0.87306,-5.94513 -1.78793,-11.93432 -2.03304,-13.30932 -0.35966,-2.01757 -0.24345,-2.5 0.60222,-2.5 1.52148,0 1.61829,0.30396 3.07186,9.64512 1.20553,7.74717 2.05471,11.08625 2.05471,8.07937 0,-3.26016 2.20618,-17.50297 2.82706,-18.25108 1.81717,-2.18956 1.87234,0.88482 0.22034,12.28044 -0.94983,6.55205 -1.96542,12.79327 -2.25686,13.86938 -0.56762,2.09585 -1.71894,2.90463 -2.4503,1.72128 z m 8.66929,0.004 c -0.60922,-0.98574 -0.15583,-27.38565 0.47703,-27.77678 1.04039,-0.643 4.25711,-0.80908 5.13706,-0.26524 1.26648,0.78273 0.2458,2.0266 -1.66296,2.0266 -1.55842,2.4e-4 -1.62732,0.18374 -1.62732,4.33358 v 4.33333 h 2.33333 c 1.88889,0 2.33333,0.25397 2.33333,1.33333 0,1.07937 -0.44444,1.33334 -2.33333,1.33334 h -2.33333 v 6.33333 6.33333 h 2.29398 c 2.71915,0 3.60418,0.98414 1.76852,1.96656 -1.64746,0.88168 -5.85171,0.91386 -6.38631,0.0489 z m 10.67972,0.0211 c -0.57389,-0.92857 -1.33762,-26.25396 -0.83151,-27.57286 0.53457,-1.39308 2.48338,-0.79406 5.05337,1.55325 1.73748,1.58694 2.08889,2.40327 2.08889,4.85246 0,1.99083 -0.5071,3.69182 -1.56565,5.25167 l -1.56566,2.30713 1.51535,1.90043 c 2.60454,3.26662 4.09022,12.33827 2.02062,12.33827 -1.12509,0 -1.73799,-1.43737 -1.73799,-4.07594 0,-2.28593 -1.50674,-6.20719 -2.65867,-6.91912 -0.59722,-0.3691 -0.73838,0.87794 -0.56802,5.01797 0.15461,3.75744 -0.0189,5.59473 -0.54555,5.77831 -0.42473,0.14804 -0.96706,-0.0461 -1.20518,-0.43135 z m 3.58055,-19.11453 c 0.72646,-2.63082 -0.17858,-5.58845 -1.71014,-5.58845 -0.60756,0 -0.89008,0.90562 -0.88389,2.83333 0.0188,5.84987 1.34935,7.26317 2.59403,2.75534 z M 86.942575,105.0186 c -0.15517,-0.48883 -0.47505,-4.78878 -0.71084,-9.555448 -0.23579,-4.766667 -0.65489,-10.549834 -0.93133,-12.851472 -0.38183,-3.17905 -0.28731,-4.36351 0.39326,-4.92834 0.49274,-0.40894 1.05813,-0.5813 1.25641,-0.38301 0.19828,0.19828 0.7268,4.51603 1.17448,9.595001 0.81057,9.195927 0.81739,9.221267 1.63297,6.067821 1.10587,-4.275794 2.43599,-4.104714 3.8875,0.5 0.6357,2.016666 1.36257,3.666667 1.61528,3.666667 0.2527,0 0.67691,-4.220541 0.94269,-9.378988 0.37306,-7.240811 0.70307,-9.463341 1.44754,-9.749031 0.53037,-0.20352 1.10439,-0.22996 1.27559,-0.0587 0.1712,0.1712 -0.0669,6.433271 -0.529,13.915698 -0.96383,15.604942 -1.56769,16.821032 -4.52862,9.120132 -0.9483,-2.466352 -1.8871,-4.647198 -2.08622,-4.846325 -0.19912,-0.19912 -0.93119,1.795993 -1.62682,4.433585 -1.19197,4.5195 -2.58069,6.44401 -3.21289,4.45247 z m 14.904635,-1.05544 c -0.21054,-8.879568 0.14842,-25.87162 0.55512,-26.27833 0.71278,-0.71278 4.35644,-0.92124 5.35164,-0.30617 1.26399,0.78118 0.27412,1.75116 -1.78708,1.75116 -1.81806,0 -1.84605,0.0629 -1.91024,4.29609 l -0.0651,4.296101 2.44959,0.2039 c 3.41707,0.284441 3.36387,2.128401 -0.0696,2.411961 l -2.51917,0.208053 0.0941,6.291947 0.0941,6.291948 h 2.59172 c 1.77084,0 2.59172,0.29414 2.59172,0.92868 0,1.19901 -1.46412,1.73799 -4.7212,1.73799 -2.39462,0 -2.61576,-0.15266 -2.6556,-1.83333 z m 18.48792,1.38888 c -0.24445,-0.24444 -0.44445,-2.6281 -0.44445,-5.29702 0,-2.668915 -0.32542,-8.660502 -0.72315,-13.314635 -0.59042,-6.908885 -0.56068,-8.562475 0.16201,-9.009125 1.31297,-0.81146 1.75547,1.00042 2.28392,9.351825 0.25685,4.05904 0.66225,7.380067 0.90091,7.380067 0.23865,0 0.72096,-0.975 1.07178,-2.166667 0.9991,-3.393693 2.36018,-2.653673 3.98503,2.166667 l 1.46069,4.333333 0.55459,-9.666667 c 0.30502,-5.316668 0.57325,-9.966668 0.59607,-10.333338 0.0228,-0.36666 0.64148,-0.66666 1.37482,-0.66666 0.73333,0 1.28821,0.3 1.23306,0.66666 -0.0551,0.36667 -0.4906,6.602025 -0.9677,13.856345 -0.73539,11.181915 -1.02266,13.159785 -1.88718,12.993295 -0.57495,-0.11073 -1.7437,-2.15632 -2.67946,-4.68968 -0.91284,-2.471308 -1.82704,-4.493288 -2.03156,-4.493288 -0.20451,0 -0.91282,2.1 -1.57401,4.666668 -1.09702,4.25854 -2.05678,5.48082 -3.31537,4.22222 z m 15.34722,0.0139 c -0.25209,-0.25206 -0.45834,-6.730311 -0.45834,-14.396085 0,-12.915255 0.0856,-13.921285 1.16667,-13.712985 1.06673,0.20552 1.16667,1.41844 1.16667,14.160085 0,13.188775 -0.31226,15.511755 -1.875,13.949015 z m 4.65278,-0.0139 c -0.24445,-0.24444 -0.44445,-6.507708 -0.44445,-13.918368 0,-10.458532 0.20023,-13.640102 0.89467,-14.216442 0.49207,-0.40838 1.09207,-0.54511 1.33334,-0.30385 0.24126,0.24126 0.43866,6.27204 0.43866,13.401745 v 12.963085 l 2.28134,-0.42798 c 2.54238,-0.47695 3.6366,0.43856 2.36109,1.97546 -0.81423,0.98109 -6.01142,1.37959 -6.86465,0.52635 z m 10,0 c -0.24445,-0.24444 -0.44445,-6.507708 -0.44445,-13.918368 0,-10.458532 0.20023,-13.640102 0.89467,-14.216442 0.49207,-0.40838 1.09207,-0.54511 1.33334,-0.30385 0.24126,0.24126 0.43866,6.27204 0.43866,13.401745 v 12.963085 l 2.28134,-0.42798 c 2.7027,-0.50703 3.88549,0.68801 2.02642,2.04739 -1.26958,0.92834 -5.74465,1.23976 -6.52998,0.45442 z M 171.22402,92.887605 V 79.88096 l -2.16667,-0.2089 c -1.38864,-0.1339 -2.16667,-0.568 -2.16667,-1.20891 0,-0.79009 0.88157,-0.98606 4.19974,-0.9336 4.42092,0.0699 7.05162,1.31069 4.3029,2.02949 -1.44832,0.37875 -1.47756,0.61076 -1.65517,13.136198 -0.16349,11.529842 -0.2925,12.772112 -1.34747,12.974832 -1.0789,0.20732 -1.16666,-0.75422 -1.16666,-12.782465 z m 7.59774,7.439665 c 0.25087,-3.008078 1.17832,-8.809538 2.061,-12.892145 3.44377,-15.928145 4.93726,-14.653535 7.73534,6.60168 0.93017,7.065875 1.17025,10.795355 0.72368,11.241915 -1.26254,1.26255 -1.98273,-0.15175 -2.45083,-4.81293 l -0.46892,-4.669305 h -2.18998 c -2.10721,0 -2.20639,0.11968 -2.62425,3.166667 -0.79194,5.774588 -1.13269,6.833338 -2.19927,6.833338 -0.89838,0 -0.97968,-0.75781 -0.58677,-5.46922 z m 6.82424,-9.030785 c -0.19284,-1.008333 -0.5725,-3.183333 -0.84369,-4.833334 l -0.49307,-3.000001 -0.81195,3.333335 c -1.31663,5.405267 -1.20238,6.333333 0.7797,6.333333 1.51652,0 1.67822,-0.216546 1.36901,-1.833333 z m 6.72253,13.333335 c -0.15327,-0.64166 -0.33742,-6.819141 -0.40922,-13.727722 -0.12689,-12.208558 0.28883,-15.120758 2.00691,-14.058928 0.32512,0.20093 0.59113,6.23689 0.59113,13.413222 v 13.047888 l 2.32112,-0.37666 c 2.56309,-0.41594 3.56313,0.40177 2.32131,1.89807 -1.20853,1.45619 -6.47269,1.30525 -6.83125,-0.19587 z m 10.55162,0.33334 c -0.14411,-0.45834 -0.39747,-6.908341 -0.56303,-14.333342 -0.28684,-12.864878 -0.24216,-13.499998 0.94962,-13.499998 1.08408,0 1.25061,0.53263 1.25061,4 0,2.2 0.26501,3.999998 0.58891,3.999998 0.70403,0 1.38936,-2.322778 1.40199,-4.751708 0.01,-1.84732 1.53015,-3.62299 2.55831,-2.98755 0.75532,0.46681 -0.3108,6.677771 -1.56133,9.096031 -0.80083,1.548627 -0.72523,2.104621 0.68326,5.025581 1.98149,4.109233 2.68379,13.950988 0.99553,13.950988 -0.76853,0 -1.11636,-1.2844 -1.50268,-5.548833 -0.27647,-3.051862 -0.87647,-6.201862 -1.33333,-7.000002 -0.7187,-1.255573 -0.85319,-0.687387 -0.99785,4.215494 -0.0919,3.116671 -0.32266,6.341671 -0.5127,7.166671 -0.37351,1.62154 -1.53291,2.01643 -1.95731,0.66667 z m 19.25242,-0.81829 c -1.68984,-2.57902 -2.24878,-6.071591 -2.26598,-14.159098 -0.0217,-10.209252 1.70907,-13.648632 6.41253,-12.742822 1.70796,0.32892 3.55789,5.79479 4.00429,11.831182 0.4177,5.648326 -1.04157,13.483488 -2.89209,15.528288 -1.54757,1.71005 -3.97698,1.49867 -5.25875,-0.45755 z m 4.70079,-4.498023 c 2.08126,-7.008342 0.55587,-20.517027 -2.31676,-20.517027 -0.70646,0 -1.81917,3.15042 -2.27856,6.451271 -0.46972,3.375134 0.67124,15.123049 1.64557,16.943589 0.98734,1.84486 1.77567,1.07575 2.94975,-2.877833 z m 6.82822,5.684833 c -0.17121,-0.29436 -0.4237,-6.685195 -0.5611,-14.201862 l -0.2498,-13.666668 3.16667,-0.20319 c 3.63093,-0.23299 4.29058,0.88075 1.16667,1.96975 -1.88937,0.65864 -2,0.89643 -2,4.29866 0,3.510088 0.0479,3.601448 1.88888,3.601448 1.0389,0 2.06822,0.179327 2.2874,0.398513 0.86801,0.868001 -0.41702,2.268107 -2.08094,2.267294 l -1.76201,-6.67e-4 v 7.775787 c 0,5.298305 -0.24605,7.858715 -0.77224,8.036055 -0.42473,0.14315 -0.91232,0.0195 -1.08353,-0.27492 z m 18.85577,-7.324835 c 0,-7.030533 -0.21952,-8.532807 -2.02063,-13.828247 -1.26691,-3.724818 -1.78593,-6.175558 -1.39142,-6.570058 1.0925,-1.0925 1.98723,0.10774 3.1382,4.20975 0.61392,2.188008 1.3554,3.978195 1.64773,3.978195 0.50688,0 2.62612,-6.404185 2.62612,-7.935945 0,-0.83461 1.7565,-0.9974 2.24438,-0.20799 0.35858,0.5802 -1.84149,8.975375 -2.69983,10.302181 -0.2995,0.462967 -0.69455,4.588507 -0.87788,9.167874 -0.29001,7.243855 -0.48498,8.355075 -1.5,8.548885 -1.05793,0.202 -1.16667,-0.51241 -1.16667,-7.664645 z m 11.07346,6.328645 c -2.74324,-4.18672 -3.18538,-21.61154 -0.63541,-25.04209 1.52629,-2.05336 4.88379,-2.784 6.09375,-1.3261 1.27286,1.53372 2.80154,8.560785 2.80154,12.878258 0,5.502267 -1.07534,10.916402 -2.57226,12.950932 -1.67381,2.27493 -4.38203,2.53159 -5.68762,0.539 z m 4.65586,-4.039 c 1.40812,-4.212992 1.54821,-12.219012 0.29521,-16.87083 -1.14232,-4.24092 -1.7341,-4.8722 -3.19595,-3.4093 -0.99175,0.99247 -1.16191,2.50156 -1.16191,10.304772 0,8.725173 0.83215,13.475358 2.36063,13.475358 0.29272,0 1.05863,-1.575 1.70202,-3.5 z m 9.48588,4.35801 c -1.46642,-1.68611 -1.81406,-3.58537 -2.88259,-15.748355 -0.81222,-9.245485 -0.8139,-10.909485 -0.0118,-11.713705 1.24048,-1.24376 1.37678,-0.54356 2.63878,13.555545 0.55555,6.20666 1.28569,11.560435 1.62252,11.897275 1.03581,1.03581 1.63825,-4.622935 1.56119,-14.664555 -0.04,-5.215345 0.17737,-9.637045 0.4831,-9.825995 0.30572,-0.18895 0.92875,0.10575 1.3845,0.65489 1.19719,1.44253 0.592,21.9005 -0.72907,24.6454 -1.14663,2.38245 -2.65171,2.8264 -4.06662,1.1995 z m 16.1293,-4.35801 c 0.0125,-0.935123 2.67316,-6.129452 5.58114,-10.896038 l 1.92564,-3.156401 -1.13879,-3.166861 c -0.62633,-1.74177 -1.04287,-4.16747 -0.92564,-5.39045 l 0.21315,-2.22359 3.82329,0.17185 3.82329,0.17184 2.68415,-5.33851 c 1.89544,-3.76983 3.04497,-5.33851 3.9121,-5.33851 1.08117,0 1.27366,0.76628 1.61041,6.41069 0.37263,6.24578 0.43909,6.45797 2.58354,8.24823 1.88915,1.57714 2.07648,1.98766 1.32194,2.89682 -0.48352,0.58261 -1.43592,1.23601 -2.11644,1.451998 -0.87261,0.276953 -1.3729,1.3162 -1.69732,3.52582 -1.17684,8.01528 -2.56042,8.698281 -8.22674,4.061094 -2.23345,-1.8278 -2.32267,-1.843287 -4.21116,-0.731007 -1.06114,0.624993 -2.852,2.786353 -3.97966,4.80302 -1.98653,3.552602 -3.54072,5.333335 -4.65482,5.333335 -0.29658,0 -0.53422,-0.375 -0.52808,-0.83333 z m 18.25084,-10.221198 c 0.50977,-1.328434 0.52716,-3.612141 0.0275,-3.612141 -0.38463,0 -3.0667,1.31942 -3.5632,1.752881 -0.35749,0.312106 1.99886,2.913786 2.63903,2.913786 0.2706,0 0.67411,-0.474533 0.89667,-1.054526 z m -2.23544,-4.959021 c 2.191,-1.117773 2.6401,-1.687601 2.6401,-3.349831 0,-1.55114 -0.39682,-2.15383 -1.75912,-2.67178 -0.96752,-0.36784 -1.81682,-0.58542 -1.88733,-0.4835 -0.0705,0.10193 -0.92623,1.64331 -1.90158,3.4253 -2.52635,4.615658 -1.7384,5.450191 2.90793,3.079811 z m -5.02656,-5.319791 1.03424,-2 h -2.01712 c -2.13842,0 -2.22893,0.1417 -1.59693,2.5 0.54649,2.03925 1.34693,1.88412 2.57981,-0.5 z m 7.79319,-5 c 0.31997,-2.74072 -0.49311,-3.05466 -1.60291,-0.61892 -0.6324,1.38796 -0.59794,1.83032 0.18096,2.32312 0.52915,0.3348 1.00427,0.61332 1.05582,0.61893 0.0515,0.005 0.21631,-1.03979 0.36613,-2.32313 z M 241.15942,66.0187 c -0.0355,-1.40555 -0.0119,-3.68911 0.0523,-5.07458 0.0914,-1.96936 -0.3379,-3.03706 -1.96748,-4.89305 -2.20182,-2.50773 -2.02048,-3.74149 0.67568,-4.59722 1.00195,-0.31801 1.28045,-1.1832 1.4398,-4.47291 0.11548,-2.38382 0.52466,-4.18656 0.98472,-4.33838 0.43294,-0.14285 1.85422,1.40834 3.15839,3.4471 1.58931,2.48448 2.81364,3.70682 3.71285,3.70682 1.34795,0 1.86377,1.5986 0.73994,2.29316 -0.34268,0.2118 -0.20288,1.69693 0.32478,3.4502 0.50954,1.69308 0.7412,3.37806 0.51479,3.7444 -0.22641,0.36633 -1.72097,0.51848 -3.32124,0.33811 -2.87417,-0.32396 -2.91725,-0.29852 -3.53939,2.08976 -0.3464,1.32974 -0.72298,3.29457 -0.83687,4.36629 -0.32201,3.03032 -1.86142,2.98291 -1.93833,-0.0597 z m 6.91291,-9.59961 c -0.23497,-0.89852 -0.5871,-1.15049 -1.01283,-0.72475 -0.69007,0.69006 -0.14723,2.10214 0.80812,2.10214 0.3107,0 0.40282,-0.61982 0.20471,-1.37739 z M 246.33757,52.852 c -0.22277,-0.58054 -0.86445,-1.05552 -1.42597,-1.05552 -0.73393,0 -1.02092,0.69756 -1.02092,2.48148 v 2.48148 l 1.42597,-1.42596 c 0.83551,-0.83551 1.25825,-1.86302 1.02092,-2.48148 z m -5.11355,0.94448 c 0,-0.36666 -0.31771,-0.66666 -0.70602,-0.66666 -0.3883,0 -0.5206,0.3 -0.29398,0.66666 0.22661,0.36667 0.54432,0.66667 0.70601,0.66667 0.16169,0 0.29399,-0.3 0.29399,-0.66667 z m -8.05416,12.5 c -0.32795,-1.00917 -0.21496,-4.06449 0.17356,-4.69285 0.37556,-0.60741 0.75924,-0.54703 1.55055,0.24406 0.82244,0.8222 0.9039,1.43944 0.37395,2.83333 -0.54292,1.42798 -1.83555,2.42328 -2.09806,1.61546 z M 132.85517,62.94434 c -0.17985,-0.46868 -0.24543,-6.83978 -0.14574,-14.15801 0.16426,-12.05847 0.29062,-13.32689 1.34792,-13.53007 1.07913,-0.20739 1.16666,0.75863 1.16666,12.87575 v 13.09997 l 2.29758,-0.19796 c 2.732,-0.23537 3.53727,0.3549 2.38246,1.74635 -1.0531,1.26891 -6.57558,1.39737 -7.04888,0.16397 z m 10.02128,0.0555 c -0.19156,-0.49917 -0.26671,-6.89912 -0.16702,-14.2221 0.15396,-11.31016 0.33179,-13.31456 1.18125,-13.31456 0.85701,0 1,1.99383 1,13.94445 0,10.55983 -0.20218,14.01183 -0.83298,14.2221 -0.45814,0.15271 -0.98971,-0.13075 -1.18125,-0.62991 z m 9.01423,-12.1122 V 37.881 l -2.16667,-0.20891 c -1.38863,-0.13389 -2.16666,-0.568 -2.16666,-1.20891 0,-1.02507 4.02784,-1.46172 7.44966,-0.80759 1.76118,0.33667 2.10007,1.93249 0.47968,2.25871 -0.93381,0.188 -1.08293,1.83328 -1.16667,12.87204 -0.0871,11.47887 -0.20456,12.67749 -1.26267,12.88222 -1.07896,0.20875 -1.16667,-0.7521 -1.16667,-12.78092 z m 11.33333,-0.0489 V 37.88098 l -2.16666,-0.20891 c -1.38864,-0.13389 -2.16667,-0.568 -2.16667,-1.20891 0,-0.77003 0.84322,-0.99553 3.66667,-0.98058 4.78524,0.0253 6.44447,0.64174 5.33288,1.98113 -0.44951,0.54163 -1.0833,0.82037 -1.40842,0.61943 -0.33603,-0.20769 -0.59113,5.2617 -0.59113,12.674 0,12.5949 -0.0454,13.03934 -1.33333,13.03934 -1.2876,0 -1.33334,-0.44444 -1.33334,-12.95776 z m 7.22066,0.79109 c -0.25711,-14.17705 -0.0902,-16.5 1.18562,-16.5 0.95347,0 1.07283,2.30181 1.01375,19.54831 l -0.0225,6.54831 2.41463,-0.20803 c 1.58829,-0.13684 2.51769,0.10116 2.71579,0.69546 0.43606,1.30817 -1.1281,2.06073 -4.30736,2.07241 l -2.77931,0.0102 -0.22066,-12.16667 z m 9.94161,11 c -0.25034,-1.11943 -0.23486,-9.27383 0.0411,-21.66667 l 0.12993,-5.83334 h 3 c 2.22222,0 3,0.25926 3,1 0,0.66137 -0.6615,1 -1.95347,1 h -1.95348 l -0.0145,4.56808 c -0.0142,4.4837 0.0155,4.56235 1.60902,4.25774 2.24076,-0.42835 3.70508,0.24368 3.22979,1.48228 -0.24701,0.64379 -1.23497,1.02523 -2.65539,1.02523 h -2.26201 v 6.33333 6.33334 h 2.29399 c 2.4971,0 3.75766,1.13563 2.29142,2.06432 -0.50531,0.32006 -2.17353,0.58652 -3.70715,0.59214 -2.11699,0.008 -2.85123,-0.27072 -3.04933,-1.15646 z m 18.86058,-0.95604 c -1.65102,-2.71488 -2.21269,-7.31536 -1.92152,-15.73851 0.2784,-8.05344 1.4986,-10.47212 5.28308,-10.47212 2.07094,0 2.33886,0.2523 3.5398,3.33334 1.61232,4.13642 1.89639,15.86474 0.48442,20 -1.85334,5.42789 -5.0721,6.68183 -7.38578,2.87729 z m 4.37492,-2.00188 c 2.28773,-4.42399 1.7732,-19.79703 -0.73219,-21.87632 -1.26876,-1.05298 -2.51563,0.93845 -3.0606,4.88824 -0.82154,5.95419 0.83173,19.11267 2.40136,19.11267 0.16102,0 0.78716,-0.95607 1.39143,-2.12459 z m 6.8428,2.95792 c -0.13656,-0.64167 -0.24654,-7.01667 -0.24442,-14.16667 0.005,-16.55628 0.61191,-16.99342 5.09136,-3.66666 l 3.13717,9.33333 -0.36929,-9.40485 c -0.35766,-9.10875 -0.0814,-10.76488 1.62036,-9.71315 1.11805,0.691 1.47541,28.23919 0.37114,28.61084 -1.04184,0.35064 -2.22363,-2.31837 -5.08884,-11.49284 l -2.29022,-7.33333 -0.0673,9.5 c -0.0539,7.61162 -0.25056,9.5 -0.98949,9.5 -0.50723,0 -1.03397,-0.525 -1.17052,-1.16667 z m 12.91274,-12.96471 0.18003,-14.20197 3.23533,-0.206 c 2.4332,-0.15493 3.16424,0.0103 2.94859,0.66667 -0.15771,0.47996 -1.08861,0.96759 -2.06867,1.08361 -1.73295,0.20515 -1.78192,0.33357 -1.78192,4.67311 v 4.46216 l 2.16667,-0.007 c 3.28694,-0.01 2.91234,1.93246 -0.42547,2.20596 l -2.59213,0.2124 0.42073,4.45426 c 0.2314,2.44985 0.42286,5.27927 0.42546,6.2876 0.004,1.65708 0.23377,1.83334 2.38696,1.83334 1.90882,0 2.33814,0.23184 2.16042,1.16666 -0.17156,0.90242 -1.01617,1.21242 -3.72891,1.36864 l -3.50711,0.20197 0.18002,-14.20197 z m 46.95829,134.31525 c 3.06554,-1.75114 6.84452,-4.32501 8.39773,-5.71973 l 2.82401,-2.53584 -4.8626,0.28226 c -3.90418,0.22662 -5.84038,0.7655 -9.82346,2.73405 -8.56639,4.23374 -11.62258,10.99286 -4.045,8.94598 1.06458,-0.28757 4.44378,-1.95559 7.50932,-3.70672 z m -128.64996,-4.62278 c 2.57786,-1.22327 4.48513,-4.24551 2.99312,-4.74285 -0.47459,-0.1582 -1.43378,-0.90041 -2.13154,-1.64936 l -1.26864,-1.36172 -3.86062,1.92974 c -4.38636,2.19255 -5.27826,4.09468 -2.75022,5.86538 1.94373,1.36144 4.0886,1.34885 7.0179,-0.0412 z m 53.88501,-17.72777 c 0.43604,-2.3272 0.3573,-2.5 -1.13912,-2.5 -3.26798,0 -4.14418,2.58372 -1.74297,5.13968 1.67236,1.78014 2.13301,1.35824 2.88209,-2.63968 z M 69.553035,69.29648 c -0.26417,-0.64166 -0.63667,-1.71239 -0.82779,-2.37938 -0.3019,-1.0536 -0.51009,-0.96613 -1.58664,0.66666 -1.67857,2.54586 -1.58319,2.87939 0.8234,2.87939 1.71121,0 1.98782,-0.20283 1.59103,-1.16667 z m -4.43125,-2.35142 c 1.82667,-2.65497 1.89631,-2.9765 1.01074,-4.66667 -1.08767,-2.0759 -0.94218,-2.02291 -3.19845,-1.16507 -1.38083,0.52499 -1.71007,1.09421 -1.71007,2.9566 0,2.24949 0.98251,5.72656 1.61814,5.72656 0.1748,0 1.20064,-1.28314 2.27964,-2.85142 z m -6.56444,-1.44256 c 0,-1.88248 -0.76773,-2.54788 -2.27318,-1.97019 -1.33814,0.51349 -1.34161,1.22081 -0.0125,2.54989 1.49646,1.49645 2.28572,1.29628 2.28572,-0.5797 z m 4.38932,-7.87268 c -0.21366,-0.45834 -0.57365,-1.35834 -0.79998,-2 -0.65211,-1.84876 -1.58934,-1.35734 -1.58934,0.83333 0,1.58222 0.29012,2 1.38888,2 0.87385,0 1.24484,-0.30903 1.00044,-0.83333 z M 125.22401,22.40035 c 0,-1.1246 -0.20148,-1.20962 -1.37638,-0.58083 -1.09555,0.58632 -1.21616,0.92966 -0.59112,1.68278 0.98294,1.18437 1.9675,0.63294 1.9675,-1.10195 z m 108.66667,-0.60387 c 0,-0.36667 -0.3,-0.66667 -0.66666,-0.66667 -0.36667,0 -0.66667,0.3 -0.66667,0.66667 0,0.36667 0.3,0.66667 0.66667,0.66667 0.36666,0 0.66666,-0.3 0.66666,-0.66667 z M 123.29845,20.09133 c 1.45619,-0.75303 1.95104,-1.43837 1.80022,-2.4932 -0.3226,-2.25631 -2.30826,-2.18614 -3.50276,0.12378 -1.06026,2.05031 -1.32801,3.4079 -0.67212,3.4079 0.20154,0 1.27014,-0.46732 2.37466,-1.03848 z m 111.2589,-1.7059 c 0,-1.5454 -0.53243,-1.58375 -2.11417,-0.15229 -1.67813,1.51868 -1.52646,2.10385 0.4475,1.72651 1.07506,-0.20552 1.66667,-0.7643 1.66667,-1.57422 z M 119.36846,15.00759 c -1.01835,-1.01834 -1.76976,-0.26692 -1.20495,1.20495 0.33349,0.86905 0.62261,0.95517 1.21569,0.36209 0.59309,-0.59309 0.59053,-0.96577 -0.0107,-1.56704 z m 111.52222,1.45556 c 0.22662,-0.36667 0.0943,-0.66667 -0.29398,-0.66667 -0.38831,0 -0.70602,0.3 -0.70602,0.66667 0,0.36666 0.1323,0.66666 0.29399,0.66666 0.16169,0 0.4794,-0.3 0.70601,-0.66666 z M 125.22401,12.79648 c 0,-0.55 -0.1179,-1 -0.262,-1 -0.14411,0 -0.43469,0.45 -0.64575,1 -0.21105,0.55 -0.0932,1 0.26201,1 0.35516,0 0.64574,-0.45 0.64574,-1 z"
       style="fill:#000000;stroke-width:0.666667" />
  </g>
</svg>
