<?xml version="1.0" encoding="UTF-8" standalone="no"?>
<svg
   xmlns:dc="http://purl.org/dc/elements/1.1/"
   xmlns:cc="http://creativecommons.org/ns#"
   xmlns:rdf="http://www.w3.org/1999/02/22-rdf-syntax-ns#"
   xmlns:svg="http://www.w3.org/2000/svg"
   xmlns="http://www.w3.org/2000/svg"
   xmlns:sodipodi="http://sodipodi.sourceforge.net/DTD/sodipodi-0.dtd"
   xmlns:inkscape="http://www.inkscape.org/namespaces/inkscape"
   inkscape:version="1.0 (4035a4f, 2020-05-01)"
   inkscape:export-ydpi="96"
   inkscape:export-xdpi="96"
   inkscape:export-filename="/Users/andrew/Desktop/ornaments/6/6.png"
   sodipodi:docname="60.svg"
   viewBox="0 0 381.1185 380.27145"
   height="380.27145"
   width="381.1185"
   id="svg9"
   version="1.1">
  <metadata
     id="metadata97">
    <rdf:RDF>
      <cc:Work
         rdf:about="">
        <dc:format>image/svg+xml</dc:format>
        <dc:type
           rdf:resource="http://purl.org/dc/dcmitype/StillImage" />
        <dc:title></dc:title>
      </cc:Work>
    </rdf:RDF>
  </metadata>
  <defs
     id="defs13">
    <clipPath
       id="clipPath203"
       clipPathUnits="userSpaceOnUse">
      <rect
         y="85.139603"
         x="86.619537"
         height="382.62265"
         width="383.80334"
         id="rect205"
         style="fill:none;stroke:#000000;stroke-width:1.88687" />
    </clipPath>
  </defs>
  <sodipodi:namedview
     inkscape:document-rotation="0"
     inkscape:current-layer="g15"
     inkscape:window-maximized="0"
     inkscape:window-y="25"
     inkscape:window-x="0"
     inkscape:window-height="847"
     inkscape:window-width="1312"
     inkscape:cy="391.27698"
     inkscape:cx="13.01545"
     inkscape:zoom="0.61465411"
     fit-margin-bottom="0"
     fit-margin-right="0"
     fit-margin-left="0"
     fit-margin-top="0"
     showgrid="false"
     inkscape:pagecheckerboard="0"
     inkscape:pageopacity="0.0"
     inkscape:pageshadow="2"
     borderopacity="1.0"
     bordercolor="#666666"
     pagecolor="#ffffff"
     id="namedview11" />
  <g
     id="g15"
     inkscape:label="Image"
     inkscape:groupmode="layer">
    <path
       id="path241"
       d="M 177.95078,379.6876 C 123.6132,376.2313 72.903971,349.09223 39.086277,305.3687 22.392983,283.78563 9.3601495,255.24825 3.9186695,228.36387 -4.8302915,185.13836 1.1226085,141.8689 21.256103,102.34452 c 2.165553,-4.251243 3.937373,-8.211337 3.937373,-8.80021 0,-0.588873 0.436393,-1.3149 0.969767,-1.613393 0.533373,-0.298487 3.42404,-4.13674 6.423693,-8.529447 C 40.243917,72.188576 44.75723,66.789982 55.496631,55.998094 85.449093,25.899241 120.80483,8.0522595 163.86014,1.2980325 c 10.97354,-1.72145997 42.34399,-1.73321997 53.33334,-0.02 21.00031,3.273906 39.28129,8.9587945 57.08177,17.7508745 39.97023,19.74224 72.34297,52.861862 89.86182,91.935043 20.17676,45.00125 22.45149,95.30168 6.40688,141.67307 -17.07227,49.34141 -55.40953,90.57288 -103.6838,111.51122 -21.48018,9.31674 -41.32612,14.04252 -65.42862,15.58006 -11.45554,0.73076 -11.34947,0.73095 -23.48075,-0.0407 z m 40.4352,-2.5282 c 71.05806,-10.94788 130.2004,-60.47204 152.16491,-127.41868 16.0019,-48.77292 12.09308,-100.51451 -11.0256,-145.94764 -6.13267,-12.052023 -5.45561,-11.58071 -8.954,-6.23301 -10.53889,16.10996 -19.54679,35.20082 -30.81703,65.31194 -2.91834,7.79702 -11.84098,22.70247 -18.83048,31.45667 -3.46227,4.33644 -16.1638,16.1359 -32.81173,30.48147 -8.75224,7.54183 -19.78326,18.82549 -33.17085,33.93057 -12.46063,14.05919 -20.91311,19.27753 -26.43676,16.32136 -1.02153,-0.54671 -1.86537,-0.2227 -4.34057,1.66667 -4.02347,3.07118 -8.40647,3.2947 -11.61789,0.59247 l -2.08312,-1.75284 -1.57026,1.47518 c -3.3112,3.11071 -8.45456,2.80511 -13.20048,-0.78433 -1.96215,-1.48402 -2.35296,-1.55682 -4.16531,-0.77594 -5.43183,2.34036 -14.20759,-2.99961 -24.92433,-15.16624 C 133.54187,245.48946 121.4374,233.55964 106.27249,220.56894 84.283503,201.73255 78.664473,196.01935 71.673665,185.39029 64.760991,174.88003 61.796931,169.10721 56.621204,156.07405 46.682644,131.04743 38.713497,114.84723 29.149003,100.22674 c -3.48096,-5.321063 -2.9948,-5.606403 -8.258787,4.8473 -9.794361,19.45056 -16.1302865,40.96765 -18.7708475,63.74669 -1.34836004,11.63178 -0.962426,38.33345 0.702254,48.58665 6.784607,41.78816 24.7808205,77.41319 53.7131085,106.32963 28.921752,28.90592 67.949069,48.28113 107.992079,53.61296 11.94605,1.59065 12.06969,1.59653 29,1.37948 11.94645,-0.15315 18.24444,-0.55091 24.85917,-1.57005 z m -130.359167,-40.10612 -1.5,-0.60293 v -23.27318 c 0,-26.01804 -0.17769,-25.07282 4.71329,-25.07282 4.63473,0 8.1664,4.77954 8.17215,11.05966 0.003,2.68417 -0.41778,4.47054 -1.47201,6.25734 -1.45975,2.47409 -1.46176,2.51574 -0.1891,3.91005 4.624757,5.06679 6.009497,16.07218 2.810807,22.33937 -1.620657,3.17538 -3.144807,4.45179 -6.368467,5.3333 -3.12935,0.85574 -4.14008,0.8638 -6.16667,0.0492 z m 6.81023,-6.22885 c 1.78452,-1.78452 2.72304,-6.32608 2.1658,-10.48054 -0.47354,-3.53054 -3.189,-8.88348 -4.6427,-9.15205 -1.06995,-0.19769 -1.16666,0.63588 -1.16666,10.05555 0,12.03959 0.32548,12.89512 3.64356,9.57704 z m -1.15339,-28.46969 c 1.47328,-2.88755 0.52362,-7.73106 -1.65684,-8.45026 -0.62108,-0.20486 -0.83333,1.11187 -0.83333,5.16957 0,5.70974 0.74801,6.69521 2.49017,3.28069 z m 13.173117,34.46596 c -1.4126,-1.03292 -1.4333,-0.81904 1.87902,-19.41331 0.91444,-5.13334 2.32579,-13.23334 3.13635,-18 0.84017,-4.94084 1.9153,-9.16822 2.50086,-9.83334 1.32667,-1.50691 3.26603,-1.49215 4.08123,0.0311 0.35255,0.65875 1.57992,7.63375 2.7275,15.5 1.14757,7.86625 2.78017,17.75228 3.62799,21.96895 1.67672,8.33916 1.45701,10 -1.32286,10 -2.08639,0 -2.4736,-0.99159 -3.98595,-10.2074 l -1.18058,-7.19412 -2.39676,0.20076 -2.39676,0.20074 -1.34234,8 c -0.73829,4.4 -1.581,8.375 -1.87268,8.83334 -0.69126,1.08618 -1.89222,1.05605 -3.45502,-0.0867 z m 10.29828,-23.57998 c -0.0211,-0.64167 -0.2735,-2.36667 -0.56084,-3.83333 -0.46522,-2.3747 -0.56569,-2.48418 -0.91766,-1 -1.19061,5.02058 -1.15792,6 0.20026,6 0.82416,0 1.30229,-0.4364 1.27824,-1.16667 z m 16.11895,23.33333 c -1.3703,-1.14149 -1.40172,-1.65423 -1.4563,-23.76042 -0.0626,-25.36282 -0.18682,-24.70928 4.69637,-24.70928 2.09629,0 3.11659,0.46522 4.97879,2.27013 1.28819,1.24857 2.68263,3.30172 3.09874,4.56257 1.07418,3.25478 0.41644,8.49192 -1.36996,10.90816 l -1.49268,2.01896 1.69689,1.77161 c 2.46753,2.57617 3.84153,6.37788 4.23906,11.72903 0.62726,8.44343 -2.27609,14.00064 -8.16938,15.63681 -3.59697,0.99863 -4.59151,0.93028 -6.22153,-0.42757 z m 6.96182,-5.70065 c 1.53679,-1.32189 1.82996,-2.18521 2.12038,-6.24415 0.2414,-3.3739 0.0219,-5.6589 -0.77373,-8.05428 -0.99062,-2.98248 -3.31981,-6.1679 -3.97867,-5.44128 -0.4101,0.45229 -0.9353,20.52649 -0.54719,20.9146 0.64786,0.64787 1.37067,0.38075 3.17921,-1.17489 z m -1.59484,-27.56934 c 1.40943,-1.27551 1.63482,-5.255 0.44548,-7.86531 -1.49467,-3.28046 -2.34277,-1.9721 -2.35647,3.6353 -0.007,2.93334 0.14557,5.33334 0.33941,5.33334 0.19383,0 0.90104,-0.4965 1.57158,-1.10333 z m 21.38583,33.99514 c -0.61567,-0.24843 -0.83333,-2.99883 -0.83333,-10.53022 0,-7.58183 -0.26828,-10.94146 -1.04698,-13.11111 -0.57584,-1.60443 -2.0582,-6.5789 -3.29412,-11.05437 -1.23593,-4.47547 -2.5814,-8.7618 -2.98996,-9.52518 -1.5028,-2.80802 1.08,-5.70811 3.29686,-3.70187 0.60848,0.55066 2.11308,4.38289 3.34356,8.51607 1.23048,4.13317 2.46924,7.77986 2.75281,8.10374 0.28357,0.32388 1.00633,-1.17612 1.60613,-3.33333 2.99748,-10.78052 4.64166,-14.25554 6.7449,-14.25554 0.48027,0 1.18422,0.5811 1.56433,1.29135 0.69183,1.29271 -1.38101,9.21935 -5.69001,21.75877 -1.43455,4.17462 -1.62086,5.86428 -1.62086,14.7 0,11.1676 -0.45947,12.50307 -3.83333,11.14169 z m 34.86112,-0.0448 c -4.14524,-1.05293 -6.36112,-4.41991 -6.36112,-9.66557 0,-3.92434 1.3248,-6.51478 3.33179,-6.51478 1.85172,0 2.31535,1.22206 2.10404,5.5459 -0.11196,2.29106 0.13461,4.26985 0.60226,4.83334 1.13705,1.37006 3.79603,1.1764 4.60512,-0.33541 1.6767,-3.13295 0.31806,-8.54272 -5.61996,-22.37716 -4.62488,-10.77507 -4.76894,-16.339 -0.50977,-19.68926 4.91708,-3.86778 11.46641,1.12436 11.4828,8.7526 0.005,2.20355 -2.12269,4.19798 -3.88223,3.63953 -1.36225,-0.43237 -2.4685,-3.25667 -1.73835,-4.43808 0.22907,-0.37065 0.23253,-1.40685 0.008,-2.30268 -0.55084,-2.1947 -2.83812,-2.15668 -3.84992,0.064 -0.90772,1.99221 -0.49863,3.35973 5.086,17.00181 2.03266,4.96535 4.00279,10.64697 4.37807,12.62582 1.20204,6.3383 -0.33937,10.72147 -4.36132,12.40195 -2.32177,0.9701 -3.02037,1.03076 -5.27511,0.45802 z m 17.34244,-0.12067 c -0.5396,-0.8731 -0.52534,-45.54643 0.015,-46.95451 0.30553,-0.79618 1.01614,-1.11169 2.19503,-0.97459 2.21395,0.25747 3.06861,2.03028 5.27247,10.93664 0.94353,3.81302 1.91568,6.93276 2.16034,6.93276 0.24466,0 1.42172,-3.675 2.61568,-8.16667 1.19396,-4.49167 2.45148,-8.69167 2.7945,-9.33333 0.77383,-1.44754 2.1541,-1.4941 3.52915,-0.11905 0.91167,0.91167 1.04762,4.01567 1.04762,23.91837 0,20.05422 -0.13003,22.97867 -1.05588,23.74706 -0.76547,0.63527 -1.36141,0.6839 -2.16667,0.17679 -0.95437,-0.60097 -1.15774,-2.52013 -1.44413,-13.62798 -0.18333,-7.11067 -0.53555,-12.4785 -0.78269,-11.9285 -0.24716,0.55 -0.77927,2.07607 -1.18249,3.39127 -0.84113,2.74356 -3.12237,5.46833 -4.26079,5.08919 -0.42572,-0.14178 -1.28036,-1.58288 -1.8992,-3.20245 -0.61886,-1.61958 -1.36886,-3.54468 -1.66667,-4.27801 -0.31449,-0.77436 -0.61786,3.81635 -0.72365,10.95036 -0.11392,7.6824 -0.45666,12.61444 -0.91496,13.16667 -0.83875,1.01062 -2.97546,1.17756 -3.53266,0.276 z m 28.6774,-0.44066 c -0.5762,-0.57618 -1.05982,-2.00118 -1.07472,-3.16666 -0.21848,-17.08282 0.21904,-42.8987 0.74365,-43.87894 0.87533,-1.63557 3.05336,-1.58238 3.95187,0.0965 0.4804,0.89761 0.65232,8.78857 0.52346,24.02486 -0.16322,19.29836 -0.3413,22.78259 -1.19188,23.31982 -1.36892,0.86461 -1.74219,0.8146 -2.95238,-0.3956 z m 16.86734,-0.0543 c -0.72102,-0.86831 -0.96372,-5.524 -1.14495,-21.96354 l -0.22999,-20.86165 -2.36916,-0.20314 c -3.29758,-0.28274 -4.38851,-2.16784 -2.26368,-3.91157 1.3198,-1.08307 2.63044,-1.29156 8.11906,-1.29156 5.06128,0 6.7827,0.23751 7.5928,1.04762 2.21736,2.21739 0.7117,4.28575 -3.11978,4.28575 h -2.5674 l 0.11541,21.41039 c 0.0944,17.5115 -0.0512,21.5159 -0.79927,21.98979 -1.36745,0.86622 -2.31544,0.72343 -3.33304,-0.50205 z m 17.2517,0.38184 c -1.07517,-0.62623 -1.16666,-2.47014 -1.16666,-23.51306 0,-23.69786 0.0836,-24.43354 2.77654,-24.43354 1.99862,0 2.55672,2.28071 2.55867,10.45618 l 0.002,7.87716 2.59671,0.11499 c 2.43173,0.10769 2.61846,-0.0193 2.93922,-2 0.18839,-1.16325 0.25393,-4.66228 0.14566,-7.77563 -0.10828,-3.11335 0.0453,-6.29743 0.34116,-7.07574 0.68663,-1.80598 2.20891,-2.39262 3.58932,-1.38324 0.95729,0.69999 1.07971,3.36272 1.08728,23.64817 0.005,12.57265 -0.1693,23.14708 -0.38664,23.49873 -0.21733,0.35166 -1.13487,0.63938 -2.03898,0.63938 -2.42683,0 -2.94807,-2.21643 -2.54334,-10.81501 0.19463,-4.13507 0.10077,-8.86832 -0.20859,-10.51832 -0.53839,-2.87158 -0.66155,-3 -2.87735,-3 h -2.31488 l -0.33333,11.85909 c -0.26865,9.55762 -0.5274,11.98148 -1.33333,12.48979 -1.2342,0.77841 -1.3848,0.77475 -2.83334,-0.069 z m -88.48017,-63.11326 c 1.67533,-2.11833 1.54139,-5.90398 -0.37866,-10.70267 -1.04742,-2.61776 -1.28666,-2.79734 -3.7268,-2.79734 -5.88742,0 -14.88962,-4.95129 -30.69019,-16.87989 -13.57483,-10.24828 -24.84414,-18.35564 -36.89085,-26.54 -10.09631,-6.85929 -22.248637,-14.22036 -22.711737,-13.75726 -0.4746,0.47461 25.530247,22.83099 34.045077,29.26855 2.2,1.6633 7.3,5.22239 11.33333,7.9091 9.94257,6.62301 18.32517,12.8755 24.38611,18.18935 4.66266,4.08791 5.23529,4.40034 7.41652,4.04637 2.05629,-0.33368 2.71994,-0.0618 5.1021,2.09035 1.50609,1.36067 4.29604,4.39382 6.19988,6.74036 1.90384,2.34652 3.68738,4.26641 3.96341,4.26641 0.27603,0 1.15435,-0.825 1.95181,-1.83333 z m 18.78293,-8.40861 c 2.88716,-2.96455 3.37292,-3.2157 5.67728,-2.93526 2.33544,0.28421 2.8861,-0.0193 7.51996,-4.14537 6.87171,-6.11861 11.99052,-10.01309 23.66667,-18.00601 5.5,-3.76503 12.1,-8.52842 14.66667,-10.58531 4.26978,-3.42174 23.94802,-20.67999 29.61903,-25.97653 l 2.38097,-2.22376 -4,2.13408 c -9.0404,4.82322 -35.10992,23.13679 -55.4598,38.95992 -15.20356,11.8216 -25.50148,17.63106 -31.31996,17.66881 -2.75621,0.0179 -2.78959,0.0476 -3.93985,3.51073 -1.77541,5.34528 -1.64442,8.99627 0.38165,10.63729 l 1.66205,1.34618 2.99401,-3.57142 c 1.6467,-1.96428 4.4148,-5.03029 6.15132,-6.81335 z m -34.80276,6.31527 c 0,-1.64672 -19.19916,-17.91864 -28.62005,-24.25645 l -5.04662,-3.39505 5,5.60863 c 14.62814,16.40878 21.89358,22.63621 26.4093,22.63621 1.24156,0 2.25737,-0.267 2.25737,-0.59334 z m 6,0.24511 c 0,-0.70831 -5.52851,-6.31844 -6.22651,-6.31844 -0.39785,0 0.75408,1.5 2.55984,3.33333 3.27434,3.32433 3.66667,3.64373 3.66667,2.98511 z m 31.02506,-3.02179 c 1.81956,-1.85351 2.83731,-3.19215 2.26168,-2.97475 -0.91102,0.34406 -6.39164,6.34477 -5.79486,6.34477 0.1237,0 1.71364,-1.51651 3.53318,-3.37002 z m 10.70492,0.79712 c 2.16518,-1.41509 6.18669,-4.95975 8.93669,-7.87702 7.00182,-7.42772 14.89487,-16.23521 15.55933,-17.36193 0.60162,-1.02019 -9.75022,6.27355 -15.226,10.72797 -6.55588,5.33307 -17,15.26488 -17,16.1661 0,1.75445 3.73762,0.95416 7.72998,-1.65512 z m -27.0548,-8.45291 c 0.60457,-1.83188 0.59519,-2.58012 -0.042,-3.34788 -0.71646,-0.86329 -0.93249,-0.82898 -1.70249,0.27034 -0.70004,0.99946 -0.71932,1.6898 -0.0935,3.34788 0.43363,1.14884 0.84939,2.0888 0.9239,2.0888 0.0745,0 0.48584,-1.06162 0.91406,-2.35914 z m -10.67518,-5.71455 c -5.60407,-2.57364 -9.33333,-3.90857 -9.33333,-3.34096 0,0.47685 5.21552,3.05632 8.66666,4.28631 2.77144,0.98775 3.28628,0.25769 0.66667,-0.94535 z m 25.1271,-1.30908 c 2.49676,-1.15423 4.19506,-2.23012 3.77401,-2.39088 -0.42106,-0.16075 -3.42106,0.94362 -6.66667,2.45417 -3.54918,1.65184 -5.05334,2.60474 -3.77401,2.39088 1.1699,-0.19556 4.1699,-1.29994 6.66667,-2.45417 z m -18.61964,-4.20812 c -0.43225,-5.38493 -2.70399,-9.68686 -7.74703,-14.67039 -3.60802,-3.56544 -24.25384,-20.25284 -25.78302,-20.83964 -0.40695,-0.15616 -1.0701,0.44073 -1.47365,1.32643 -1.07854,2.36715 -4.8274,6.44115 -5.92708,6.44115 -1.60305,0 -1.82589,-1.98024 -0.39769,-3.53392 1.70378,-1.85346 4.14858,-5.9001 4.15185,-6.87216 0.001,-0.40668 -3.77799,-4.15668 -8.39859,-8.33334 -10.1312,-9.1578 -20.74355,-20.72611 -26.68795,-29.09201 l -4.38038,-6.16476 -2.58409,3.9981 c -2.52851,3.9121 -4.28252,4.9688 -5.02707,3.02854 -0.20462,-0.53326 0.758,-2.80038 2.13916,-5.03804 2.86672,-4.64446 3.05012,-6.40114 1.31948,-12.63837 -2.14193,-7.71955 -0.90609,-15.70786 4.68368,-30.27457 0.27798,-0.7244 -1.13646,-0.83074 -7.54076,-0.56698 -6.648277,0.2738 -8.020177,0.15926 -8.759337,-0.73138 -1.43873,-1.73356 -0.25239,-2.44778 4.06588,-2.44778 2.245187,0 6.764437,-0.34398 10.042757,-0.76441 5.90202,-0.75691 7.65012,-0.64371 26.96305,1.74584 l 2.16666,0.26808 0.003,-3.12475 c 0.003,-3.7182 1.76167,-6.95715 4.56471,-8.40666 5.71782,-2.9568 11.89901,-1.63029 17.88428,3.83804 2.22559,2.03336 3.88048,3.11154 4.04055,2.63248 0.14911,-0.44627 1.03714,-1.9402 1.97339,-3.31984 l 1.70228,-2.50846 -3.58385,-3.20879 c -8.56828,-7.67144 -16.54962,-12.682176 -22.93499,-14.39863 -1.45697,-0.391646 -6.99904,-1.18452 -12.3157,-1.761947 -10.80247,-1.173206 -23.76358,-3.650506 -27.69621,-5.293666 -1.42452,-0.5952 -8.750627,-2.724701 -16.280247,-4.732227 -13.619558,-3.631207 -21.882352,-6.897407 -24.351672,-9.625974 -1.144574,-1.26474 -1.160034,-1.469973 -0.18424,-2.445767 0.975793,-0.9758 1.23498,-0.944273 3.08862,0.375634 3.873353,2.758066 9.202234,4.711653 22.093502,8.099553 7.13453,1.874994 14.0074,3.841754 15.273047,4.370574 5.58931,2.33536 18.68221,4.86152 30.72386,5.9279 15.44002,1.367327 22.86094,5.477514 42.03148,23.27976 2.40064,2.22929 5.61941,5.19766 7.15282,6.59636 3.78428,3.45186 4.74786,6.69656 3.19566,10.76093 -0.6332,1.65801 -2.08256,3.74341 -3.22082,4.63423 l -2.06954,1.61966 2.06163,3.88771 c 1.98816,3.74917 8.18211,21.37807 8.18211,23.2875 0,0.51345 0.26694,0.93354 0.5932,0.93354 0.32626,0 2.01582,-4.425 3.75456,-9.83333 1.73875,-5.40834 3.87456,-11.45188 4.74624,-13.4301 l 1.58488,-3.59677 -2.59798,-2.40323 c -3.1561,-2.9195 -4.3618,-6.55094 -3.3825,-10.18775 0.49286,-1.83038 1.92733,-3.60833 5.39566,-6.68768 2.59838,-2.30696 7.87011,-7.04447 11.71496,-10.52781 16.42933,-14.884553 21.75963,-17.51334 39.19098,-19.32816 10.59512,-1.103087 16.81981,-2.40992 26.99499,-5.66744 4.95276,-1.585594 13.63644,-4.133774 19.29708,-5.662627 9.89087,-2.67138 15.29126,-4.820207 18.58381,-7.39454 1.76671,-1.381321 3.45746,-1.028614 3.45746,0.72126 0,1.411086 -5.1539,4.884793 -9.95308,6.70834 -1.83041,0.695507 -8.72277,2.767913 -15.31634,4.605353 -6.59358,1.837447 -13.44249,3.913987 -15.21982,4.614541 -5.06971,1.998293 -17.63423,4.573873 -27.8441,5.70772 -5.13333,0.57008 -11.41825,1.69168 -13.96649,2.492447 -5.62944,1.769015 -12.21352,6.107386 -19.4801,12.835816 l -5.44658,5.04322 2.06287,3.16203 2.06287,3.16204 3.27606,-3.22568 c 1.80184,-1.77413 4.52452,-3.79254 6.05039,-4.48536 3.49749,-1.58803 8.73028,-1.64192 11.77431,-0.12126 2.90436,1.45089 5.51049,6.17858 5.16466,9.36901 -0.23628,2.17991 -0.21358,2.19955 2.13159,1.84441 12.5958,-1.90742 19.69091,-2.35181 30.03709,-1.88133 10.63692,0.4837 11.00687,0.54847 11.20806,1.96224 0.28366,1.9933 -2.69094,2.50193 -10.99212,1.87957 -6.0812,-0.45593 -6.38526,-0.41695 -5.89389,0.7555 0.28495,0.67993 1.72345,4.53624 3.19665,8.56957 2.36162,6.46566 2.68302,8.04325 2.7164,13.33333 0.0249,3.95149 -0.37734,7.41258 -1.17824,10.13736 -1.42958,4.86359 -1.18986,6.20704 1.93658,10.8529 2.56492,3.81146 2.85232,5.00379 1.34548,5.58202 -1.14184,0.43816 -3.66132,-2.03724 -5.44546,-5.3502 -1.41856,-2.6341 -1.78368,-2.72488 -2.71737,-0.67567 -2.16245,4.74607 -12.32055,16.68915 -24.56468,28.88118 l -13.48496,13.42759 1.3401,2.23908 c 0.73706,1.23149 1.93332,2.88472 2.65836,3.67384 1.47597,1.60641 1.41699,4.56524 -0.091,4.56524 -0.83279,0 -2.65572,-2.12636 -6.21882,-7.25395 -0.82145,-1.18214 -1.08434,-1.06761 -4.59052,2 -2.04554,1.78967 -6.98145,5.80395 -10.9687,8.92062 -13.52929,10.57528 -18.13371,16.56512 -18.76335,24.40911 -0.18796,2.34165 -0.15109,4.25755 0.0819,4.25755 0.23304,0 3.19911,-1.26039 6.59128,-2.80086 6.07571,-2.75915 9.69443,-3.40147 12.83425,-2.27808 1.04036,0.37224 3.23762,-0.9823 10,-6.16469 27.20088,-20.84554 46.11407,-34.15006 62,-43.61402 18.21329,-10.85047 23.58083,-17.97316 34.56319,-45.86509 6.93168,-17.60443 11.50228,-28.15203 16.17684,-37.33146 3.84332,-7.54711 14.54871,-25.30021 15.67686,-25.997443 0.75514,-0.4667 -4.52776,-8.545834 -11.08243,-16.948361 C 314.95949,41.0581 278.70557,17.17174 239.02971,6.7535725 194.06619,-5.0530345 147.29998,-0.22801447 105.86014,20.4931 75.915711,35.466188 51.09047,57.304074 32.511436,85.015376 c -2.313766,3.451061 -4.206847,6.615514 -4.206847,7.032114 0,0.416593 1.501041,2.993 3.335641,5.725334 10.137453,15.098056 16.716507,28.322996 28.237314,56.761486 7.88336,19.45964 15.107321,31.5586 22.576739,37.81235 1.76423,1.4771 8.57728,5.8237 15.14011,9.65914 13.028837,7.61427 29.552457,18.91459 51.265747,35.06007 19.80127,14.72375 18.03986,13.62268 19.80963,12.38308 2.20329,-1.54325 3.53077,-1.30839 10.85704,1.92082 3.66667,1.61616 6.93274,2.96078 7.25794,2.98805 0.3252,0.0273 0.43749,-1.86634 0.24952,-4.20799 z M 140.36013,55.020634 c -2.7054,-1.575753 -3.48668,-4.538207 -3.41437,-12.946594 0.1024,-11.906373 1.85642,-16.605559 5.90904,-15.830853 2.94014,0.56204 3.87478,3.759727 3.94514,13.49752 0.0689,9.536274 -0.40182,12.504467 -2.3074,14.549867 -1.4867,1.595794 -2.37622,1.75294 -4.13241,0.73006 z m 2.65398,-5.11326 c 0.78279,-2.79914 0.4578,-18.821566 -0.39915,-19.67852 -0.40293,-0.402927 -0.91846,-0.54672 -1.14564,-0.319547 -0.63356,0.633561 -1.18802,16.647013 -0.67169,19.399287 0.54162,2.887107 1.50384,3.147047 2.21648,0.59878 z m 7.79137,4.93128 c -0.44363,-1.156087 1.38826,-12.571307 3.08198,-19.204933 0.71831,-2.81334 1.30602,-5.272934 1.30602,-5.46576 0,-0.19282 -1.25169,-0.44284 -2.78152,-0.555587 -2.8025,-0.206547 -3.60865,-0.892827 -2.70764,-2.305033 0.59795,-0.93722 1.48323,-1.08018 6.0621,-0.978954 l 3.57293,0.07899 -0.35783,2.166667 c -0.19681,1.191666 -1.12292,5.316667 -2.05802,9.166667 -0.9351,3.849999 -1.89742,8.949999 -2.13848,11.333333 -0.24107,2.383333 -0.70834,4.858333 -1.03838,5.5 -0.71194,1.384147 -2.4515,1.540653 -2.94116,0.264613 z m 10.55466,0.460534 c -1.36091,-0.54914 -0.99671,-3.416774 0.49404,-3.889921 1.78345,-0.566046 2.67263,0.08808 2.67263,1.966127 0,1.197787 -1.42823,2.684847 -2.22119,2.31268 -0.0617,-0.02893 -0.48714,-0.203946 -0.94548,-0.388886 z m 8.38737,-0.248307 c -2.45324,-1.4316 -3.42243,-6.103254 -3.07228,-14.808827 0.42928,-10.672813 2.32932,-15.285933 5.83735,-14.172533 2.76334,0.877053 3.53618,3.255506 3.86952,11.908687 0.53214,13.813486 -1.82508,19.879286 -6.63459,17.072673 z m 3.32073,-10.612867 c 0.32404,-6.77764 -0.34869,-14.697307 -1.24846,-14.697307 -0.3305,0 -0.82614,0.825001 -1.10144,1.833334 -0.66446,2.43374 -0.66683,17.485626 -0.003,19.11148 1.03386,2.532166 2.06391,-0.202847 2.35291,-6.247507 z m 10.39439,10.532174 c -0.26191,-0.423781 -0.42521,-4.974267 -0.36289,-10.112188 0.10965,-9.038439 0.0734,-9.305566 -1.11563,-8.229479 -0.67593,0.6117 -1.56263,1.112187 -1.97045,1.112187 -1.6367,0 -1.49522,-1.5373 0.41636,-4.523934 1.10632,-1.728506 2.33156,-3.98956 2.72275,-5.024573 0.47317,-1.2519 1.10115,-1.806927 1.87598,-1.658034 1.05315,0.202374 1.18285,1.46832 1.35387,13.215173 0.10402,7.145254 0.0233,13.666367 -0.17937,14.491367 -0.39209,1.595967 -1.94899,2.010374 -2.74062,0.729481 z m 5.68447,-0.285361 c -0.63592,-0.76624 -0.6841,-1.360586 -0.17564,-2.166666 0.92355,-1.464134 2.89003,-1.41522 3.81602,0.09493 0.59197,0.965387 0.48139,1.397247 -0.55476,2.166667 -1.6373,1.21582 -2.00724,1.204434 -3.08562,-0.09493 z m 7.04638,0.616927 c -2.38173,-0.637947 -2.42762,-1.288827 -0.4438,-6.29402 2.71977,-6.86198 5.4438,-15.68626 5.4438,-17.634773 0,-2.214434 -1.21159,-2.071934 -1.70965,0.20108 -0.71229,3.250707 -0.93318,3.602293 -2.12167,3.37706 -0.8187,-0.155153 -1.23083,-0.9716 -1.37622,-2.726353 -0.16943,-2.045027 0.15772,-2.870127 1.78206,-4.494461 2.41361,-2.413613 3.02022,-2.45544 5.12244,-0.353213 2.67859,2.678587 1.87431,8.19154 -2.95012,20.221647 -0.77744,1.938573 -1.41351,3.813573 -1.41351,4.166666 0,0.353094 1.33229,0.641987 2.96065,0.641987 2.97619,0 4.39455,0.911473 3.23021,2.075807 -0.75323,0.753233 -6.65295,1.31978 -8.52419,0.818573 z m 14.30671,-0.921 c -2.18745,-2.187453 -2.64026,-4.28008 -2.63632,-12.183447 0.007,-12.842246 2.525,-18.4476 6.9779,-15.52994 2.27697,1.49192 3.2379,6.951214 2.88379,16.383493 -0.29831,7.945821 -1.30318,11.408954 -3.56195,12.275728 -1.68496,0.64658 -2.20536,0.51222 -3.66342,-0.945834 z m 3.81117,-8.430114 c 0.46006,-5.487593 -0.31057,-16.209933 -1.16503,-16.209933 -0.32676,0 -0.82483,0.825001 -1.10682,1.833334 -0.67105,2.399573 -0.66384,17.46316 0.009,19.11148 0.9006,2.205793 1.8468,0.225786 2.26269,-4.734881 z m 7.71545,9.102628 c -0.825,-0.331614 -1.5,-0.871334 -1.5,-1.199387 0,-0.328054 0.91422,-2.81272 2.03158,-5.52148 2.21912,-5.379641 5.30176,-15.494453 5.30176,-17.396207 0,-0.65752 -0.45,-1.195487 -1,-1.195487 -0.65722,0 -1,0.6576 -1,1.918374 0,2.56606 -1.36701,3.691473 -3.01776,2.48442 -1.11526,-0.815507 -1.1578,-1.18794 -0.41773,-3.658067 0.47131,-1.573073 1.54182,-3.22048 2.50121,-3.8491 1.57838,-1.034193 1.78098,-1.021547 3.43655,0.214513 0.96761,0.722427 1.98012,2.139234 2.25003,3.148467 0.57154,2.137067 -1.1099,9.122526 -4.00656,16.645033 -1.0632,2.761074 -1.76593,5.187287 -1.56164,5.39158 0.2043,0.204294 1.67145,0.371447 3.26034,0.371447 2.37704,0 2.88889,0.220787 2.88889,1.246107 0,1.825 -5.87633,2.72234 -9.16667,1.399787 z m 14.30402,-1.270914 c -2.11746,-2.516453 -2.82102,-7.37618 -2.21303,-15.285966 0.55173,-7.177767 1.57229,-10.613514 3.53459,-11.899261 1.38356,-0.906553 1.70878,-0.899893 3.18158,0.06513 2.47495,1.621646 3.17887,5.436773 2.92048,15.828506 -0.20012,8.0479 -0.39693,9.382174 -1.62786,11.035687 -1.95325,2.623827 -3.73702,2.702594 -5.79576,0.255907 z m 4.09082,-10.83464 c 0.24248,-7.860713 -0.259,-13.207007 -1.23881,-13.207007 -1.01141,0 -1.63453,4.670334 -1.64551,12.333333 -0.0114,7.972581 0.48848,10.433207 1.84467,9.079834 0.50875,-0.507693 0.8966,-3.569073 1.03965,-8.20616 z m -44.84939,193.126336 1.52376,-2 h -6.84786 -6.84787 l 2.06326,3.00691 c 1.13479,1.6538 2.64557,4.30484 3.35727,5.8912 l 1.29402,2.8843 1.96683,-3.8912 c 1.08176,-2.14017 2.65253,-4.79121 3.49059,-5.89121 z m 0.73833,-7.00631 c 3.54605,-1.53905 8.62218,-6.20244 10.27242,-9.43716 1.94177,-3.8062 1.6394,-7.20378 -1.13062,-12.70432 -1.32426,-2.62964 -3.16407,-5.97924 -4.08846,-7.44356 -7.53099,-11.92987 -13.55788,-25.47237 -18.47445,-41.51238 -3.77768,-12.32446 -3.76304,-12.30014 -5.70028,-9.47079 -2.62401,3.83237 -7.45062,8.48602 -8.41686,8.11524 -1.21776,-0.4673 -1.15997,-2.50516 0.1007,-3.55143 2.45772,-2.03973 6.98608,-8.89705 6.97041,-10.55535 -0.0192,-2.02868 -2.25019,-5.09121 -9.31664,-12.78892 -10.87371,-11.8451 -13.07311,-13.86912 -15.5824,-14.33986 -5.16973,-0.96986 -9.76251,2.24264 -9.73629,6.81022 0.0277,4.82762 3.68272,10.43574 7.95458,12.2052 1.06423,0.44082 2.09614,1.22151 2.29314,1.73486 0.38362,0.9997 -2.06475,3.59004 -4.75326,5.02888 -1.56735,0.83882 -1.83101,0.67491 -5.74261,-3.57013 -3.94917,-4.28583 -7.82267,-7.17315 -9.63013,-7.17837 -1.28078,-0.004 -4.13772,3.08841 -4.12744,4.46721 0.0111,1.48694 5.83842,3.71061 9.49108,3.62171 3.27712,-0.0798 3.30379,1.29283 0.12178,6.26713 -2.54503,3.97851 -3.90817,4.95507 -5.16383,3.69941 -0.60324,-0.60324 -0.43083,-1.40248 0.74222,-3.44068 l 1.52798,-2.65493 -2.86407,-1.29986 c -3.15436,-1.43161 -6.60036,-1.69559 -8.54541,-0.65463 -1.63538,0.87522 -2.96314,5.38192 -1.8028,6.11908 0.4496,0.28562 1.19842,0.52392 1.66404,0.52953 0.46562,0.005 1.98546,0.72915 3.37743,1.60786 1.68463,1.06346 3.12631,1.48381 4.31179,1.2572 2.76217,-0.52803 2.79286,1.10031 0.11051,5.86517 -3.09397,5.49609 -3.41185,5.80015 -4.7083,4.5037 -0.95885,-0.95885 -0.92883,-1.29483 0.33748,-3.77702 l 1.38996,-2.72454 -2.8913,-1.69442 c -3.37361,-1.97706 -4.874,-2.11236 -6.55499,-0.59108 -2.46343,2.22937 -1.02384,8.89667 1.92095,8.89667 2.23117,0 5.12887,1.62709 6.42756,3.60913 2.15796,3.29346 0.86214,9.0256 -1.80866,8.00072 -0.9723,-0.3731 -1.12164,-0.9113 -0.77122,-2.77925 0.34843,-1.85727 0.13838,-2.63185 -1.05948,-3.90691 -2.60512,-2.77302 -6.76165,-1.5286 -6.76165,2.02436 0,2.60244 1.92547,4.92273 6.95843,8.38528 2.39834,1.65 5.16242,4.11336 6.1424,5.47414 1.62568,2.25736 1.94026,2.41459 3.59048,1.7946 3.34648,-1.25726 6.16071,-3.5805 8.603,-7.10207 2.4667,-3.55679 3.92831,-4.33191 4.64528,-2.46351 0.98391,2.56402 -5.31616,9.92878 -10.4656,12.23425 l -2.61309,1.16991 3.55222,4.30653 c 1.95373,2.36859 5.89837,6.39444 8.76587,8.94634 2.86751,2.5519 8.8378,8.11174 13.26733,12.35522 17.80027,17.05259 27.46445,21.25836 38.1708,16.61162 z m -37.52271,-40.27493 c -0.86511,-2.25446 2.05286,-5.0041 9.85296,-9.28456 2.44604,-1.34232 5.48204,-3.68621 6.74666,-5.20864 2.31106,-2.78222 4.47264,-3.21634 4.47264,-0.89826 0,1.87484 -5.36628,6.90339 -10.22609,9.58251 -2.62565,1.44747 -5.65503,3.55991 -6.73197,4.69431 -2.11714,2.23012 -3.53839,2.61517 -4.1142,1.11464 z m 62.4056,24.07962 c 4.21667,-4.13104 9.74667,-9.29931 12.2889,-11.48504 4.09705,-3.52252 13.71085,-14.04905 13.71103,-15.01275 4e-5,-0.20134 -1.03178,-0.7392 -2.29294,-1.19524 -4.81788,-1.74217 -11.834,-9.74213 -10.83264,-12.35165 0.59763,-1.5574 2.27926,-1.3403 3.19866,0.41296 1.75916,3.3547 4.68387,6.3372 7.96626,8.1237 l 3.47068,1.88898 3.07836,-3.36066 c 1.6931,-1.84836 4.48061,-4.28747 6.19447,-5.42025 1.71386,-1.13277 3.73886,-2.85129 4.5,-3.81892 1.52448,-1.93806 1.83381,-5.52959 0.58389,-6.77951 -2.49998,-2.49998 -7.70996,0.8169 -6.98407,4.44633 0.26233,1.31164 0.0692,2.24041 -0.57756,2.77715 -1.62436,1.3481 -2.97171,-0.40187 -2.97171,-3.85973 0,-2.5836 0.33477,-3.32204 2.3808,-5.2517 1.73618,-1.63743 2.99124,-2.24539 4.63534,-2.24539 2.03736,0 2.3214,-0.24081 2.94881,-2.5 0.9342,-3.3639 0.88318,-4.27758 -0.33608,-6.01832 -1.38657,-1.9796 -4.03397,-1.90211 -7.14078,0.20902 -1.36845,0.92989 -2.48809,1.81274 -2.48809,1.9619 0,0.14915 0.6425,1.36013 1.42776,2.69106 1.28788,2.18278 1.3268,2.52083 0.39731,3.45032 -1.40687,1.40688 -2.07437,0.83566 -4.87448,-4.17141 -2.68329,-4.79818 -2.65501,-6.69424 0.0896,-6.00539 1.16665,0.29281 2.29759,-0.004 3.63098,-0.95369 1.0651,-0.75843 2.84983,-1.69732 3.96604,-2.08644 2.4545,-0.85564 2.69414,-2.88561 0.64777,-5.48714 -1.73808,-2.20961 -4.72707,-2.32043 -9.31803,-0.34545 l -3.28025,1.41113 1.32333,1.85845 c 1.71107,2.40298 1.7441,4.65263 0.0683,4.65263 -1.55769,0 -7.07183,-8.18664 -6.50647,-9.65993 0.43562,-1.13523 2.13779,-1.34925 2.7574,-0.3467 0.24483,0.39614 1.7177,-0.004 3.68385,-1 1.80175,-0.91302 3.75582,-1.66004 4.34237,-1.66004 1.72936,0 0.90996,-3.3375 -1.20547,-4.91002 -1.84385,-1.37064 -1.85807,-1.37088 -4.266,-0.0741 -1.32879,0.7156 -4.24628,3.32687 -6.48332,5.80282 -2.23703,2.47595 -4.45993,4.50464 -4.93976,4.50819 -1.24561,0.009 -6.12757,-4.04732 -6.12757,-5.09156 0,-0.48118 1.125,-1.45177 2.5,-2.15688 4.7874,-2.45499 7.5,-6.91489 7.5,-12.33109 0,-4.06982 -2.66231,-6.414 -7.28446,-6.414 -3.79479,0 -6.84635,1.94912 -11.40476,7.28454 -1.6376,1.91674 -5.16656,5.88959 -7.84214,8.82856 -2.67557,2.93896 -5.6383,6.51259 -6.58384,7.9414 -1.5891,2.40128 -1.65107,2.7623 -0.8191,4.77166 0.49503,1.19561 2.50724,4.06867 4.47159,6.38457 3.37779,3.98232 4.06245,6.1226 1.95857,6.1226 -1.11608,0 -6.61684,-5.62929 -8.35737,-8.55265 l -1.32134,-2.21931 -1.0514,2.88598 c -0.57828,1.58729 -1.8315,5.58598 -2.78496,8.88598 -0.95346,3.3 -2.4999,8.16277 -3.43656,10.80615 l -1.703,4.80614 4.04627,8.37035 c 2.22545,4.60369 5.67279,11.14093 7.66074,14.52719 8.85788,15.08842 9.76678,18.46655 6.62625,24.62799 l -1.93917,3.80447 2.71567,-1.98313 c 1.49362,-1.09072 6.16567,-5.36307 10.38234,-9.49411 z m -3.70543,-25.17218 c -1.07519,-1.12225 -4.31952,-3.29725 -7.20964,-4.83333 -5.12417,-2.72347 -10.41827,-7.58871 -10.41827,-9.57432 0,-2.23295 2.17429,-1.66671 4.8882,1.27299 1.59407,1.72669 4.76778,4.01438 7.44514,5.36665 2.56667,1.29635 5.83949,3.57022 7.27295,5.05303 2.20296,2.27881 2.47404,2.85537 1.75171,3.72573 -1.17243,1.4127 -1.49098,1.32638 -3.73009,-1.01075 z M 113.87653,162.72097 c 0.6532,-0.78706 0.67182,-1.4027 0.0816,-2.69804 -0.42057,-0.92306 -0.76468,-3.29116 -0.76468,-5.26244 0,-2.85045 0.34118,-3.98961 1.66667,-5.56486 0.91667,-1.0894 1.67325,-2.83742 1.68131,-3.88449 0.0259,-3.36678 2.25792,-7.23149 4.90078,-8.48561 1.69858,-0.80603 2.41865,-1.58432 2.42041,-2.6161 0.003,-1.75462 2.34713,-5.80205 3.36038,-5.80205 0.3937,0 0.5493,-0.26943 0.34577,-0.59874 -0.20352,-0.32931 -2.54623,-0.80083 -5.20601,-1.04783 -2.65979,-0.247 -5.30017,-0.57848 -5.86752,-0.73663 -0.78553,-0.21897 -1.69365,1.52971 -3.80778,7.33227 -3.79235,10.40874 -4.58193,15.01667 -3.59605,20.98641 0.75444,4.56831 2.54138,9.39785 3.47722,9.39785 0.25386,0 0.8424,-0.45888 1.30788,-1.01974 z m 154.98362,-2.81609 c 1.06768,-2.53373 1.32858,-4.62527 1.3095,-10.4975 -0.0225,-6.94562 -0.17324,-7.73867 -2.84988,-15 -1.55433,-4.21667 -3.04361,-7.99558 -3.3095,-8.39759 -0.34312,-0.51875 -2.12832,-0.54594 -6.15012,-0.0936 -3.11667,0.35049 -5.779,0.74173 -5.91629,0.86943 -0.13729,0.12769 0.52577,1.15366 1.47347,2.27994 0.9477,1.12628 1.90768,3.03174 2.1333,4.23434 0.30176,1.60851 0.91689,2.3778 2.32686,2.91001 2.60024,0.98148 4.64375,4.52237 4.64683,8.05177 0.002,1.95095 0.32677,2.9787 1.02715,3.24746 2.61661,1.00409 3.76772,6.94567 2.19062,11.30707 -0.62047,1.71588 -0.60338,2.38861 0.0816,3.214 1.28317,1.54611 1.57561,1.34142 3.03643,-2.12528 z m -34.33334,-23.4975 c 0,-0.36667 -0.13229,-0.66667 -0.29398,-0.66667 -0.1617,0 -0.4794,0.3 -0.70602,0.66667 -0.22661,0.36667 -0.0943,0.66667 0.29399,0.66667 0.38831,0 0.70601,-0.3 0.70601,-0.66667 z m -29.95756,-3.13801 c 3.55666,-2.99273 7.29111,-8.16192 7.2884,-10.08852 -0.001,-0.97541 -0.60696,-2.76492 -1.34576,-3.97668 l -1.34326,-2.20322 -2.15424,1.49996 c -3.56742,2.48394 -8.10267,6.598 -8.96395,8.13148 -1.21872,2.16988 -1.01828,4.72343 0.52476,6.68508 1.75555,2.23183 3.29922,2.21944 5.99405,-0.0481 z m -24.75749,-0.61856 c 1.68762,-2.14547 1.78802,-5.62386 0.21505,-7.45059 -0.64167,-0.74518 -3.00655,-2.86013 -5.2553,-4.69989 l -4.08863,-3.34501 -1.36195,1.45936 c -1.83842,1.96992 -2.42063,4.65925 -1.42101,6.56394 2.2887,4.36092 7.41988,9.21889 9.74517,9.22627 0.43172,0.001 1.40672,-0.78797 2.16667,-1.75408 z m -40.07292,-2.57676 c -0.45841,-1.0061 -1.31148,-1.66536 -2.15238,-1.66336 -1.24917,0.003 -1.1865,0.17256 0.60702,1.64269 2.48634,2.03803 2.4644,2.03774 1.54536,0.0207 z m 101.45464,-0.66667 c 0.86117,-0.91667 1.28846,-1.66207 0.94954,-1.65646 -0.80345,0.0133 -1.73188,0.71225 -2.8645,2.15646 -1.40301,1.78897 0.14407,1.38503 1.91496,-0.5 z"
       style="fill:#000000;stroke-width:0.666667" />
  </g>
</svg>
