<?xml version="1.0" encoding="UTF-8" standalone="no"?>
<svg
   viewBox="0 0 204.56401 206.92488"
   height="206.92488"
   width="204.56401">
  <g>
    <path
       d="m 82.315785,204.47033 c -2.25856,-2.25855 -2.45455,-3.20653 -2.45455,-11.8723 v -9.41775 l -5.75,0.48956 c -6.46838,0.55072 -61.58091,-1.58118 -67.7247697,-2.61978 -2.89676,-0.48968 -4.38844,-1.41142 -5.50000003,-3.39855 -2.38875997,-4.27035 -0.0215,-7.43895 7.97477003,-10.67429 6.8073197,-2.75428 15.7659297,-8.45614 22.4451897,-14.28561 l 3.94518,-3.44325 -7.39464,-0.68726 c -7.90978,-0.73514 -11.00675,-2.43903 -10.98042,-6.04121 0.0236,-3.2267 0.86481,-3.93458 9.98469,-8.40206 4.675,-2.2901 12.00415,-6.98287 16.287,-10.42838 l 7.787,-6.26457 -10.287,-1.1459 c -5.65785,-0.63025 -10.41064,-1.19275 -10.56175,-1.25 -0.15111,-0.0573 -0.68411,-1.18081 -1.18445,-2.49678 -1.73255,-4.55696 -0.25276,-6.41155 8.32778,-10.43703 8.02111,-3.763029 16.07325,-9.546499 24.38142,-17.511999 2.3375,-2.24109 4.25,-4.40954 4.25,-4.81878 0,-0.40924 -2.76645,-0.87805 -6.14766,-1.04179 -5.29536,-0.25645 -6.4191,-0.66231 -8.10553,-2.92755 -2.88594,-3.876417 -1.55916,-6.431307 5.08041,-9.782947 5.80031,-2.92799 12.95685,-7.99313 19.63369,-13.89602 3.4795,-3.07618 3.63002,-3.43325 2.14086,-5.07874 -2.72211,-3.00791 -1.86977,-5.72206 3.34848,-10.6627 5.5626,-5.26667 11.52658,-15.88987 15.41059,-27.4497604 4.044775,-12.03838 6.463855,-11.92412 10.586535,0.5 3.58646,10.8081804 9.90645,22.0302604 15.26317,27.1020004 5.03435,4.76653 5.8872,7.52753 3.23159,10.46194 -1.44026,1.59147 -0.90236,2.26165 7.12521,8.87755 4.7757,3.93587 11.29307,8.47365 14.48307,10.08396 5.91599,2.98638 7.54944,5.21751 6.28424,8.58367 -1.2143,3.230707 -3.62281,4.326097 -9.58465,4.359077 -3.1625,0.0175 -5.75,0.45863 -5.75,0.98032 0,0.52169 4.1625,4.58816 9.25,9.03662 6.40428,5.59983 12.06376,9.4762 18.39609,12.600109 9.51934,4.69615 11.04429,6.46872 9.36496,10.88569 -1.11619,2.93581 -2.01999,3.22316 -12.78715,4.06546 l -9.0621,0.70891 4.19263,3.62735 c 7.6589,6.62624 14.4106,11.14631 21.31556,14.27014 7.31098,3.30751 8.29082,4.18571 8.3147,7.45221 0.0282,3.85378 -3.06865,5.37186 -12.57232,6.16304 l -8.91237,0.74195 7.5,5.30923 c 4.125,2.92007 11.325,7.12384 16,9.3417 4.675,2.21786 9.61906,4.56763 10.9868,5.22171 3.54636,1.69593 4.78405,5.80195 2.70523,8.97463 -1.28997,1.96875 -2.7645,2.63011 -6.91579,3.10189 -8.66371,0.98461 -44.3076,2.30963 -58.52708,2.17567 l -13.25084,-0.12483 8.4e-4,9.11514 c 7.1e-4,7.70814 -0.31908,9.52186 -2.07174,11.75 l -2.07258,2.63486 h -17.97287 c -17.748985,0 -18.003465,-0.0306 -20.427425,-2.45455 z m 35.545455,-13.85432 c 0,-6.73963 0.43279,-10.8547 1.25,-11.88537 1.07541,-1.35631 5.92906,-1.66124 34.75,-2.18318 18.425,-0.33368 35.43147,-0.89705 37.79216,-1.25195 l 4.29216,-0.64528 -8.69296,-4.36332 c -4.78113,-2.39983 -13.72605,-7.91997 -19.87761,-12.26698 l -11.18465,-7.90366 -23.91455,-0.6404 c -29.08779,-0.77894 -29.64764,-0.77896 -61.452785,-0.003 l -25.53824,0.6234 -6.96176,5.46867 c -10.44199,8.20247 -15.26093,11.46831 -22.81615,15.46264 -6.3021697,3.33188 -6.6363697,3.66549 -4.14834,4.14111 1.48832,0.28451 7.69493,0.5967 13.79246,0.69375 6.09752,0.097 11.41147,0.37736 11.80877,0.6229 0.39729,0.24554 11.19907,0.46141 24.00395,0.4797 15.22626,0.0218 23.73415,0.40885 24.58957,1.11879 0.9306,0.77233 1.30797,4.22385 1.30797,11.96307 v 10.87798 h 15.500005 15.5 z M 97.763585,141.89746 c 3.270425,-0.78085 5.841635,-0.71962 10.000005,0.23815 6.06067,1.39591 51.56794,1.61445 63.78324,0.3063 l 6.59598,-0.70637 -6.72857,-3.65533 c -3.70071,-2.01043 -11.33253,-7.41933 -16.9596,-12.01977 l -10.23105,-8.36443 -16.43117,-0.27788 c -9.03715,-0.15283 -18.45905,-0.75367 -20.93755,-1.3352 -3.05036,-0.7157 -5.79671,-0.73646 -8.500005,-0.0642 -2.1965,0.54619 -11.64363,1.14912 -20.99363,1.33983 l -17,0.34676 -7.05312,6.00566 c -8.57954,7.3054 -19.12582,14.76117 -22.92071,16.20399 -1.54195,0.58625 -2.49301,1.37644 -2.11347,1.75598 2.13129,2.13129 60.71226,2.32228 69.48965,0.22655 z m 4.597655,-32.14653 c 2.75,-0.0309 11.31079,0.27994 19.02398,0.69066 7.71319,0.41072 21.15608,0.41251 29.87309,0.004 l 15.8491,-0.7428 -5.28054,-2.88768 c -7.28815,-3.98555 -14.179,-9.328599 -24.0564,-18.652929 l -8.40923,-7.93836 -12,-0.76473 c -14.77635,-0.94165 -15.21908,-0.94167 -30.000005,-0.001 l -12,0.76355 -8.74352,8.29657 c -9.37322,8.89408 -18.85778,16.077799 -25.16387,19.059399 l -3.90738,1.84747 7.90738,0.61957 c 4.34907,0.34077 17.80739,0.42675 29.90739,0.19108 12.1,-0.23567 24.25,-0.45375 27.000005,-0.4846 z M 99.361235,72.014174 c 1.650005,-0.37074 4.800005,-0.30573 7.000005,0.14446 2.2,0.4502 11.875,0.69427 21.5,0.54239 l 17.5,-0.27614 -7,-4.68414 c -3.85,-2.57627 -10.32867,-7.73562 -14.39704,-11.4652 -7.27784,-6.6718 -7.49537,-6.78573 -13.5,-7.07046 -8.81475,-0.41799 -8.54045,-0.41841 -15.269775,0.0234 -5.96387,0.39151 -6.42457,0.62736 -14,7.1671 -4.30825,3.71925 -10.63633,8.62236 -14.06238,10.89581 -3.42606,2.27344 -6.23856,4.47104 -6.25,4.88354 -0.0255,0.92022 34.30663,0.77684 38.47919,-0.16071 z m 19.500005,-29.79144 c 0,-0.26395 -1.60737,-2.35145 -3.57194,-4.63889 -1.96456,-2.28743 -5.65903,-8.35536 -8.20992,-13.4843 l -4.63799,-9.32535 -4.416505,9.07818 c -2.42907,4.993 -6.1596,11.05846 -8.29007,13.47879 -2.13047,2.42034 -3.87358,4.61907 -3.87358,4.88606 0,0.26699 7.425,0.48544 16.500005,0.48544 9.075,0 16.5,-0.21597 16.5,-0.47993 z"
       style="fill:#000000;fill-opacity:1;fill-rule:nonzero;stroke:none;stroke-width:1;stroke-miterlimit:4;stroke-dasharray:none;stroke-opacity:1" />
  </g>
</svg>
